{
.appVersion = "3151";
.formatVersion = 3;
axes = (
{
name = Resolution;
tag = LOFI;
}
);
classes = (
{
code = "A
Aacute
Acircumflex
Adieresis
Agrave
Amacron
Aring
Atilde
B
C
Cacute
Ccaron
Ccedilla
D
E
Eacute
Ecaron
Ecircumflex
Edieresis
Edotaccent
Egrave
Emacron
F
G
H
I
IJ
Iacute
Icircumflex
Idieresis
Igrave
Imacron
J
Jacute
K
L
M
N
Nacute
Ncaron
Ntilde
O
Oacute
Ocircumflex
Odieresis
Ograve
Omacron
Otilde
OE
P
Q
R
S
Sacute
Scaron
Scedilla
T
U
Uacute
Ucircumflex
Udieresis
Ugrave
Umacron
Uring
V
W
Wacute
Wcircumflex
Wdieresis
Wgrave
X
Y
Yacute
Ycircumflex
Ydieresis
Ygrave
Z
Zacute
Zcaron
Zdotaccent
a
aacute
acircumflex
adieresis
agrave
amacron
aring
atilde
ae
b
c
cacute
ccaron
ccedilla
d
e
eacute
ecaron
ecircumflex
edieresis
edotaccent
egrave
emacron
f
g
h
i
idotless
iacute
icircumflex
idieresis
igrave
imacron
ij
j
jdotless
jacute
k
l
m
n
nacute
ncaron
ntilde
o
oacute
ocircumflex
odieresis
ograve
omacron
otilde
oe
p
q
r
s
sacute
scaron
scedilla
t
u
uacute
ucircumflex
udieresis
ugrave
umacron
uring
v
w
wacute
wcircumflex
wdieresis
wgrave
x
y
yacute
ycircumflex
ydieresis
ygrave
z
zacute
zcaron
zdotaccent
a.alt
zero
one
two
three
four
five
six
seven
eight
nine
zero.tf
one.tf
two.tf
three.tf
four.tf
five.tf
six.tf
seven.tf
eight.tf
nine.tf
space
period
comma
colon
semicolon
ellipsis
exclam
exclamdown
question
questiondown
periodcentered
bullet
asterisk
numbersign
slash
backslash
hyphen
endash
emdash
underscore
parenleft
parenright
braceleft
braceright
bracketleft
bracketright
quotedblleft
quotedblright
quoteleft
quoteright
quotedbl
quotesingle
flower
at
ampersand
bar
dollar
euro
plus
minus
equal
greater
less
asciitilde
asciicircum
percent
dieresiscomb
dotaccentcomb
gravecomb
acutecomb
circumflexcomb
caroncomb
ringcomb
tildecomb
macroncomb
cedillacomb
dieresiscomb.case
dotaccentcomb.case
gravecomb.case
acutecomb.case
circumflexcomb.case
caroncomb.case
ringcomb.case
tildecomb.case
macroncomb.case
pixel
";
name = default;
},
{
code = "A.15
Aacute.15
Acircumflex.15

glyphs = (
{
color = 6;
glyphname = A;
lastChange = "2023-12-06 14:16:46 +0000";
layers = (
{
anchors = (
{
name = bottom;
pos = (450,0);
},
{
name = top.case;
pos = (225,750);
}
);
layerId = m01;
shapes = (
{
closed = 1;
nodes = (
(150,600,l),
(75,600,l),
(75,525,l),
(0,525,l),
(0,0,l),
(150,0,l),
(150,150,l),
(375,150,l),
(375,0,l),
(525,0,l),
(525,525,l),
(450,525,l),
(450,600,l),
(375,600,l),
(375,675,l),
(300,675,l),
(300,750,l),
(225,750,l),
(225,675,l),
(150,675,l)
);
},
{
closed = 1;
nodes = (
(150,450,l),
(225,450,l),
(225,525,l),
(300,525,l),
(300,450,l),
(375,450,l),
(375,300,l),
(150,300,l)
);
}
);
width = 600;
},
{
anchors = (
{
name = bottom;
pos = (450,0);
},
{
name = top.case;
pos = (225,750);
}
);
layerId = m002;
shapes = (
{
closed = 1;
nodes = (
(150,600,l),
(75,600,l),
(75,525,l),
(0,525,l),
(0,0,l),
(150,0,l),
(150,150,l),
(375,150,l),
(375,0,l),
(525,0,l),
(525,525,l),
(450,525,l),
(450,600,l),
(375,600,l),
(375,675,l),
(300,675,l),
(300,750,l),
(225,750,l),
(225,675,l),
(150,675,l)
);
},
{
closed = 1;
nodes = (
(150,450,l),
(225,450,l),
(225,525,l),
(300,525,l),
(300,450,l),
(375,450,l),
(375,300,l),
(150,300,l)
);
}
);
width = 600;
}
);
unicode = 65;
},
{
color = 6;
glyphname = Aacute;
lastChange = "2023-12-06 14:16:46 +0000";
layers = (
{
anchors = (
{
name = bottom;
pos = (450,0);
},
{
name = top.case;
pos = (225,750);
}
);
layerId = m01;
shapes = (
{
closed = 1;
nodes = (
(150,600,l),
(75,600,l),
(75,525,l),
(0,525,l),
(0,0,l),
(150,0,l),
(150,150,l),
(375,150,l),
(375,0,l),
(525,0,l),
(525,525,l),
(450,525,l),
(450,600,l),
(375,600,l),
(375,675,l),
(300,675,l),
(300,750,l),
(225,750,l),
(225,675,l),
(150,675,l)
);
},
{
closed = 1;
nodes = (
(150,450,l),
(225,450,l),
(225,525,l),
(300,525,l),
(300,450,l),
(375,450,l),
(375,300,l),
(150,300,l)
);
},
{
closed = 1;
nodes = (
(300,825,l),
(300,900,l),
(375,900,l),
(375,1050,l),
(300,1050,l),
(300,975,l),
(225,975,l),
(225,825,l)
);
}
);
width = 600;
},
{
anchors = (
{
name = bottom;
pos = (450,0);
},
{
name = top.case;
pos = (225,750);
}
);
layerId = m002;
shapes = (
{
closed = 1;
nodes = (
(150,600,l),
(75,600,l),
(75,525,l),
(0,525,l),
(0,0,l),
(150,0,l),
(150,150,l),
(375,150,l),
(375,0,l),
(525,0,l),
(525,525,l),
(450,525,l),
(450,600,l),
(375,600,l),
(375,675,l),
(300,675,l),
(300,750,l),
(225,750,l),
(225,675,l),
(150,675,l)
);
},
{
closed = 1;
nodes = (
(150,450,l),
(225,450,l),
(225,525,l),
(300,525,l),
(300,450,l),
(375,450,l),
(375,300,l),
(150,300,l)
);
},
{
closed = 1;
nodes = (
(300,825,l),
(300,900,l),
(375,900,l),
(375,1050,l),
(300,1050,l),
(300,975,l),
(225,975,l),
(225,825,l)
);
}
);
width = 600;
}
);
unicode = 193;
},
{
color = 6;
glyphname = Abreve;
lastChange = "2023-12-06 14:16:46 +0000";
layers = (
{
anchors = (
{
name = bottom;
pos = (450,0);
},
{
name = top.case;
pos = (225,750);
}
);
layerId = m01;
shapes = (
{
closed = 1;
nodes = (
(150,600,l),
(75,600,l),
(75,525,l),
(0,525,l),
(0,0,l),
(150,0,l),
(150,150,l),
(375,150,l),
(375,0,l),
(525,0,l),
(525,525,l),
(450,525,l),
(450,600,l),
(375,600,l),
(375,675,l),
(300,675,l),
(300,750,l),
(225,750,l),
(225,675,l),
(150,675,l)
);
},
{
closed = 1;
nodes = (
(150,900,l),
(150,825,l),
(375,825,l),
(375,900,l),
(450,900,l),
(450,1050,l),
(375,1050,l),
(375,975,l),
(150,975,l),
(150,1050,l),
(75,1050,l),
(75,900,l)
);
},
{
closed = 1;
nodes = (
(150,450,l),
(225,450,l),
(225,525,l),
(300,525,l),
(300,450,l),
(375,450,l),
(375,300,l),
(150,300,l)
);
}
);
width = 600;
},
{
anchors = (
{
name = bottom;
pos = (450,0);
},
{
name = top.case;
pos = (225,750);
}
);
layerId = m002;
shapes = (
{
closed = 1;
nodes = (
(150,600,l),
(75,600,l),
(75,525,l),
(0,525,l),
(0,0,l),
(150,0,l),
(150,150,l),
(375,150,l),
(375,0,l),
(525,0,l),
(525,525,l),
(450,525,l),
(450,600,l),
(375,600,l),
(375,675,l),
(300,675,l),
(300,750,l),
(225,750,l),
(225,675,l),
(150,675,l)
);
},
{
closed = 1;
nodes = (
(150,900,l),
(150,825,l),
(375,825,l),
(375,900,l),
(450,900,l),
(450,1050,l),
(375,1050,l),
(375,975,l),
(150,975,l),
(150,1050,l),
(75,1050,l),
(75,900,l)
);
},
{
closed = 1;
nodes = (
(150,450,l),
(225,450,l),
(225,525,l),
(300,525,l),
(300,450,l),
(375,450,l),
(375,300,l),
(150,300,l)
);
}
);
width = 600;
}
);
unicode = 258;
},
{
color = 6;
glyphname = Acircumflex;
lastChange = "2023-12-06 14:16:46 +0000";
layers = (
{
anchors = (
{
name = bottom;
pos = (450,0);
},
{
name = top.case;
pos = (225,750);
}
);
layerId = m01;
shapes = (
{
closed = 1;
nodes = (
(150,600,l),
(75,600,l),
(75,525,l),
(0,525,l),
(0,0,l),
(150,0,l),
(150,150,l),
(375,150,l),
(375,0,l),
(525,0,l),
(525,525,l),
(450,525,l),
(450,600,l),
(375,600,l),
(375,675,l),
(300,675,l),
(300,750,l),
(225,750,l),
(225,675,l),
(150,675,l)
);
},
{
closed = 1;
nodes = (
(225,825,l),
(225,900,l),
(300,900,l),
(300,825,l),
(450,825,l),
(450,900,l),
(375,900,l),
(375,975,l),
(300,975,l),
(300,1050,l),
(225,1050,l),
(225,975,l),
(150,975,l),
(150,900,l),
(75,900,l),
(75,825,l)
);
},
{
closed = 1;
nodes = (
(150,450,l),
(225,450,l),
(225,525,l),
(300,525,l),
(300,450,l),
(375,450,l),
(375,300,l),
(150,300,l)
);
}
);
width = 600;
},
{
anchors = (
{
name = bottom;
pos = (450,0);
},
{
name = top.case;
pos = (225,750);
}
);
layerId = m002;
shapes = (
{
closed = 1;
nodes = (
(150,600,l),
(75,600,l),
(75,525,l),
(0,525,l),
(0,0,l),
(150,0,l),
(150,150,l),
(375,150,l),
(375,0,l),
(525,0,l),
(525,525,l),
(450,525,l),
(450,600,l),
(375,600,l),
(375,675,l),
(300,675,l),
(300,750,l),
(225,750,l),
(225,675,l),
(150,675,l)
);
},
{
closed = 1;
nodes = (
(225,825,l),
(225,900,l),
(300,900,l),
(300,825,l),
(450,825,l),
(450,900,l),
(375,900,l),
(375,975,l),
(300,975,l),
(300,1050,l),
(225,1050,l),
(225,975,l),
(150,975,l),
(150,900,l),
(75,900,l),
(75,825,l)
);
},
{
closed = 1;
nodes = (
(150,450,l),
(225,450,l),
(225,525,l),
(300,525,l),
(300,450,l),
(375,450,l),
(375,300,l),
(150,300,l)
);
}
);
width = 600;
}
);
unicode = 194;
},
{
color = 6;
glyphname = Adieresis;
lastChange = "2023-12-06 14:16:46 +0000";
layers = (
{
anchors = (
{
name = bottom;
pos = (450,0);
},
{
name = top.case;
pos = (225,750);
}
);
layerId = m01;
shapes = (
{
closed = 1;
nodes = (
(150,600,l),
(75,600,l),
(75,525,l),
(0,525,l),
(0,0,l),
(150,0,l),
(150,150,l),
(375,150,l),
(375,0,l),
(525,0,l),
(525,525,l),
(450,525,l),
(450,600,l),
(375,600,l),
(375,675,l),
(300,675,l),
(300,750,l),
(225,750,l),
(225,675,l),
(150,675,l)
);
},
{
closed = 1;
nodes = (
(225,825,l),
(225,975,l),
(75,975,l),
(75,825,l)
);
},
{
closed = 1;
nodes = (
(150,450,l),
(225,450,l),
(225,525,l),
(300,525,l),
(300,450,l),
(375,450,l),
(375,300,l),
(150,300,l)
);
},
{
closed = 1;
nodes = (
(450,825,l),
(450,975,l),
(300,975,l),
(300,825,l)
);
}
);
width = 600;
},
{
anchors = (
{
name = bottom;
pos = (450,0);
},
{
name = top.case;
pos = (225,750);
}
);
layerId = m002;
shapes = (
{
closed = 1;
nodes = (
(150,600,l),
(75,600,l),
(75,525,l),
(0,525,l),
(0,0,l),
(150,0,l),
(150,150,l),
(375,150,l),
(375,0,l),
(525,0,l),
(525,525,l),
(450,525,l),
(450,600,l),
(375,600,l),
(375,675,l),
(300,675,l),
(300,750,l),
(225,750,l),
(225,675,l),
(150,675,l)
);
},
{
closed = 1;
nodes = (
(225,825,l),
(225,975,l),
(75,975,l),
(75,825,l)
);
},
{
closed = 1;
nodes = (
(150,450,l),
(225,450,l),
(225,525,l),
(300,525,l),
(300,450,l),
(375,450,l),
(375,300,l),
(150,300,l)
);
},
{
closed = 1;
nodes = (
(450,825,l),
(450,975,l),
(300,975,l),
(300,825,l)
);
}
);
width = 600;
}
);
unicode = 196;
},
{
color = 6;
glyphname = Agrave;
lastChange = "2023-12-06 14:16:46 +0000";
layers = (
{
anchors = (
{
name = bottom;
pos = (450,0);
},
{
name = top.case;
pos = (225,750);
}
);
layerId = m01;
shapes = (
{
closed = 1;
nodes = (
(150,600,l),
(75,600,l),
(75,525,l),
(0,525,l),
(0,0,l),
(150,0,l),
(150,150,l),
(375,150,l),
(375,0,l),
(525,0,l),
(525,525,l),
(450,525,l),
(450,600,l),
(375,600,l),
(375,675,l),
(300,675,l),
(300,750,l),
(225,750,l),
(225,675,l),
(150,675,l)
);
},
{
closed = 1;
nodes = (
(150,450,l),
(225,450,l),
(225,525,l),
(300,525,l),
(300,450,l),
(375,450,l),
(375,300,l),
(150,300,l)
);
},
{
closed = 1;
nodes = (
(225,900,l),
(225,825,l),
(375,825,l),
(375,900,l),
(300,900,l),
(300,975,l),
(225,975,l),
(225,1050,l),
(150,1050,l),
(150,900,l)
);
}
);
width = 600;
},
{
anchors = (
{
name = bottom;
pos = (450,0);
},
{
name = top.case;
pos = (225,750);
}
);
layerId = m002;
shapes = (
{
closed = 1;
nodes = (
(150,600,l),
(75,600,l),
(75,525,l),
(0,525,l),
(0,0,l),
(150,0,l),
(150,150,l),
(375,150,l),
(375,0,l),
(525,0,l),
(525,525,l),
(450,525,l),
(450,600,l),
(375,600,l),
(375,675,l),
(300,675,l),
(300,750,l),
(225,750,l),
(225,675,l),
(150,675,l)
);
},
{
closed = 1;
nodes = (
(150,450,l),
(225,450,l),
(225,525,l),
(300,525,l),
(300,450,l),
(375,450,l),
(375,300,l),
(150,300,l)
);
},
{
closed = 1;
nodes = (
(225,900,l),
(225,825,l),
(375,825,l),
(375,900,l),
(300,900,l),
(300,975,l),
(225,975,l),
(225,1050,l),
(150,1050,l),
(150,900,l)
);
}
);
width = 600;
}
);
unicode = 192;
},
{
color = 6;
glyphname = Amacron;
lastChange = "2023-12-06 14:16:46 +0000";
layers = (
{
anchors = (
{
name = bottom;
pos = (450,0);
},
{
name = top.case;
pos = (225,750);
}
);
layerId = m01;
shapes = (
{
closed = 1;
nodes = (
(150,600,l),
(75,600,l),
(75,525,l),
(0,525,l),
(0,0,l),
(150,0,l),
(150,150,l),
(375,150,l),
(375,0,l),
(525,0,l),
(525,525,l),
(450,525,l),
(450,600,l),
(375,600,l),
(375,675,l),
(300,675,l),
(300,750,l),
(225,750,l),
(225,675,l),
(150,675,l)
);
},
{
closed = 1;
nodes = (
(450,825,l),
(450,975,l),
(75,975,l),
(75,825,l)
);
},
{
closed = 1;
nodes = (
(150,450,l),
(225,450,l),
(225,525,l),
(300,525,l),
(300,450,l),
(375,450,l),
(375,300,l),
(150,300,l)
);
}
);
width = 600;
},
{
anchors = (
{
name = bottom;
pos = (450,0);
},
{
name = top.case;
pos = (225,750);
}
);
layerId = m002;
shapes = (
{
closed = 1;
nodes = (
(150,600,l),
(75,600,l),
(75,525,l),
(0,525,l),
(0,0,l),
(150,0,l),
(150,150,l),
(375,150,l),
(375,0,l),
(525,0,l),
(525,525,l),
(450,525,l),
(450,600,l),
(375,600,l),
(375,675,l),
(300,675,l),
(300,750,l),
(225,750,l),
(225,675,l),
(150,675,l)
);
},
{
closed = 1;
nodes = (
(450,825,l),
(450,975,l),
(75,975,l),
(75,825,l)
);
},
{
closed = 1;
nodes = (
(150,450,l),
(225,450,l),
(225,525,l),
(300,525,l),
(300,450,l),
(375,450,l),
(375,300,l),
(150,300,l)
);
}
);
width = 600;
}
);
unicode = 256;
},
{
color = 6;
glyphname = Aogonek;
lastChange = "2023-12-06 14:16:46 +0000";
layers = (
{
anchors = (
{
name = bottom;
pos = (450,0);
},
{
name = top.case;
pos = (225,750);
}
);
layerId = m01;
shapes = (
{
closed = 1;
nodes = (
(150,600,l),
(75,600,l),
(75,525,l),
(0,525,l),
(0,0,l),
(150,0,l),
(150,150,l),
(375,150,l),
(375,0,l),
(450,0,l),
(450,-75,l),
(525,-75,l),
(525,525,l),
(450,525,l),
(450,600,l),
(375,600,l),
(375,675,l),
(300,675,l),
(300,750,l),
(225,750,l),
(225,675,l),
(150,675,l)
);
},
{
closed = 1;
nodes = (
(150,450,l),
(225,450,l),
(225,525,l),
(300,525,l),
(300,450,l),
(375,450,l),
(375,300,l),
(150,300,l)
);
},
{
closed = 1;
nodes = (
(525,-300,l),
(525,-150,l),
(450,-150,l),
(450,-75,l),
(375,-75,l),
(375,-300,l)
);
}
);
width = 600;
},
{
anchors = (
{
name = bottom;
pos = (450,0);
},
{
name = top.case;
pos = (225,750);
}
);
layerId = m002;
shapes = (
{
closed = 1;
nodes = (
(150,600,l),
(75,600,l),
(75,525,l),
(0,525,l),
(0,0,l),
(150,0,l),
(150,150,l),
(375,150,l),
(375,0,l),
(450,0,l),
(450,-75,l),
(525,-75,l),
(525,525,l),
(450,525,l),
(450,600,l),
(375,600,l),
(375,675,l),
(300,675,l),
(300,750,l),
(225,750,l),
(225,675,l),
(150,675,l)
);
},
{
closed = 1;
nodes = (
(150,450,l),
(225,450,l),
(225,525,l),
(300,525,l),
(300,450,l),
(375,450,l),
(375,300,l),
(150,300,l)
);
},
{
closed = 1;
nodes = (
(525,-300,l),
(525,-150,l),
(450,-150,l),
(450,-75,l),
(375,-75,l),
(375,-300,l)
);
}
);
width = 600;
}
);
unicode = 260;
},
{
color = 6;
glyphname = Aring;
lastChange = "2023-12-06 14:16:46 +0000";
layers = (
{
anchors = (
{
name = bottom;
pos = (450,0);
},
{
name = top.case;
pos = (225,750);
}
);
layerId = m01;
shapes = (
{
closed = 1;
nodes = (
(150,600,l),
(75,600,l),
(75,525,l),
(0,525,l),
(0,0,l),
(150,0,l),
(150,150,l),
(375,150,l),
(375,0,l),
(525,0,l),
(525,525,l),
(450,525,l),
(450,600,l),
(375,600,l),
(375,675,l),
(300,675,l),
(300,750,l),
(225,750,l),
(225,675,l),
(150,675,l)
);
},
{
closed = 1;
nodes = (
(150,450,l),
(225,450,l),
(225,525,l),
(300,525,l),
(300,450,l),
(375,450,l),
(375,300,l),
(150,300,l)
);
},
{
closed = 1;
nodes = (
(375,825,l),
(375,1050,l),
(150,1050,l),
(150,825,l)
);
},
{
closed = 1;
nodes = (
(225,975,l),
(300,975,l),
(300,900,l),
(225,900,l)
);
}
);
width = 600;
},
{
anchors = (
{
name = bottom;
pos = (450,0);
},
{
name = top.case;
pos = (225,750);
}
);
layerId = m002;
shapes = (
{
closed = 1;
nodes = (
(150,600,l),
(75,600,l),
(75,525,l),
(0,525,l),
(0,0,l),
(150,0,l),
(150,150,l),
(375,150,l),
(375,0,l),
(525,0,l),
(525,525,l),
(450,525,l),
(450,600,l),
(375,600,l),
(375,675,l),
(300,675,l),
(300,750,l),
(225,750,l),
(225,675,l),
(150,675,l)
);
},
{
closed = 1;
nodes = (
(150,450,l),
(225,450,l),
(225,525,l),
(300,525,l),
(300,450,l),
(375,450,l),
(375,300,l),
(150,300,l)
);
},
{
closed = 1;
nodes = (
(375,825,l),
(375,1050,l),
(150,1050,l),
(150,825,l)
);
},
{
closed = 1;
nodes = (
(225,975,l),
(300,975,l),
(300,900,l),
(225,900,l)
);
}
);
width = 600;
}
);
unicode = 197;
},
{
color = 6;
glyphname = Atilde;
lastChange = "2023-12-06 14:16:46 +0000";
layers = (
{
anchors = (
{
name = bottom;
pos = (450,0);
},
{
name = top.case;
pos = (225,750);
}
);
layerId = m01;
shapes = (
{
closed = 1;
nodes = (
(150,600,l),
(75,600,l),
(75,525,l),
(0,525,l),
(0,0,l),
(150,0,l),
(150,150,l),
(375,150,l),
(375,0,l),
(525,0,l),
(525,525,l),
(450,525,l),
(450,600,l),
(375,600,l),
(375,675,l),
(300,675,l),
(300,750,l),
(225,750,l),
(225,675,l),
(150,675,l)
);
},
{
closed = 1;
nodes = (
(150,900,l),
(150,975,l),
(225,975,l),
(225,900,l),
(300,900,l),
(300,825,l),
(375,825,l),
(375,900,l),
(450,900,l),
(450,1050,l),
(375,1050,l),
(375,975,l),
(300,975,l),
(300,1050,l),
(225,1050,l),
(225,1125,l),
(150,1125,l),
(150,1050,l),
(75,1050,l),
(75,900,l)
);
},
{
closed = 1;
nodes = (
(150,450,l),
(225,450,l),
(225,525,l),
(300,525,l),
(300,450,l),
(375,450,l),
(375,300,l),
(150,300,l)
);
}
);
width = 600;
},
{
anchors = (
{
name = bottom;
pos = (450,0);
},
{
name = top.case;
pos = (225,750);
}
);
layerId = m002;
shapes = (
{
closed = 1;
nodes = (
(150,600,l),
(75,600,l),
(75,525,l),
(0,525,l),
(0,0,l),
(150,0,l),
(150,150,l),
(375,150,l),
(375,0,l),
(525,0,l),
(525,525,l),
(450,525,l),
(450,600,l),
(375,600,l),
(375,675,l),
(300,675,l),
(300,750,l),
(225,750,l),
(225,675,l),
(150,675,l)
);
},
{
closed = 1;
nodes = (
(150,900,l),
(150,975,l),
(225,975,l),
(225,900,l),
(300,900,l),
(300,825,l),
(375,825,l),
(375,900,l),
(450,900,l),
(450,1050,l),
(375,1050,l),
(375,975,l),
(300,975,l),
(300,1050,l),
(225,1050,l),
(225,1125,l),
(150,1125,l),
(150,1050,l),
(75,1050,l),
(75,900,l)
);
},
{
closed = 1;
nodes = (
(150,450,l),
(225,450,l),
(225,525,l),
(300,525,l),
(300,450,l),
(375,450,l),
(375,300,l),
(150,300,l)
);
}
);
width = 600;
}
);
unicode = 195;
},
{
color = 6;
glyphname = AE;
lastChange = "2023-12-06 14:16:46 +0000";
layers = (
{
layerId = m01;
shapes = (
{
closed = 1;
nodes = (
(150,600,l),
(75,600,l),
(75,525,l),
(0,525,l),
(0,0,l),
(150,0,l),
(150,150,l),
(375,150,l),
(375,0,l),
(900,0,l),
(900,150,l),
(600,150,l),
(600,300,l),
(825,300,l),
(825,450,l),
(600,450,l),
(600,600,l),
(900,600,l),
(900,750,l),
(450,750,l),
(450,600,l),
(375,600,l),
(375,675,l),
(300,675,l),
(300,750,l),
(225,750,l),
(225,675,l),
(150,675,l)
);
},
{
closed = 1;
nodes = (
(150,450,l),
(225,450,l),
(225,525,l),
(300,525,l),
(300,450,l),
(375,450,l),
(375,300,l),
(150,300,l)
);
}
);
width = 975;
},
{
layerId = m002;
shapes = (
{
closed = 1;
nodes = (
(150,600,l),
(75,600,l),
(75,525,l),
(0,525,l),
(0,0,l),
(150,0,l),
(150,150,l),
(375,150,l),
(375,0,l),
(900,0,l),
(900,150,l),
(600,150,l),
(600,300,l),
(825,300,l),
(825,450,l),
(600,450,l),
(600,600,l),
(900,600,l),
(900,750,l),
(450,750,l),
(450,600,l),
(375,600,l),
(375,675,l),
(300,675,l),
(300,750,l),
(225,750,l),
(225,675,l),
(150,675,l)
);
},
{
closed = 1;
nodes = (
(150,450,l),
(225,450,l),
(225,525,l),
(300,525,l),
(300,450,l),
(375,450,l),
(375,300,l),
(150,300,l)
);
}
);
width = 975;
}
);
unicode = 198;
},
{
color = 6;
glyphname = B;
lastChange = "2023-12-06 14:16:46 +0000";
layers = (
{
layerId = m01;
shapes = (
{
closed = 1;
nodes = (
(0,0,l),
(450,0,l),
(450,75,l),
(525,75,l),
(525,375,l),
(450,375,l),
(450,450,l),
(525,450,l),
(525,675,l),
(450,675,l),
(450,750,l),
(0,750,l)
);
},
{
closed = 1;
nodes = (
(150,300,l),
(375,300,l),
(375,150,l),
(150,150,l)
);
},
{
closed = 1;
nodes = (
(150,600,l),
(375,600,l),
(375,450,l),
(150,450,l)
);
}
);
width = 600;
},
{
layerId = m002;
shapes = (
{
closed = 1;
nodes = (
(0,0,l),
(450,0,l),
(450,75,l),
(525,75,l),
(525,375,l),
(450,375,l),
(450,450,l),
(525,450,l),
(525,675,l),
(450,675,l),
(450,750,l),
(0,750,l)
);
},
{
closed = 1;
nodes = (
(150,300,l),
(375,300,l),
(375,150,l),
(150,150,l)
);
},
{
closed = 1;
nodes = (
(150,600,l),
(375,600,l),
(375,450,l),
(150,450,l)
);
}
);
width = 600;
}
);
unicode = 66;
},
{
color = 6;
glyphname = C;
lastChange = "2023-12-06 14:16:46 +0000";
layers = (
{
anchors = (
{
name = bottom;
pos = (300,0);
},
{
name = top.case;
pos = (225,750);
}
);
layerId = m01;
shapes = (
{
closed = 1;
nodes = (
(75,750,l),
(75,675,l),
(0,675,l),
(0,75,l),
(75,75,l),
(75,0,l),
(450,0,l),
(450,75,l),
(525,75,l),
(525,225,l),
(375,225,l),
(375,150,l),
(225,150,l),
(225,225,l),
(150,225,l),
(150,525,l),
(225,525,l),
(225,600,l),
(375,600,l),
(375,525,l),
(525,525,l),
(525,675,l),
(450,675,l),
(450,750,l)
);
}
);
width = 600;
},
{
anchors = (
{
name = bottom;
pos = (300,0);
},
{
name = top.case;
pos = (225,750);
}
);
layerId = m002;
shapes = (
{
closed = 1;
nodes = (
(75,750,l),
(75,675,l),
(0,675,l),
(0,75,l),
(75,75,l),
(75,0,l),
(450,0,l),
(450,75,l),
(525,75,l),
(525,225,l),
(375,225,l),
(375,150,l),
(225,150,l),
(225,225,l),
(150,225,l),
(150,525,l),
(225,525,l),
(225,600,l),
(375,600,l),
(375,525,l),
(525,525,l),
(525,675,l),
(450,675,l),
(450,750,l)
);
}
);
width = 600;
}
);
unicode = 67;
},
{
color = 6;
glyphname = Cacute;
lastChange = "2023-12-06 14:16:46 +0000";
layers = (
{
anchors = (
{
name = bottom;
pos = (300,0);
},
{
name = top.case;
pos = (225,750);
}
);
layerId = m01;
shapes = (
{
closed = 1;
nodes = (
(75,750,l),
(75,675,l),
(0,675,l),
(0,75,l),
(75,75,l),
(75,0,l),
(450,0,l),
(450,75,l),
(525,75,l),
(525,225,l),
(375,225,l),
(375,150,l),
(225,150,l),
(225,225,l),
(150,225,l),
(150,525,l),
(225,525,l),
(225,600,l),
(375,600,l),
(375,525,l),
(525,525,l),
(525,675,l),
(450,675,l),
(450,750,l)
);
},
{
closed = 1;
nodes = (
(300,825,l),
(300,900,l),
(375,900,l),
(375,1050,l),
(300,1050,l),
(300,975,l),
(225,975,l),
(225,825,l)
);
}
);
width = 600;
},
{
anchors = (
{
name = bottom;
pos = (300,0);
},
{
name = top.case;
pos = (225,750);
}
);
layerId = m002;
shapes = (
{
closed = 1;
nodes = (
(75,750,l),
(75,675,l),
(0,675,l),
(0,75,l),
(75,75,l),
(75,0,l),
(450,0,l),
(450,75,l),
(525,75,l),
(525,225,l),
(375,225,l),
(375,150,l),
(225,150,l),
(225,225,l),
(150,225,l),
(150,525,l),
(225,525,l),
(225,600,l),
(375,600,l),
(375,525,l),
(525,525,l),
(525,675,l),
(450,675,l),
(450,750,l)
);
},
{
closed = 1;
nodes = (
(300,825,l),
(300,900,l),
(375,900,l),
(375,1050,l),
(300,1050,l),
(300,975,l),
(225,975,l),
(225,825,l)
);
}
);
width = 600;
}
);
unicode = 262;
},
{
color = 6;
glyphname = Ccaron;
lastChange = "2023-12-06 14:16:46 +0000";
layers = (
{
anchors = (
{
name = bottom;
pos = (300,0);
},
{
name = top.case;
pos = (225,750);
}
);
layerId = m01;
shapes = (
{
closed = 1;
nodes = (
(75,750,l),
(75,675,l),
(0,675,l),
(0,75,l),
(75,75,l),
(75,0,l),
(450,0,l),
(450,75,l),
(525,75,l),
(525,225,l),
(375,225,l),
(375,150,l),
(225,150,l),
(225,225,l),
(150,225,l),
(150,525,l),
(225,525,l),
(225,600,l),
(375,600,l),
(375,525,l),
(525,525,l),
(525,675,l),
(450,675,l),
(450,750,l)
);
},
{
closed = 1;
nodes = (
(150,975,l),
(150,900,l),
(225,900,l),
(225,825,l),
(300,825,l),
(300,900,l),
(375,900,l),
(375,975,l),
(450,975,l),
(450,1050,l),
(300,1050,l),
(300,975,l),
(225,975,l),
(225,1050,l),
(75,1050,l),
(75,975,l)
);
}
);
width = 600;
},
{
anchors = (
{
name = bottom;
pos = (300,0);
},
{
name = top.case;
pos = (225,750);
}
);
layerId = m002;
shapes = (
{
closed = 1;
nodes = (
(75,750,l),
(75,675,l),
(0,675,l),
(0,75,l),
(75,75,l),
(75,0,l),
(450,0,l),
(450,75,l),
(525,75,l),
(525,225,l),
(375,225,l),
(375,150,l),
(225,150,l),
(225,225,l),
(150,225,l),
(150,525,l),
(225,525,l),
(225,600,l),
(375,600,l),
(375,525,l),
(525,525,l),
(525,675,l),
(450,675,l),
(450,750,l)
);
},
{
closed = 1;
nodes = (
(150,975,l),
(150,900,l),
(225,900,l),
(225,825,l),
(300,825,l),
(300,900,l),
(375,900,l),
(375,975,l),
(450,975,l),
(450,1050,l),
(300,1050,l),
(300,975,l),
(225,975,l),
(225,1050,l),
(75,1050,l),
(75,975,l)
);
}
);
width = 600;
}
);
unicode = 268;
},
{
color = 6;
glyphname = Ccedilla;
lastChange = "2023-12-06 14:16:46 +0000";
layers = (
{
anchors = (
{
name = bottom;
pos = (300,0);
},
{
name = top.case;
pos = (225,750);
}
);
layerId = m01;
shapes = (
{
closed = 1;
nodes = (
(75,750,l),
(75,675,l),
(0,675,l),
(0,75,l),
(75,75,l),
(75,0,l),
(225,0,l),
(225,-75,l),
(300,-75,l),
(300,0,l),
(450,0,l),
(450,75,l),
(525,75,l),
(525,225,l),
(375,225,l),
(375,150,l),
(225,150,l),
(225,225,l),
(150,225,l),
(150,525,l),
(225,525,l),
(225,600,l),
(375,600,l),
(375,525,l),
(525,525,l),
(525,675,l),
(450,675,l),
(450,750,l)
);
},
{
closed = 1;
nodes = (
(375,-300,l),
(375,-75,l),
(300,-75,l),
(300,-150,l),
(225,-150,l),
(225,-300,l)
);
}
);
width = 600;
},
{
anchors = (
{
name = bottom;
pos = (300,0);
},
{
name = top.case;
pos = (225,750);
}
);
layerId = m002;
shapes = (
{
closed = 1;
nodes = (
(75,750,l),
(75,675,l),
(0,675,l),
(0,75,l),
(75,75,l),
(75,0,l),
(225,0,l),
(225,-75,l),
(300,-75,l),
(300,0,l),
(450,0,l),
(450,75,l),
(525,75,l),
(525,225,l),
(375,225,l),
(375,150,l),
(225,150,l),
(225,225,l),
(150,225,l),
(150,525,l),
(225,525,l),
(225,600,l),
(375,600,l),
(375,525,l),
(525,525,l),
(525,675,l),
(450,675,l),
(450,750,l)
);
},
{
closed = 1;
nodes = (
(375,-300,l),
(375,-75,l),
(300,-75,l),
(300,-150,l),
(225,-150,l),
(225,-300,l)
);
}
);
width = 600;
}
);
unicode = 199;
},
{
color = 6;
glyphname = Cdotaccent;
lastChange = "2023-12-06 14:16:46 +0000";
layers = (
{
anchors = (
{
name = bottom;
pos = (300,0);
},
{
name = top.case;
pos = (225,750);
}
);
layerId = m01;
shapes = (
{
closed = 1;
nodes = (
(75,750,l),
(75,675,l),
(0,675,l),
(0,75,l),
(75,75,l),
(75,0,l),
(450,0,l),
(450,75,l),
(525,75,l),
(525,225,l),
(375,225,l),
(375,150,l),
(225,150,l),
(225,225,l),
(150,225,l),
(150,525,l),
(225,525,l),
(225,600,l),
(375,600,l),
(375,525,l),
(525,525,l),
(525,675,l),
(450,675,l),
(450,750,l)
);
},
{
closed = 1;
nodes = (
(300,825,l),
(300,975,l),
(150,975,l),
(150,825,l)
);
}
);
width = 600;
},
{
anchors = (
{
name = bottom;
pos = (300,0);
},
{
name = top.case;
pos = (225,750);
}
);
layerId = m002;
shapes = (
{
closed = 1;
nodes = (
(75,750,l),
(75,675,l),
(0,675,l),
(0,75,l),
(75,75,l),
(75,0,l),
(450,0,l),
(450,75,l),
(525,75,l),
(525,225,l),
(375,225,l),
(375,150,l),
(225,150,l),
(225,225,l),
(150,225,l),
(150,525,l),
(225,525,l),
(225,600,l),
(375,600,l),
(375,525,l),
(525,525,l),
(525,675,l),
(450,675,l),
(450,750,l)
);
},
{
closed = 1;
nodes = (
(300,825,l),
(300,975,l),
(150,975,l),
(150,825,l)
);
}
);
width = 600;
}
);
unicode = 266;
},
{
color = 6;
glyphname = D;
lastChange = "2023-12-06 14:16:46 +0000";
layers = (
{
anchors = (
{
name = top.case;
pos = (225,750);
}
);
layerId = m01;
shapes = (
{
closed = 1;
nodes = (
(0,750,l),
(0,0,l),
(450,0,l),
(450,75,l),
(525,75,l),
(525,675,l),
(450,675,l),
(450,750,l)
);
},
{
closed = 1;
nodes = (
(150,600,l),
(300,600,l),
(300,525,l),
(375,525,l),
(375,225,l),
(300,225,l),
(300,150,l),
(150,150,l)
);
}
);
width = 600;
},
{
anchors = (
{
name = top.case;
pos = (225,750);
}
);
layerId = m002;
shapes = (
{
closed = 1;
nodes = (
(0,750,l),
(0,0,l),
(450,0,l),
(450,75,l),
(525,75,l),
(525,675,l),
(450,675,l),
(450,750,l)
);
},
{
closed = 1;
nodes = (
(150,600,l),
(300,600,l),
(300,525,l),
(375,525,l),
(375,225,l),
(300,225,l),
(300,150,l),
(150,150,l)
);
}
);
width = 600;
}
);
unicode = 68;
},
{
color = 6;
glyphname = Eth;
lastChange = "2023-12-06 14:16:46 +0000";
layers = (
{
anchors = (
{
name = top;
pos = (300,750);
}
);
layerId = m01;
shapes = (
{
closed = 1;
nodes = (
(75,750,l),
(75,450,l),
(0,450,l),
(0,300,l),
(75,300,l),
(75,0,l),
(525,0,l),
(525,75,l),
(600,75,l),
(600,675,l),
(525,675,l),
(525,750,l)
);
},
{
closed = 1;
nodes = (
(225,300,l),
(375,300,l),
(375,450,l),
(225,450,l),
(225,600,l),
(375,600,l),
(375,525,l),
(450,525,l),
(450,225,l),
(375,225,l),
(375,150,l),
(225,150,l)
);
}
);
width = 675;
},
{
anchors = (
{
name = top;
pos = (300,750);
}
);
layerId = m002;
shapes = (
{
closed = 1;
nodes = (
(75,750,l),
(75,450,l),
(0,450,l),
(0,300,l),
(75,300,l),
(75,0,l),
(525,0,l),
(525,75,l),
(600,75,l),
(600,675,l),
(525,675,l),
(525,750,l)
);
},
{
closed = 1;
nodes = (
(225,300,l),
(375,300,l),
(375,450,l),
(225,450,l),
(225,600,l),
(375,600,l),
(375,525,l),
(450,525,l),
(450,225,l),
(375,225,l),
(375,150,l),
(225,150,l)
);
}
);
width = 675;
}
);
unicode = 208;
},
{
color = 6;
glyphname = Dcaron;
lastChange = "2023-12-06 14:16:46 +0000";
layers = (
{
anchors = (
{
name = top.case;
pos = (225,750);
}
);
layerId = m01;
shapes = (
{
closed = 1;
nodes = (
(0,750,l),
(0,0,l),
(450,0,l),
(450,75,l),
(525,75,l),
(525,675,l),
(450,675,l),
(450,750,l)
);
},
{
closed = 1;
nodes = (
(150,975,l),
(150,900,l),
(225,900,l),
(225,825,l),
(300,825,l),
(300,900,l),
(375,900,l),
(375,975,l),
(450,975,l),
(450,1050,l),
(300,1050,l),
(300,975,l),
(225,975,l),
(225,1050,l),
(75,1050,l),
(75,975,l)
);
},
{
closed = 1;
nodes = (
(150,600,l),
(300,600,l),
(300,525,l),
(375,525,l),
(375,225,l),
(300,225,l),
(300,150,l),
(150,150,l)
);
}
);
width = 600;
},
{
anchors = (
{
name = top.case;
pos = (225,750);
}
);
layerId = m002;
shapes = (
{
closed = 1;
nodes = (
(0,750,l),
(0,0,l),
(450,0,l),
(450,75,l),
(525,75,l),
(525,675,l),
(450,675,l),
(450,750,l)
);
},
{
closed = 1;
nodes = (
(150,975,l),
(150,900,l),
(225,900,l),
(225,825,l),
(300,825,l),
(300,900,l),
(375,900,l),
(375,975,l),
(450,975,l),
(450,1050,l),
(300,1050,l),
(300,975,l),
(225,975,l),
(225,1050,l),
(75,1050,l),
(75,975,l)
);
},
{
closed = 1;
nodes = (
(150,600,l),
(300,600,l),
(300,525,l),
(375,525,l),
(375,225,l),
(300,225,l),
(300,150,l),
(150,150,l)
);
}
);
width = 600;
}
);
unicode = 270;
},
{
color = 6;
glyphname = Dcroat;
lastChange = "2023-12-06 14:16:46 +0000";
layers = (
{
anchors = (
{
name = top;
pos = (300,750);
}
);
layerId = m01;
shapes = (
{
closed = 1;
nodes = (
(75,750,l),
(75,450,l),
(0,450,l),
(0,300,l),
(75,300,l),
(75,0,l),
(525,0,l),
(525,75,l),
(600,75,l),
(600,675,l),
(525,675,l),
(525,750,l)
);
},
{
closed = 1;
nodes = (
(225,300,l),
(375,300,l),
(375,450,l),
(225,450,l),
(225,600,l),
(375,600,l),
(375,525,l),
(450,525,l),
(450,225,l),
(375,225,l),
(375,150,l),
(225,150,l)
);
}
);
width = 675;
},
{
anchors = (
{
name = top;
pos = (300,750);
}
);
layerId = m002;
shapes = (
{
closed = 1;
nodes = (
(75,750,l),
(75,450,l),
(0,450,l),
(0,300,l),
(75,300,l),
(75,0,l),
(525,0,l),
(525,75,l),
(600,75,l),
(600,675,l),
(525,675,l),
(525,750,l)
);
},
{
closed = 1;
nodes = (
(225,300,l),
(375,300,l),
(375,450,l),
(225,450,l),
(225,600,l),
(375,600,l),
(375,525,l),
(450,525,l),
(450,225,l),
(375,225,l),
(375,150,l),
(225,150,l)
);
}
);
width = 675;
}
);
unicode = 272;
},
{
color = 6;
glyphname = E;
lastChange = "2023-12-06 14:16:46 +0000";
layers = (
{
anchors = (
{
name = bottom;
pos = (375,0);
},
{
name = top.case;
pos = (225,750);
}
);
layerId = m01;
shapes = (
{
closed = 1;
nodes = (
(0,0,l),
(450,0,l),
(450,150,l),
(150,150,l),
(150,300,l),
(375,300,l),
(375,450,l),
(150,450,l),
(150,600,l),
(450,600,l),
(450,750,l),
(0,750,l)
);
}
);
width = 525;
},
{
anchors = (
{
name = bottom;
pos = (375,0);
},
{
name = top.case;
pos = (225,750);
}
);
layerId = m002;
shapes = (
{
closed = 1;
nodes = (
(0,0,l),
(450,0,l),
(450,150,l),
(150,150,l),
(150,300,l),
(375,300,l),
(375,450,l),
(150,450,l),
(150,600,l),
(450,600,l),
(450,750,l),
(0,750,l)
);
}
);
width = 525;
}
);
unicode = 69;
},
{
color = 6;
glyphname = Eacute;
lastChange = "2023-12-06 14:16:46 +0000";
layers = (
{
anchors = (
{
name = bottom;
pos = (375,0);
},
{
name = top.case;
pos = (225,750);
}
);
layerId = m01;
shapes = (
{
closed = 1;
nodes = (
(0,0,l),
(450,0,l),
(450,150,l),
(150,150,l),
(150,300,l),
(375,300,l),
(375,450,l),
(150,450,l),
(150,600,l),
(450,600,l),
(450,750,l),
(0,750,l)
);
},
{
closed = 1;
nodes = (
(300,825,l),
(300,900,l),
(375,900,l),
(375,1050,l),
(300,1050,l),
(300,975,l),
(225,975,l),
(225,825,l)
);
}
);
width = 525;
},
{
anchors = (
{
name = bottom;
pos = (375,0);
},
{
name = top.case;
pos = (225,750);
}
);
layerId = m002;
shapes = (
{
closed = 1;
nodes = (
(0,0,l),
(450,0,l),
(450,150,l),
(150,150,l),
(150,300,l),
(375,300,l),
(375,450,l),
(150,450,l),
(150,600,l),
(450,600,l),
(450,750,l),
(0,750,l)
);
},
{
closed = 1;
nodes = (
(300,825,l),
(300,900,l),
(375,900,l),
(375,1050,l),
(300,1050,l),
(300,975,l),
(225,975,l),
(225,825,l)
);
}
);
width = 525;
}
);
unicode = 201;
},
{
color = 6;
glyphname = Ecaron;
lastChange = "2023-12-06 14:16:46 +0000";
layers = (
{
anchors = (
{
name = bottom;
pos = (375,0);
},
{
name = top.case;
pos = (225,750);
}
);
layerId = m01;
shapes = (
{
closed = 1;
nodes = (
(0,0,l),
(450,0,l),
(450,150,l),
(150,150,l),
(150,300,l),
(375,300,l),
(375,450,l),
(150,450,l),
(150,600,l),
(450,600,l),
(450,750,l),
(0,750,l)
);
},
{
closed = 1;
nodes = (
(150,975,l),
(150,900,l),
(225,900,l),
(225,825,l),
(300,825,l),
(300,900,l),
(375,900,l),
(375,975,l),
(450,975,l),
(450,1050,l),
(300,1050,l),
(300,975,l),
(225,975,l),
(225,1050,l),
(75,1050,l),
(75,975,l)
);
}
);
width = 525;
},
{
anchors = (
{
name = bottom;
pos = (375,0);
},
{
name = top.case;
pos = (225,750);
}
);
layerId = m002;
shapes = (
{
closed = 1;
nodes = (
(0,0,l),
(450,0,l),
(450,150,l),
(150,150,l),
(150,300,l),
(375,300,l),
(375,450,l),
(150,450,l),
(150,600,l),
(450,600,l),
(450,750,l),
(0,750,l)
);
},
{
closed = 1;
nodes = (
(150,975,l),
(150,900,l),
(225,900,l),
(225,825,l),
(300,825,l),
(300,900,l),
(375,900,l),
(375,975,l),
(450,975,l),
(450,1050,l),
(300,1050,l),
(300,975,l),
(225,975,l),
(225,1050,l),
(75,1050,l),
(75,975,l)
);
}
);
width = 525;
}
);
unicode = 282;
},
{
color = 6;
glyphname = Ecircumflex;
lastChange = "2023-12-06 14:16:46 +0000";
layers = (
{
anchors = (
{
name = bottom;
pos = (375,0);
},
{
name = top.case;
pos = (225,750);
}
);
layerId = m01;
shapes = (
{
closed = 1;
nodes = (
(0,0,l),
(450,0,l),
(450,150,l),
(150,150,l),
(150,300,l),
(375,300,l),
(375,450,l),
(150,450,l),
(150,600,l),
(450,600,l),
(450,750,l),
(0,750,l)
);
},
{
closed = 1;
nodes = (
(225,825,l),
(225,900,l),
(300,900,l),
(300,825,l),
(450,825,l),
(450,900,l),
(375,900,l),
(375,975,l),
(300,975,l),
(300,1050,l),
(225,1050,l),
(225,975,l),
(150,975,l),
(150,900,l),
(75,900,l),
(75,825,l)
);
}
);
width = 525;
},
{
anchors = (
{
name = bottom;
pos = (375,0);
},
{
name = top.case;
pos = (225,750);
}
);
layerId = m002;
shapes = (
{
closed = 1;
nodes = (
(0,0,l),
(450,0,l),
(450,150,l),
(150,150,l),
(150,300,l),
(375,300,l),
(375,450,l),
(150,450,l),
(150,600,l),
(450,600,l),
(450,750,l),
(0,750,l)
);
},
{
closed = 1;
nodes = (
(225,825,l),
(225,900,l),
(300,900,l),
(300,825,l),
(450,825,l),
(450,900,l),
(375,900,l),
(375,975,l),
(300,975,l),
(300,1050,l),
(225,1050,l),
(225,975,l),
(150,975,l),
(150,900,l),
(75,900,l),
(75,825,l)
);
}
);
width = 525;
}
);
unicode = 202;
},
{
color = 6;
glyphname = Edieresis;
lastChange = "2023-12-06 14:16:46 +0000";
layers = (
{
anchors = (
{
name = bottom;
pos = (375,0);
},
{
name = top.case;
pos = (225,750);
}
);
layerId = m01;
shapes = (
{
closed = 1;
nodes = (
(0,0,l),
(450,0,l),
(450,150,l),
(150,150,l),
(150,300,l),
(375,300,l),
(375,450,l),
(150,450,l),
(150,600,l),
(450,600,l),
(450,750,l),
(0,750,l)
);
},
{
closed = 1;
nodes = (
(225,825,l),
(225,975,l),
(75,975,l),
(75,825,l)
);
},
{
closed = 1;
nodes = (
(450,825,l),
(450,975,l),
(300,975,l),
(300,825,l)
);
}
);
width = 525;
},
{
anchors = (
{
name = bottom;
pos = (375,0);
},
{
name = top.case;
pos = (225,750);
}
);
layerId = m002;
shapes = (
{
closed = 1;
nodes = (
(0,0,l),
(450,0,l),
(450,150,l),
(150,150,l),
(150,300,l),
(375,300,l),
(375,450,l),
(150,450,l),
(150,600,l),
(450,600,l),
(450,750,l),
(0,750,l)
);
},
{
closed = 1;
nodes = (
(225,825,l),
(225,975,l),
(75,975,l),
(75,825,l)
);
},
{
closed = 1;
nodes = (
(450,825,l),
(450,975,l),
(300,975,l),
(300,825,l)
);
}
);
width = 525;
}
);
unicode = 203;
},
{
color = 6;
glyphname = Edotaccent;
lastChange = "2023-12-06 14:16:46 +0000";
layers = (
{
anchors = (
{
name = bottom;
pos = (375,0);
},
{
name = top.case;
pos = (225,750);
}
);
layerId = m01;
shapes = (
{
closed = 1;
nodes = (
(0,0,l),
(450,0,l),
(450,150,l),
(150,150,l),
(150,300,l),
(375,300,l),
(375,450,l),
(150,450,l),
(150,600,l),
(450,600,l),
(450,750,l),
(0,750,l)
);
},
{
closed = 1;
nodes = (
(300,825,l),
(300,975,l),
(150,975,l),
(150,825,l)
);
}
);
width = 525;
},
{
anchors = (
{
name = bottom;
pos = (375,0);
},
{
name = top.case;
pos = (225,750);
}
);
layerId = m002;
shapes = (
{
closed = 1;
nodes = (
(0,0,l),
(450,0,l),
(450,150,l),
(150,150,l),
(150,300,l),
(375,300,l),
(375,450,l),
(150,450,l),
(150,600,l),
(450,600,l),
(450,750,l),
(0,750,l)
);
},
{
closed = 1;
nodes = (
(300,825,l),
(300,975,l),
(150,975,l),
(150,825,l)
);
}
);
width = 525;
}
);
unicode = 278;
},
{
color = 6;
glyphname = Egrave;
lastChange = "2023-12-06 14:16:46 +0000";
layers = (
{
anchors = (
{
name = bottom;
pos = (375,0);
},
{
name = top.case;
pos = (225,750);
}
);
layerId = m01;
shapes = (
{
closed = 1;
nodes = (
(0,0,l),
(450,0,l),
(450,150,l),
(150,150,l),
(150,300,l),
(375,300,l),
(375,450,l),
(150,450,l),
(150,600,l),
(450,600,l),
(450,750,l),
(0,750,l)
);
},
{
closed = 1;
nodes = (
(225,900,l),
(225,825,l),
(375,825,l),
(375,900,l),
(300,900,l),
(300,975,l),
(225,975,l),
(225,1050,l),
(150,1050,l),
(150,900,l)
);
}
);
width = 525;
},
{
anchors = (
{
name = bottom;
pos = (375,0);
},
{
name = top.case;
pos = (225,750);
}
);
layerId = m002;
shapes = (
{
closed = 1;
nodes = (
(0,0,l),
(450,0,l),
(450,150,l),
(150,150,l),
(150,300,l),
(375,300,l),
(375,450,l),
(150,450,l),
(150,600,l),
(450,600,l),
(450,750,l),
(0,750,l)
);
},
{
closed = 1;
nodes = (
(225,900,l),
(225,825,l),
(375,825,l),
(375,900,l),
(300,900,l),
(300,975,l),
(225,975,l),
(225,1050,l),
(150,1050,l),
(150,900,l)
);
}
);
width = 525;
}
);
unicode = 200;
},
{
color = 6;
glyphname = Emacron;
lastChange = "2023-12-06 14:16:46 +0000";
layers = (
{
anchors = (
{
name = bottom;
pos = (375,0);
},
{
name = top.case;
pos = (225,750);
}
);
layerId = m01;
shapes = (
{
closed = 1;
nodes = (
(0,0,l),
(450,0,l),
(450,150,l),
(150,150,l),
(150,300,l),
(375,300,l),
(375,450,l),
(150,450,l),
(150,600,l),
(450,600,l),
(450,750,l),
(0,750,l)
);
},
{
closed = 1;
nodes = (
(450,825,l),
(450,975,l),
(75,975,l),
(75,825,l)
);
}
);
width = 525;
},
{
anchors = (
{
name = bottom;
pos = (375,0);
},
{
name = top.case;
pos = (225,750);
}
);
layerId = m002;
shapes = (
{
closed = 1;
nodes = (
(0,0,l),
(450,0,l),
(450,150,l),
(150,150,l),
(150,300,l),
(375,300,l),
(375,450,l),
(150,450,l),
(150,600,l),
(450,600,l),
(450,750,l),
(0,750,l)
);
},
{
closed = 1;
nodes = (
(450,825,l),
(450,975,l),
(75,975,l),
(75,825,l)
);
}
);
width = 525;
}
);
unicode = 274;
},
{
color = 6;
glyphname = Eogonek;
lastChange = "2023-12-06 14:16:46 +0000";
layers = (
{
anchors = (
{
name = bottom;
pos = (375,0);
},
{
name = top.case;
pos = (225,750);
}
);
layerId = m01;
shapes = (
{
closed = 1;
nodes = (
(0,0,l),
(375,0,l),
(375,-75,l),
(450,-75,l),
(450,150,l),
(150,150,l),
(150,300,l),
(375,300,l),
(375,450,l),
(150,450,l),
(150,600,l),
(450,600,l),
(450,750,l),
(0,750,l)
);
},
{
closed = 1;
nodes = (
(450,-300,l),
(450,-150,l),
(375,-150,l),
(375,-75,l),
(300,-75,l),
(300,-300,l)
);
}
);
width = 525;
},
{
anchors = (
{
name = bottom;
pos = (375,0);
},
{
name = top.case;
pos = (225,750);
}
);
layerId = m002;
shapes = (
{
closed = 1;
nodes = (
(0,0,l),
(375,0,l),
(375,-75,l),
(450,-75,l),
(450,150,l),
(150,150,l),
(150,300,l),
(375,300,l),
(375,450,l),
(150,450,l),
(150,600,l),
(450,600,l),
(450,750,l),
(0,750,l)
);
},
{
closed = 1;
nodes = (
(450,-300,l),
(450,-150,l),
(375,-150,l),
(375,-75,l),
(300,-75,l),
(300,-300,l)
);
}
);
width = 525;
}
);
unicode = 280;
},
{
color = 6;
glyphname = F;
lastChange = "2023-12-06 14:16:46 +0000";
layers = (
{
layerId = m01;
shapes = (
{
closed = 1;
nodes = (
(0,0,l),
(150,0,l),
(150,300,l),
(375,300,l),
(375,450,l),
(150,450,l),
(150,600,l),
(450,600,l),
(450,750,l),
(0,750,l)
);
}
);
width = 525;
},
{
layerId = m002;
shapes = (
{
closed = 1;
nodes = (
(0,0,l),
(150,0,l),
(150,300,l),
(375,300,l),
(375,450,l),
(150,450,l),
(150,600,l),
(450,600,l),
(450,750,l),
(0,750,l)
);
}
);
width = 525;
}
);
unicode = 70;
},
{
color = 6;
glyphname = G;
lastChange = "2023-12-06 14:16:46 +0000";
layers = (
{
anchors = (
{
name = bottom;
pos = (300,0);
},
{
name = top.case;
pos = (225,750);
}
);
layerId = m01;
shapes = (
{
closed = 1;
nodes = (
(75,750,l),
(75,675,l),
(0,675,l),
(0,75,l),
(75,75,l),
(75,0,l),
(450,0,l),
(450,75,l),
(525,75,l),
(525,450,l),
(225,450,l),
(225,300,l),
(375,300,l),
(375,150,l),
(225,150,l),
(225,225,l),
(150,225,l),
(150,525,l),
(225,525,l),
(225,600,l),
(375,600,l),
(375,525,l),
(525,525,l),
(525,675,l),
(450,675,l),
(450,750,l)
);
}
);
width = 600;
},
{
anchors = (
{
name = bottom;
pos = (300,0);
},
{
name = top.case;
pos = (225,750);
}
);
layerId = m002;
shapes = (
{
closed = 1;
nodes = (
(75,750,l),
(75,675,l),
(0,675,l),
(0,75,l),
(75,75,l),
(75,0,l),
(450,0,l),
(450,75,l),
(525,75,l),
(525,450,l),
(225,450,l),
(225,300,l),
(375,300,l),
(375,150,l),
(225,150,l),
(225,225,l),
(150,225,l),
(150,525,l),
(225,525,l),
(225,600,l),
(375,600,l),
(375,525,l),
(525,525,l),
(525,675,l),
(450,675,l),
(450,750,l)
);
}
);
width = 600;
}
);
unicode = 71;
},
{
color = 6;
glyphname = Gbreve;
lastChange = "2023-12-06 14:16:46 +0000";
layers = (
{
anchors = (
{
name = bottom;
pos = (300,0);
},
{
name = top.case;
pos = (225,750);
}
);
layerId = m01;
shapes = (
{
closed = 1;
nodes = (
(75,750,l),
(75,675,l),
(0,675,l),
(0,75,l),
(75,75,l),
(75,0,l),
(450,0,l),
(450,75,l),
(525,75,l),
(525,450,l),
(225,450,l),
(225,300,l),
(375,300,l),
(375,150,l),
(225,150,l),
(225,225,l),
(150,225,l),
(150,525,l),
(225,525,l),
(225,600,l),
(375,600,l),
(375,525,l),
(525,525,l),
(525,675,l),
(450,675,l),
(450,750,l)
);
},
{
closed = 1;
nodes = (
(150,900,l),
(150,825,l),
(375,825,l),
(375,900,l),
(450,900,l),
(450,1050,l),
(375,1050,l),
(375,975,l),
(150,975,l),
(150,1050,l),
(75,1050,l),
(75,900,l)
);
}
);
width = 600;
},
{
anchors = (
{
name = bottom;
pos = (300,0);
},
{
name = top.case;
pos = (225,750);
}
);
layerId = m002;
shapes = (
{
closed = 1;
nodes = (
(75,750,l),
(75,675,l),
(0,675,l),
(0,75,l),
(75,75,l),
(75,0,l),
(450,0,l),
(450,75,l),
(525,75,l),
(525,450,l),
(225,450,l),
(225,300,l),
(375,300,l),
(375,150,l),
(225,150,l),
(225,225,l),
(150,225,l),
(150,525,l),
(225,525,l),
(225,600,l),
(375,600,l),
(375,525,l),
(525,525,l),
(525,675,l),
(450,675,l),
(450,750,l)
);
},
{
closed = 1;
nodes = (
(150,900,l),
(150,825,l),
(375,825,l),
(375,900,l),
(450,900,l),
(450,1050,l),
(375,1050,l),
(375,975,l),
(150,975,l),
(150,1050,l),
(75,1050,l),
(75,900,l)
);
}
);
width = 600;
}
);
unicode = 286;
},
{
color = 6;
glyphname = Gcommaaccent;
lastChange = "2023-12-06 14:16:46 +0000";
layers = (
{
anchors = (
{
name = bottom;
pos = (300,0);
},
{
name = top.case;
pos = (225,750);
}
);
layerId = m01;
shapes = (
{
closed = 1;
nodes = (
(75,750,l),
(75,675,l),
(0,675,l),
(0,75,l),
(75,75,l),
(75,0,l),
(450,0,l),
(450,75,l),
(525,75,l),
(525,450,l),
(225,450,l),
(225,300,l),
(375,300,l),
(375,150,l),
(225,150,l),
(225,225,l),
(150,225,l),
(150,525,l),
(225,525,l),
(225,600,l),
(375,600,l),
(375,525,l),
(525,525,l),
(525,675,l),
(450,675,l),
(450,750,l)
);
},
{
closed = 1;
nodes = (
(300,-375,l),
(300,-300,l),
(225,-300,l),
(225,-375,l)
);
},
{
closed = 1;
nodes = (
(300,-225,l),
(300,-300,l),
(375,-300,l),
(375,-75,l),
(225,-75,l),
(225,-225,l)
);
}
);
width = 600;
},
{
anchors = (
{
name = bottom;
pos = (300,0);
},
{
name = top.case;
pos = (225,750);
}
);
layerId = m002;
shapes = (
{
closed = 1;
nodes = (
(75,750,l),
(75,675,l),
(0,675,l),
(0,75,l),
(75,75,l),
(75,0,l),
(450,0,l),
(450,75,l),
(525,75,l),
(525,450,l),
(225,450,l),
(225,300,l),
(375,300,l),
(375,150,l),
(225,150,l),
(225,225,l),
(150,225,l),
(150,525,l),
(225,525,l),
(225,600,l),
(375,600,l),
(375,525,l),
(525,525,l),
(525,675,l),
(450,675,l),
(450,750,l)
);
},
{
closed = 1;
nodes = (
(300,-375,l),
(300,-300,l),
(225,-300,l),
(225,-375,l)
);
},
{
closed = 1;
nodes = (
(300,-225,l),
(300,-300,l),
(375,-300,l),
(375,-75,l),
(225,-75,l),
(225,-225,l)
);
}
);
width = 600;
}
);
unicode = 290;
},
{
color = 6;
glyphname = Gdotaccent;
lastChange = "2023-12-06 14:16:46 +0000";
layers = (
{
anchors = (
{
name = bottom;
pos = (300,0);
},
{
name = top.case;
pos = (225,750);
}
);
layerId = m01;
shapes = (
{
closed = 1;
nodes = (
(75,750,l),
(75,675,l),
(0,675,l),
(0,75,l),
(75,75,l),
(75,0,l),
(450,0,l),
(450,75,l),
(525,75,l),
(525,450,l),
(225,450,l),
(225,300,l),
(375,300,l),
(375,150,l),
(225,150,l),
(225,225,l),
(150,225,l),
(150,525,l),
(225,525,l),
(225,600,l),
(375,600,l),
(375,525,l),
(525,525,l),
(525,675,l),
(450,675,l),
(450,750,l)
);
},
{
closed = 1;
nodes = (
(300,825,l),
(300,975,l),
(150,975,l),
(150,825,l)
);
}
);
width = 600;
},
{
anchors = (
{
name = bottom;
pos = (300,0);
},
{
name = top.case;
pos = (225,750);
}
);
layerId = m002;
shapes = (
{
closed = 1;
nodes = (
(75,750,l),
(75,675,l),
(0,675,l),
(0,75,l),
(75,75,l),
(75,0,l),
(450,0,l),
(450,75,l),
(525,75,l),
(525,450,l),
(225,450,l),
(225,300,l),
(375,300,l),
(375,150,l),
(225,150,l),
(225,225,l),
(150,225,l),
(150,525,l),
(225,525,l),
(225,600,l),
(375,600,l),
(375,525,l),
(525,525,l),
(525,675,l),
(450,675,l),
(450,750,l)
);
},
{
closed = 1;
nodes = (
(300,825,l),
(300,975,l),
(150,975,l),
(150,825,l)
);
}
);
width = 600;
}
);
unicode = 288;
},
{
color = 6;
glyphname = H;
lastChange = "2023-12-06 14:16:46 +0000";
layers = (
{
layerId = m01;
shapes = (
{
closed = 1;
nodes = (
(0,0,l),
(150,0,l),
(150,300,l),
(375,300,l),
(375,0,l),
(525,0,l),
(525,750,l),
(375,750,l),
(375,450,l),
(150,450,l),
(150,750,l),
(0,750,l)
);
}
);
width = 600;
},
{
layerId = m002;
shapes = (
{
closed = 1;
nodes = (
(0,0,l),
(150,0,l),
(150,300,l),
(375,300,l),
(375,0,l),
(525,0,l),
(525,750,l),
(375,750,l),
(375,450,l),
(150,450,l),
(150,750,l),
(0,750,l)
);
}
);
width = 600;
}
);
unicode = 72;
},
{
color = 6;
glyphname = Hbar;
lastChange = "2023-12-06 14:16:46 +0000";
layers = (
{
layerId = m01;
shapes = (
{
closed = 1;
nodes = (
(75,675,l),
(0,675,l),
(0,525,l),
(75,525,l),
(75,0,l),
(225,0,l),
(225,300,l),
(450,300,l),
(450,0,l),
(600,0,l),
(600,525,l),
(675,525,l),
(675,675,l),
(600,675,l),
(600,750,l),
(450,750,l),
(450,675,l),
(225,675,l),
(225,750,l),
(75,750,l)
);
},
{
closed = 1;
nodes = (
(225,525,l),
(450,525,l),
(450,450,l),
(225,450,l)
);
}
);
width = 750;
},
{
layerId = m002;
shapes = (
{
closed = 1;
nodes = (
(75,675,l),
(0,675,l),
(0,525,l),
(75,525,l),
(75,0,l),
(225,0,l),
(225,300,l),
(450,300,l),
(450,0,l),
(600,0,l),
(600,525,l),
(675,525,l),
(675,675,l),
(600,675,l),
(600,750,l),
(450,750,l),
(450,675,l),
(225,675,l),
(225,750,l),
(75,750,l)
);
},
{
closed = 1;
nodes = (
(225,525,l),
(450,525,l),
(450,450,l),
(225,450,l)
);
}
);
width = 750;
}
);
unicode = 294;
},
{
color = 6;
glyphname = I;
lastChange = "2023-12-06 14:16:46 +0000";
layers = (
{
anchors = (
{
name = bottom;
pos = (75,0);
},
{
name = top.case;
pos = (75,750);
}
);
layerId = m01;
shapes = (
{
closed = 1;
nodes = (
(0,0,l),
(150,0,l),
(150,750,l),
(0,750,l)
);
}
);
width = 225;
},
{
anchors = (
{
name = bottom;
pos = (75,0);
},
{
name = top.case;
pos = (75,750);
}
);
layerId = m002;
shapes = (
{
closed = 1;
nodes = (
(0,0,l),
(150,0,l),
(150,750,l),
(0,750,l)
);
}
);
width = 225;
}
);
unicode = 73;
},
{
color = 6;
glyphname = IJ;
lastChange = "2023-12-06 14:16:46 +0000";
layers = (
{
anchors = (
{
name = bottom;
pos = (450,0);
},
{
name = top;
pos = (525,750);
},
{
name = top.case;
pos = (75,750);
}
);
layerId = m01;
shapes = (
{
closed = 1;
nodes = (
(0,0,l),
(150,0,l),
(150,750,l),
(0,750,l)
);
},
{
closed = 1;
nodes = (
(300,75,l),
(300,0,l),
(600,0,l),
(600,75,l),
(675,75,l),
(675,750,l),
(525,750,l),
(525,225,l),
(450,225,l),
(450,150,l),
(375,150,l),
(375,225,l),
(225,225,l),
(225,75,l)
);
}
);
width = 750;
},
{
anchors = (
{
name = bottom;
pos = (450,0);
},
{
name = top;
pos = (525,750);
},
{
name = top.case;
pos = (75,750);
}
);
layerId = m002;
shapes = (
{
closed = 1;
nodes = (
(0,0,l),
(150,0,l),
(150,750,l),
(0,750,l)
);
},
{
closed = 1;
nodes = (
(300,75,l),
(300,0,l),
(600,0,l),
(600,75,l),
(675,75,l),
(675,750,l),
(525,750,l),
(525,225,l),
(450,225,l),
(450,150,l),
(375,150,l),
(375,225,l),
(225,225,l),
(225,75,l)
);
}
);
width = 750;
}
);
unicode = 306;
},
{
color = 6;
glyphname = Iacute;
lastChange = "2023-12-06 14:16:46 +0000";
layers = (
{
anchors = (
{
name = bottom;
pos = (75,0);
},
{
name = top.case;
pos = (75,750);
}
);
layerId = m01;
shapes = (
{
closed = 1;
nodes = (
(0,0,l),
(150,0,l),
(150,750,l),
(0,750,l)
);
},
{
closed = 1;
nodes = (
(150,825,l),
(150,900,l),
(225,900,l),
(225,1050,l),
(150,1050,l),
(150,975,l),
(75,975,l),
(75,825,l)
);
}
);
width = 225;
},
{
anchors = (
{
name = bottom;
pos = (75,0);
},
{
name = top.case;
pos = (75,750);
}
);
layerId = m002;
shapes = (
{
closed = 1;
nodes = (
(0,0,l),
(150,0,l),
(150,750,l),
(0,750,l)
);
},
{
closed = 1;
nodes = (
(150,825,l),
(150,900,l),
(225,900,l),
(225,1050,l),
(150,1050,l),
(150,975,l),
(75,975,l),
(75,825,l)
);
}
);
width = 225;
}
);
unicode = 205;
},
{
color = 6;
glyphname = Icircumflex;
lastChange = "2023-12-06 14:16:46 +0000";
layers = (
{
anchors = (
{
name = bottom;
pos = (150,0);
},
{
name = top;
pos = (150,750);
}
);
layerId = m01;
shapes = (
{
closed = 1;
nodes = (
(75,0,l),
(225,0,l),
(225,750,l),
(75,750,l)
);
},
{
closed = 1;
nodes = (
(75,825,l),
(75,900,l),
(225,900,l),
(225,825,l),
(300,825,l),
(300,975,l),
(225,975,l),
(225,1050,l),
(75,1050,l),
(75,975,l),
(0,975,l),
(0,825,l)
);
}
);
width = 300;
},
{
anchors = (
{
name = bottom;
pos = (150,0);
},
{
name = top;
pos = (150,750);
}
);
layerId = m002;
shapes = (
{
closed = 1;
nodes = (
(75,0,l),
(225,0,l),
(225,750,l),
(75,750,l)
);
},
{
closed = 1;
nodes = (
(75,825,l),
(75,900,l),
(225,900,l),
(225,825,l),
(300,825,l),
(300,975,l),
(225,975,l),
(225,1050,l),
(75,1050,l),
(75,975,l),
(0,975,l),
(0,825,l)
);
}
);
width = 300;
}
);
unicode = 206;
},
{
color = 6;
glyphname = Idieresis;
lastChange = "2023-12-06 14:16:46 +0000";
layers = (
{
anchors = (
{
name = bottom;
pos = (150,0);
},
{
name = top;
pos = (150,750);
}
);
layerId = m01;
shapes = (
{
closed = 1;
nodes = (
(75,0,l),
(225,0,l),
(225,750,l),
(75,750,l)
);
},
{
closed = 1;
nodes = (
(75,825,l),
(75,975,l),
(-75,975,l),
(-75,825,l)
);
},
{
closed = 1;
nodes = (
(375,825,l),
(375,975,l),
(225,975,l),
(225,825,l)
);
}
);
width = 300;
},
{
anchors = (
{
name = bottom;
pos = (150,0);
},
{
name = top;
pos = (150,750);
}
);
layerId = m002;
shapes = (
{
closed = 1;
nodes = (
(75,0,l),
(225,0,l),
(225,750,l),
(75,750,l)
);
},
{
closed = 1;
nodes = (
(75,825,l),
(75,975,l),
(-75,975,l),
(-75,825,l)
);
},
{
closed = 1;
nodes = (
(375,825,l),
(375,975,l),
(225,975,l),
(225,825,l)
);
}
);
width = 300;
}
);
unicode = 207;
},
{
color = 6;
glyphname = Idotaccent;
lastChange = "2023-12-06 14:16:46 +0000";
layers = (
{
anchors = (
{
name = bottom;
pos = (75,0);
},
{
name = top.case;
pos = (75,750);
}
);
layerId = m01;
shapes = (
{
closed = 1;
nodes = (
(0,0,l),
(150,0,l),
(150,750,l),
(0,750,l)
);
},
{
closed = 1;
nodes = (
(150,825,l),
(150,975,l),
(0,975,l),
(0,825,l)
);
}
);
width = 225;
},
{
anchors = (
{
name = bottom;
pos = (75,0);
},
{
name = top.case;
pos = (75,750);
}
);
layerId = m002;
shapes = (
{
closed = 1;
nodes = (
(0,0,l),
(150,0,l),
(150,750,l),
(0,750,l)
);
},
{
closed = 1;
nodes = (
(150,825,l),
(150,975,l),
(0,975,l),
(0,825,l)
);
}
);
width = 225;
}
);
unicode = 304;
},
{
color = 6;
glyphname = Igrave;
lastChange = "2023-12-06 14:16:46 +0000";
layers = (
{
anchors = (
{
name = bottom;
pos = (75,0);
},
{
name = top.case;
pos = (75,750);
}
);
layerId = m01;
shapes = (
{
closed = 1;
nodes = (
(0,0,l),
(150,0,l),
(150,750,l),
(0,750,l)
);
},
{
closed = 1;
nodes = (
(75,900,l),
(75,825,l),
(225,825,l),
(225,900,l),
(150,900,l),
(150,975,l),
(75,975,l),
(75,1050,l),
(0,1050,l),
(0,900,l)
);
}
);
width = 225;
},
{
anchors = (
{
name = bottom;
pos = (75,0);
},
{
name = top.case;
pos = (75,750);
}
);
layerId = m002;
shapes = (
{
closed = 1;
nodes = (
(0,0,l),
(150,0,l),
(150,750,l),
(0,750,l)
);
},
{
closed = 1;
nodes = (
(75,900,l),
(75,825,l),
(225,825,l),
(225,900,l),
(150,900,l),
(150,975,l),
(75,975,l),
(75,1050,l),
(0,1050,l),
(0,900,l)
);
}
);
width = 225;
}
);
unicode = 204;
},
{
color = 6;
glyphname = Imacron;
lastChange = "2023-12-06 14:16:46 +0000";
layers = (
{
anchors = (
{
name = bottom;
pos = (150,0);
},
{
name = top;
pos = (150,750);
}
);
layerId = m01;
shapes = (
{
closed = 1;
nodes = (
(75,0,l),
(225,0,l),
(225,750,l),
(75,750,l)
);
},
{
closed = 1;
nodes = (
(300,825,l),
(300,975,l),
(0,975,l),
(0,825,l)
);
}
);
width = 300;
},
{
anchors = (
{
name = bottom;
pos = (150,0);
},
{
name = top;
pos = (150,750);
}
);
layerId = m002;
shapes = (
{
closed = 1;
nodes = (
(75,0,l),
(225,0,l),
(225,750,l),
(75,750,l)
);
},
{
closed = 1;
nodes = (
(300,825,l),
(300,975,l),
(0,975,l),
(0,825,l)
);
}
);
width = 300;
}
);
unicode = 298;
},
{
color = 6;
glyphname = Iogonek;
lastChange = "2023-12-06 14:16:46 +0000";
layers = (
{
anchors = (
{
name = bottom;
pos = (75,0);
},
{
name = top.case;
pos = (75,750);
}
);
layerId = m01;
shapes = (
{
closed = 1;
nodes = (
(0,0,l),
(75,0,l),
(75,-75,l),
(150,-75,l),
(150,750,l),
(0,750,l)
);
},
{
closed = 1;
nodes = (
(150,-300,l),
(150,-150,l),
(75,-150,l),
(75,-75,l),
(0,-75,l),
(0,-300,l)
);
}
);
width = 225;
},
{
anchors = (
{
name = bottom;
pos = (75,0);
},
{
name = top.case;
pos = (75,750);
}
);
layerId = m002;
shapes = (
{
closed = 1;
nodes = (
(0,0,l),
(75,0,l),
(75,-75,l),
(150,-75,l),
(150,750,l),
(0,750,l)
);
},
{
closed = 1;
nodes = (
(150,-300,l),
(150,-150,l),
(75,-150,l),
(75,-75,l),
(0,-75,l),
(0,-300,l)
);
}
);
width = 225;
}
);
unicode = 302;
},
{
color = 6;
glyphname = J;
lastChange = "2023-12-06 14:16:46 +0000";
layers = (
{
anchors = (
{
name = bottom;
pos = (225,0);
},
{
name = top;
pos = (300,750);
}
);
layerId = m01;
shapes = (
{
closed = 1;
nodes = (
(300,750,l),
(300,225,l),
(225,225,l),
(225,150,l),
(150,150,l),
(150,225,l),
(0,225,l),
(0,75,l),
(75,75,l),
(75,0,l),
(375,0,l),
(375,75,l),
(450,75,l),
(450,750,l)
);
}
);
width = 525;
},
{
anchors = (
{
name = bottom;
pos = (225,0);
},
{
name = top;
pos = (300,750);
}
);
layerId = m002;
shapes = (
{
closed = 1;
nodes = (
(300,750,l),
(300,225,l),
(225,225,l),
(225,150,l),
(150,150,l),
(150,225,l),
(0,225,l),
(0,75,l),
(75,75,l),
(75,0,l),
(375,0,l),
(375,75,l),
(450,75,l),
(450,750,l)
);
}
);
width = 525;
}
);
unicode = 74;
},
{
color = 6;
glyphname = Jacute;
lastChange = "2023-12-06 14:16:46 +0000";
layers = (
{
anchors = (
{
name = bottom;
pos = (225,0);
},
{
name = top;
pos = (300,750);
}
);
layerId = m01;
shapes = (
{
closed = 1;
nodes = (
(300,750,l),
(300,225,l),
(225,225,l),
(225,150,l),
(150,150,l),
(150,225,l),
(0,225,l),
(0,75,l),
(75,75,l),
(75,0,l),
(375,0,l),
(375,75,l),
(450,75,l),
(450,750,l)
);
},
{
closed = 1;
nodes = (
(375,825,l),
(375,900,l),
(450,900,l),
(450,1050,l),
(375,1050,l),
(375,975,l),
(300,975,l),
(300,825,l)
);
}
);
width = 525;
},
{
anchors = (
{
name = bottom;
pos = (225,0);
},
{
name = top;
pos = (300,750);
}
);
layerId = m002;
shapes = (
{
closed = 1;
nodes = (
(300,750,l),
(300,225,l),
(225,225,l),
(225,150,l),
(150,150,l),
(150,225,l),
(0,225,l),
(0,75,l),
(75,75,l),
(75,0,l),
(375,0,l),
(375,75,l),
(450,75,l),
(450,750,l)
);
},
{
closed = 1;
nodes = (
(375,825,l),
(375,900,l),
(450,900,l),
(450,1050,l),
(375,1050,l),
(375,975,l),
(300,975,l),
(300,825,l)
);
}
);
width = 525;
}
);
},
{
color = 6;
glyphname = K;
lastChange = "2023-12-06 14:16:46 +0000";
layers = (
{
anchors = (
{
name = bottom;
pos = (225,0);
},
{
name = top;
pos = (300,750);
}
);
layerId = m01;
shapes = (
{
closed = 1;
nodes = (
(0,750,l),
(0,0,l),
(150,0,l),
(150,300,l),
(225,300,l),
(225,225,l),
(300,225,l),
(300,0,l),
(450,0,l),
(450,300,l),
(375,300,l),
(375,375,l),
(300,375,l),
(300,450,l),
(375,450,l),
(375,525,l),
(450,525,l),
(450,750,l),
(300,750,l),
(300,525,l),
(225,525,l),
(225,450,l),
(150,450,l),
(150,750,l)
);
}
);
width = 525;
},
{
anchors = (
{
name = bottom;
pos = (225,0);
},
{
name = top;
pos = (300,750);
}
);
layerId = m002;
shapes = (
{
closed = 1;
nodes = (
(0,750,l),
(0,0,l),
(150,0,l),
(150,300,l),
(225,300,l),
(225,225,l),
(300,225,l),
(300,0,l),
(450,0,l),
(450,300,l),
(375,300,l),
(375,375,l),
(300,375,l),
(300,450,l),
(375,450,l),
(375,525,l),
(450,525,l),
(450,750,l),
(300,750,l),
(300,525,l),
(225,525,l),
(225,450,l),
(150,450,l),
(150,750,l)
);
}
);
width = 525;
}
);
unicode = 75;
},
{
color = 6;
glyphname = Kcommaaccent;
lastChange = "2023-12-06 14:16:46 +0000";
layers = (
{
anchors = (
{
name = bottom;
pos = (225,0);
},
{
name = top;
pos = (300,750);
}
);
layerId = m01;
shapes = (
{
closed = 1;
nodes = (
(0,750,l),
(0,0,l),
(150,0,l),
(150,300,l),
(225,300,l),
(225,225,l),
(300,225,l),
(300,0,l),
(450,0,l),
(450,300,l),
(375,300,l),
(375,375,l),
(300,375,l),
(300,450,l),
(375,450,l),
(375,525,l),
(450,525,l),
(450,750,l),
(300,750,l),
(300,525,l),
(225,525,l),
(225,450,l),
(150,450,l),
(150,750,l)
);
},
{
closed = 1;
nodes = (
(225,-375,l),
(225,-300,l),
(150,-300,l),
(150,-375,l)
);
},
{
closed = 1;
nodes = (
(225,-225,l),
(225,-300,l),
(300,-300,l),
(300,-75,l),
(150,-75,l),
(150,-225,l)
);
}
);
width = 525;
},
{
anchors = (
{
name = bottom;
pos = (225,0);
},
{
name = top;
pos = (300,750);
}
);
layerId = m002;
shapes = (
{
closed = 1;
nodes = (
(0,750,l),
(0,0,l),
(150,0,l),
(150,300,l),
(225,300,l),
(225,225,l),
(300,225,l),
(300,0,l),
(450,0,l),
(450,300,l),
(375,300,l),
(375,375,l),
(300,375,l),
(300,450,l),
(375,450,l),
(375,525,l),
(450,525,l),
(450,750,l),
(300,750,l),
(300,525,l),
(225,525,l),
(225,450,l),
(150,450,l),
(150,750,l)
);
},
{
closed = 1;
nodes = (
(225,-375,l),
(225,-300,l),
(150,-300,l),
(150,-375,l)
);
},
{
closed = 1;
nodes = (
(225,-225,l),
(225,-300,l),
(300,-300,l),
(300,-75,l),
(150,-75,l),
(150,-225,l)
);
}
);
width = 525;
}
);
unicode = 310;
},
{
color = 6;
glyphname = L;
lastChange = "2023-12-06 14:16:46 +0000";
layers = (
{
anchors = (
{
name = bottom;
pos = (225,0);
},
{
name = top.case;
pos = (75,750);
}
);
layerId = m01;
shapes = (
{
closed = 1;
nodes = (
(0,0,l),
(375,0,l),
(375,150,l),
(150,150,l),
(150,750,l),
(0,750,l)
);
}
);
width = 450;
},
{
anchors = (
{
name = bottom;
pos = (225,0);
},
{
name = top.case;
pos = (75,750);
}
);
layerId = m002;
shapes = (
{
closed = 1;
nodes = (
(0,0,l),
(375,0,l),
(375,150,l),
(150,150,l),
(150,750,l),
(0,750,l)
);
}
);
width = 450;
}
);
unicode = 76;
},
{
color = 6;
glyphname = Lacute;
lastChange = "2023-12-06 14:16:46 +0000";
layers = (
{
anchors = (
{
name = bottom;
pos = (225,0);
},
{
name = top.case;
pos = (75,750);
}
);
layerId = m01;
shapes = (
{
closed = 1;
nodes = (
(0,0,l),
(375,0,l),
(375,150,l),
(150,150,l),
(150,750,l),
(0,750,l)
);
},
{
closed = 1;
nodes = (
(150,825,l),
(150,900,l),
(225,900,l),
(225,1050,l),
(150,1050,l),
(150,975,l),
(75,975,l),
(75,825,l)
);
}
);
width = 450;
},
{
anchors = (
{
name = bottom;
pos = (225,0);
},
{
name = top.case;
pos = (75,750);
}
);
layerId = m002;
shapes = (
{
closed = 1;
nodes = (
(0,0,l),
(375,0,l),
(375,150,l),
(150,150,l),
(150,750,l),
(0,750,l)
);
},
{
closed = 1;
nodes = (
(150,825,l),
(150,900,l),
(225,900,l),
(225,1050,l),
(150,1050,l),
(150,975,l),
(75,975,l),
(75,825,l)
);
}
);
width = 450;
}
);
unicode = 313;
},
{
color = 6;
glyphname = Lcaron;
lastChange = "2023-12-06 14:16:46 +0000";
layers = (
{
anchors = (
{
name = bottom;
pos = (225,0);
},
{
name = top.case;
pos = (75,750);
}
);
layerId = m01;
shapes = (
{
closed = 1;
nodes = (
(0,0,l),
(375,0,l),
(375,150,l),
(150,150,l),
(150,750,l),
(0,750,l)
);
},
{
closed = 1;
nodes = (
(375,675,l),
(375,600,l),
(450,600,l),
(450,825,l),
(300,825,l),
(300,675,l)
);
}
);
width = 525;
},
{
anchors = (
{
name = bottom;
pos = (225,0);
},
{
name = top.case;
pos = (75,750);
}
);
layerId = m002;
shapes = (
{
closed = 1;
nodes = (
(0,0,l),
(375,0,l),
(375,150,l),
(150,150,l),
(150,750,l),
(0,750,l)
);
},
{
closed = 1;
nodes = (
(375,675,l),
(375,600,l),
(450,600,l),
(450,825,l),
(300,825,l),
(300,675,l)
);
}
);
width = 525;
}
);
unicode = 317;
},
{
color = 6;
glyphname = Lcommaaccent;
lastChange = "2023-12-06 14:16:46 +0000";
layers = (
{
anchors = (
{
name = bottom;
pos = (225,0);
},
{
name = top.case;
pos = (75,750);
}
);
layerId = m01;
shapes = (
{
closed = 1;
nodes = (
(0,0,l),
(375,0,l),
(375,150,l),
(150,150,l),
(150,750,l),
(0,750,l)
);
},
{
closed = 1;
nodes = (
(225,-375,l),
(225,-300,l),
(150,-300,l),
(150,-375,l)
);
},
{
closed = 1;
nodes = (
(225,-225,l),
(225,-300,l),
(300,-300,l),
(300,-75,l),
(150,-75,l),
(150,-225,l)
);
}
);
width = 450;
},
{
anchors = (
{
name = bottom;
pos = (225,0);
},
{
name = top.case;
pos = (75,750);
}
);
layerId = m002;
shapes = (
{
closed = 1;
nodes = (
(0,0,l),
(375,0,l),
(375,150,l),
(150,150,l),
(150,750,l),
(0,750,l)
);
},
{
closed = 1;
nodes = (
(225,-375,l),
(225,-300,l),
(150,-300,l),
(150,-375,l)
);
},
{
closed = 1;
nodes = (
(225,-225,l),
(225,-300,l),
(300,-300,l),
(300,-75,l),
(150,-75,l),
(150,-225,l)
);
}
);
width = 450;
}
);
unicode = 315;
},
{
color = 6;
glyphname = Lslash;
lastChange = "2023-12-06 14:16:46 +0000";
layers = (
{
layerId = m01;
shapes = (
{
closed = 1;
nodes = (
(75,300,l),
(0,300,l),
(0,150,l),
(75,150,l),
(75,0,l),
(450,0,l),
(450,150,l),
(225,150,l),
(225,375,l),
(300,375,l),
(300,450,l),
(375,450,l),
(375,600,l),
(300,600,l),
(300,525,l),
(225,525,l),
(225,750,l),
(75,750,l)
);
}
);
width = 525;
},
{
layerId = m002;
shapes = (
{
closed = 1;
nodes = (
(75,300,l),
(0,300,l),
(0,150,l),
(75,150,l),
(75,0,l),
(450,0,l),
(450,150,l),
(225,150,l),
(225,375,l),
(300,375,l),
(300,450,l),
(375,450,l),
(375,600,l),
(300,600,l),
(300,525,l),
(225,525,l),
(225,750,l),
(75,750,l)
);
}
);
width = 525;
}
);
unicode = 321;
},
{
color = 6;
glyphname = M;
lastChange = "2023-12-06 14:16:46 +0000";
layers = (
{
layerId = m01;
shapes = (
{
closed = 1;
nodes = (
(0,0,l),
(150,0,l),
(150,450,l),
(225,450,l),
(225,375,l),
(300,375,l),
(300,300,l),
(375,300,l),
(375,375,l),
(450,375,l),
(450,450,l),
(525,450,l),
(525,0,l),
(675,0,l),
(675,750,l),
(525,750,l),
(525,675,l),
(450,675,l),
(450,600,l),
(375,600,l),
(375,525,l),
(300,525,l),
(300,600,l),
(225,600,l),
(225,675,l),
(150,675,l),
(150,750,l),
(0,750,l)
);
}
);
width = 750;
},
{
layerId = m002;
shapes = (
{
closed = 1;
nodes = (
(0,0,l),
(150,0,l),
(150,450,l),
(225,450,l),
(225,375,l),
(300,375,l),
(300,300,l),
(375,300,l),
(375,375,l),
(450,375,l),
(450,450,l),
(525,450,l),
(525,0,l),
(675,0,l),
(675,750,l),
(525,750,l),
(525,675,l),
(450,675,l),
(450,600,l),
(375,600,l),
(375,525,l),
(300,525,l),
(300,600,l),
(225,600,l),
(225,675,l),
(150,675,l),
(150,750,l),
(0,750,l)
);
}
);
width = 750;
}
);
unicode = 77;
},
{
color = 6;
glyphname = N;
lastChange = "2023-12-06 14:16:46 +0000";
layers = (
{
anchors = (
{
name = bottom;
pos = (300,0);
},
{
name = top.case;
pos = (300,750);
}
);
layerId = m01;
shapes = (
{
closed = 1;
nodes = (
(225,225,l),
(300,225,l),
(300,75,l),
(375,75,l),
(375,0,l),
(600,0,l),
(600,750,l),
(450,750,l),
(450,300,l),
(375,300,l),
(375,450,l),
(300,450,l),
(300,600,l),
(225,600,l),
(225,750,l),
(0,750,l),
(0,0,l),
(150,0,l),
(150,375,l),
(225,375,l)
);
}
);
width = 675;
},
{
anchors = (
{
name = bottom;
pos = (300,0);
},
{
name = top.case;
pos = (300,750);
}
);
layerId = m002;
shapes = (
{
closed = 1;
nodes = (
(225,225,l),
(300,225,l),
(300,75,l),
(375,75,l),
(375,0,l),
(600,0,l),
(600,750,l),
(450,750,l),
(450,300,l),
(375,300,l),
(375,450,l),
(300,450,l),
(300,600,l),
(225,600,l),
(225,750,l),
(0,750,l),
(0,0,l),
(150,0,l),
(150,375,l),
(225,375,l)
);
}
);
width = 675;
}
);
unicode = 78;
},
{
color = 6;
glyphname = Nacute;
lastChange = "2023-12-06 14:16:46 +0000";
layers = (
{
anchors = (
{
name = bottom;
pos = (300,0);
},
{
name = top.case;
pos = (300,750);
}
);
layerId = m01;
shapes = (
{
closed = 1;
nodes = (
(225,225,l),
(300,225,l),
(300,75,l),
(375,75,l),
(375,0,l),
(600,0,l),
(600,750,l),
(450,750,l),
(450,300,l),
(375,300,l),
(375,450,l),
(300,450,l),
(300,600,l),
(225,600,l),
(225,750,l),
(0,750,l),
(0,0,l),
(150,0,l),
(150,375,l),
(225,375,l)
);
},
{
closed = 1;
nodes = (
(375,825,l),
(375,900,l),
(450,900,l),
(450,1050,l),
(375,1050,l),
(375,975,l),
(300,975,l),
(300,825,l)
);
}
);
width = 675;
},
{
anchors = (
{
name = bottom;
pos = (300,0);
},
{
name = top.case;
pos = (300,750);
}
);
layerId = m002;
shapes = (
{
closed = 1;
nodes = (
(225,225,l),
(300,225,l),
(300,75,l),
(375,75,l),
(375,0,l),
(600,0,l),
(600,750,l),
(450,750,l),
(450,300,l),
(375,300,l),
(375,450,l),
(300,450,l),
(300,600,l),
(225,600,l),
(225,750,l),
(0,750,l),
(0,0,l),
(150,0,l),
(150,375,l),
(225,375,l)
);
},
{
closed = 1;
nodes = (
(375,825,l),
(375,900,l),
(450,900,l),
(450,1050,l),
(375,1050,l),
(375,975,l),
(300,975,l),
(300,825,l)
);
}
);
width = 675;
}
);
unicode = 323;
},
{
color = 6;
glyphname = Ncaron;
lastChange = "2023-12-06 14:16:46 +0000";
layers = (
{
anchors = (
{
name = bottom;
pos = (300,0);
},
{
name = top.case;
pos = (300,750);
}
);
layerId = m01;
shapes = (
{
closed = 1;
nodes = (
(225,225,l),
(300,225,l),
(300,75,l),
(375,75,l),
(375,0,l),
(600,0,l),
(600,750,l),
(450,750,l),
(450,300,l),
(375,300,l),
(375,450,l),
(300,450,l),
(300,600,l),
(225,600,l),
(225,750,l),
(0,750,l),
(0,0,l),
(150,0,l),
(150,375,l),
(225,375,l)
);
},
{
closed = 1;
nodes = (
(225,975,l),
(225,900,l),
(300,900,l),
(300,825,l),
(375,825,l),
(375,900,l),
(450,900,l),
(450,975,l),
(525,975,l),
(525,1050,l),
(375,1050,l),
(375,975,l),
(300,975,l),
(300,1050,l),
(150,1050,l),
(150,975,l)
);
}
);
width = 675;
},
{
anchors = (
{
name = bottom;
pos = (300,0);
},
{
name = top.case;
pos = (300,750);
}
);
layerId = m002;
shapes = (
{
closed = 1;
nodes = (
(225,225,l),
(300,225,l),
(300,75,l),
(375,75,l),
(375,0,l),
(600,0,l),
(600,750,l),
(450,750,l),
(450,300,l),
(375,300,l),
(375,450,l),
(300,450,l),
(300,600,l),
(225,600,l),
(225,750,l),
(0,750,l),
(0,0,l),
(150,0,l),
(150,375,l),
(225,375,l)
);
},
{
closed = 1;
nodes = (
(225,975,l),
(225,900,l),
(300,900,l),
(300,825,l),
(375,825,l),
(375,900,l),
(450,900,l),
(450,975,l),
(525,975,l),
(525,1050,l),
(375,1050,l),
(375,975,l),
(300,975,l),
(300,1050,l),
(150,1050,l),
(150,975,l)
);
}
);
width = 675;
}
);
unicode = 327;
},
{
color = 6;
glyphname = Ncommaaccent;
lastChange = "2023-12-06 14:16:46 +0000";
layers = (
{
anchors = (
{
name = bottom;
pos = (300,0);
},
{
name = top.case;
pos = (300,750);
}
);
layerId = m01;
shapes = (
{
closed = 1;
nodes = (
(225,225,l),
(300,225,l),
(300,75,l),
(375,75,l),
(375,0,l),
(600,0,l),
(600,750,l),
(450,750,l),
(450,300,l),
(375,300,l),
(375,450,l),
(300,450,l),
(300,600,l),
(225,600,l),
(225,750,l),
(0,750,l),
(0,0,l),
(150,0,l),
(150,375,l),
(225,375,l)
);
},
{
closed = 1;
nodes = (
(300,-375,l),
(300,-300,l),
(225,-300,l),
(225,-375,l)
);
},
{
closed = 1;
nodes = (
(300,-225,l),
(300,-300,l),
(375,-300,l),
(375,-75,l),
(225,-75,l),
(225,-225,l)
);
}
);
width = 675;
},
{
anchors = (
{
name = bottom;
pos = (300,0);
},
{
name = top.case;
pos = (300,750);
}
);
layerId = m002;
shapes = (
{
closed = 1;
nodes = (
(225,225,l),
(300,225,l),
(300,75,l),
(375,75,l),
(375,0,l),
(600,0,l),
(600,750,l),
(450,750,l),
(450,300,l),
(375,300,l),
(375,450,l),
(300,450,l),
(300,600,l),
(225,600,l),
(225,750,l),
(0,750,l),
(0,0,l),
(150,0,l),
(150,375,l),
(225,375,l)
);
},
{
closed = 1;
nodes = (
(300,-375,l),
(300,-300,l),
(225,-300,l),
(225,-375,l)
);
},
{
closed = 1;
nodes = (
(300,-225,l),
(300,-300,l),
(375,-300,l),
(375,-75,l),
(225,-75,l),
(225,-225,l)
);
}
);
width = 675;
}
);
unicode = 325;
},
{
color = 6;
glyphname = Ntilde;
lastChange = "2023-12-06 14:16:46 +0000";
layers = (
{
anchors = (
{
name = bottom;
pos = (300,0);
},
{
name = top.case;
pos = (300,750);
}
);
layerId = m01;
shapes = (
{
closed = 1;
nodes = (
(225,225,l),
(300,225,l),
(300,75,l),
(375,75,l),
(375,0,l),
(600,0,l),
(600,750,l),
(450,750,l),
(450,300,l),
(375,300,l),
(375,450,l),
(300,450,l),
(300,600,l),
(225,600,l),
(225,750,l),
(0,750,l),
(0,0,l),
(150,0,l),
(150,375,l),
(225,375,l)
);
},
{
closed = 1;
nodes = (
(225,900,l),
(225,975,l),
(300,975,l),
(300,900,l),
(375,900,l),
(375,825,l),
(450,825,l),
(450,900,l),
(525,900,l),
(525,1050,l),
(450,1050,l),
(450,975,l),
(375,975,l),
(375,1050,l),
(300,1050,l),
(300,1125,l),
(225,1125,l),
(225,1050,l),
(150,1050,l),
(150,900,l)
);
}
);
width = 675;
},
{
anchors = (
{
name = bottom;
pos = (300,0);
},
{
name = top.case;
pos = (300,750);
}
);
layerId = m002;
shapes = (
{
closed = 1;
nodes = (
(225,225,l),
(300,225,l),
(300,75,l),
(375,75,l),
(375,0,l),
(600,0,l),
(600,750,l),
(450,750,l),
(450,300,l),
(375,300,l),
(375,450,l),
(300,450,l),
(300,600,l),
(225,600,l),
(225,750,l),
(0,750,l),
(0,0,l),
(150,0,l),
(150,375,l),
(225,375,l)
);
},
{
closed = 1;
nodes = (
(225,900,l),
(225,975,l),
(300,975,l),
(300,900,l),
(375,900,l),
(375,825,l),
(450,825,l),
(450,900,l),
(525,900,l),
(525,1050,l),
(450,1050,l),
(450,975,l),
(375,975,l),
(375,1050,l),
(300,1050,l),
(300,1125,l),
(225,1125,l),
(225,1050,l),
(150,1050,l),
(150,900,l)
);
}
);
width = 675;
}
);
unicode = 209;
},
{
color = 6;
glyphname = Eng;
lastChange = "2023-12-06 14:16:46 +0000";
layers = (
{
layerId = m01;
shapes = (
{
closed = 1;
nodes = (
(225,225,l),
(300,225,l),
(300,75,l),
(375,75,l),
(375,0,l),
(450,0,l),
(450,-150,l),
(375,-150,l),
(375,-225,l),
(525,-225,l),
(525,-150,l),
(600,-150,l),
(600,750,l),
(450,750,l),
(450,300,l),
(375,300,l),
(375,450,l),
(300,450,l),
(300,600,l),
(225,600,l),
(225,750,l),
(0,750,l),
(0,0,l),
(150,0,l),
(150,375,l),
(225,375,l)
);
}
);
width = 675;
},
{
layerId = m002;
shapes = (
{
closed = 1;
nodes = (
(225,225,l),
(300,225,l),
(300,75,l),
(375,75,l),
(375,0,l),
(450,0,l),
(450,-150,l),
(375,-150,l),
(375,-225,l),
(525,-225,l),
(525,-150,l),
(600,-150,l),
(600,750,l),
(450,750,l),
(450,300,l),
(375,300,l),
(375,450,l),
(300,450,l),
(300,600,l),
(225,600,l),
(225,750,l),
(0,750,l),
(0,0,l),
(150,0,l),
(150,375,l),
(225,375,l)
);
}
);
width = 675;
}
);
unicode = 330;
},
{
color = 6;
glyphname = O;
lastChange = "2023-12-06 14:16:46 +0000";
layers = (
{
anchors = (
{
name = bottom;
pos = (300,0);
},
{
name = center;
pos = (300,375);
},
{
name = top.case;
pos = (225,750);
}
);
layerId = m01;
shapes = (
{
closed = 1;
nodes = (
(75,750,l),
(75,675,l),
(0,675,l),
(0,75,l),
(75,75,l),
(75,0,l),
(450,0,l),
(450,75,l),
(525,75,l),
(525,675,l),
(450,675,l),
(450,750,l)
);
},
{
closed = 1;
nodes = (
(150,525,l),
(225,525,l),
(225,600,l),
(300,600,l),
(300,525,l),
(375,525,l),
(375,225,l),
(300,225,l),
(300,150,l),
(225,150,l),
(225,225,l),
(150,225,l)
);
}
);
width = 600;
},
{
anchors = (
{
name = bottom;
pos = (300,0);
},
{
name = center;
pos = (300,375);
},
{
name = top.case;
pos = (225,750);
}
);
layerId = m002;
shapes = (
{
closed = 1;
nodes = (
(75,750,l),
(75,675,l),
(0,675,l),
(0,75,l),
(75,75,l),
(75,0,l),
(450,0,l),
(450,75,l),
(525,75,l),
(525,675,l),
(450,675,l),
(450,750,l)
);
},
{
closed = 1;
nodes = (
(150,525,l),
(225,525,l),
(225,600,l),
(300,600,l),
(300,525,l),
(375,525,l),
(375,225,l),
(300,225,l),
(300,150,l),
(225,150,l),
(225,225,l),
(150,225,l)
);
}
);
width = 600;
}
);
unicode = 79;
},
{
color = 6;
glyphname = Oacute;
lastChange = "2023-12-06 14:16:46 +0000";
layers = (
{
anchors = (
{
name = bottom;
pos = (300,0);
},
{
name = center;
pos = (300,375);
},
{
name = top.case;
pos = (225,750);
}
);
layerId = m01;
shapes = (
{
closed = 1;
nodes = (
(75,750,l),
(75,675,l),
(0,675,l),
(0,75,l),
(75,75,l),
(75,0,l),
(450,0,l),
(450,75,l),
(525,75,l),
(525,675,l),
(450,675,l),
(450,750,l)
);
},
{
closed = 1;
nodes = (
(150,525,l),
(225,525,l),
(225,600,l),
(300,600,l),
(300,525,l),
(375,525,l),
(375,225,l),
(300,225,l),
(300,150,l),
(225,150,l),
(225,225,l),
(150,225,l)
);
},
{
closed = 1;
nodes = (
(300,825,l),
(300,900,l),
(375,900,l),
(375,1050,l),
(300,1050,l),
(300,975,l),
(225,975,l),
(225,825,l)
);
}
);
width = 600;
},
{
anchors = (
{
name = bottom;
pos = (300,0);
},
{
name = center;
pos = (300,375);
},
{
name = top.case;
pos = (225,750);
}
);
layerId = m002;
shapes = (
{
closed = 1;
nodes = (
(75,750,l),
(75,675,l),
(0,675,l),
(0,75,l),
(75,75,l),
(75,0,l),
(450,0,l),
(450,75,l),
(525,75,l),
(525,675,l),
(450,675,l),
(450,750,l)
);
},
{
closed = 1;
nodes = (
(150,525,l),
(225,525,l),
(225,600,l),
(300,600,l),
(300,525,l),
(375,525,l),
(375,225,l),
(300,225,l),
(300,150,l),
(225,150,l),
(225,225,l),
(150,225,l)
);
},
{
closed = 1;
nodes = (
(300,825,l),
(300,900,l),
(375,900,l),
(375,1050,l),
(300,1050,l),
(300,975,l),
(225,975,l),
(225,825,l)
);
}
);
width = 600;
}
);
unicode = 211;
},
{
color = 6;
glyphname = Ocircumflex;
lastChange = "2023-12-06 14:16:46 +0000";
layers = (
{
anchors = (
{
name = bottom;
pos = (300,0);
},
{
name = center;
pos = (300,375);
},
{
name = top.case;
pos = (225,750);
}
);
layerId = m01;
shapes = (
{
closed = 1;
nodes = (
(75,750,l),
(75,675,l),
(0,675,l),
(0,75,l),
(75,75,l),
(75,0,l),
(450,0,l),
(450,75,l),
(525,75,l),
(525,675,l),
(450,675,l),
(450,750,l)
);
},
{
closed = 1;
nodes = (
(225,825,l),
(225,900,l),
(300,900,l),
(300,825,l),
(450,825,l),
(450,900,l),
(375,900,l),
(375,975,l),
(300,975,l),
(300,1050,l),
(225,1050,l),
(225,975,l),
(150,975,l),
(150,900,l),
(75,900,l),
(75,825,l)
);
},
{
closed = 1;
nodes = (
(150,525,l),
(225,525,l),
(225,600,l),
(300,600,l),
(300,525,l),
(375,525,l),
(375,225,l),
(300,225,l),
(300,150,l),
(225,150,l),
(225,225,l),
(150,225,l)
);
}
);
width = 600;
},
{
anchors = (
{
name = bottom;
pos = (300,0);
},
{
name = center;
pos = (300,375);
},
{
name = top.case;
pos = (225,750);
}
);
layerId = m002;
shapes = (
{
closed = 1;
nodes = (
(75,750,l),
(75,675,l),
(0,675,l),
(0,75,l),
(75,75,l),
(75,0,l),
(450,0,l),
(450,75,l),
(525,75,l),
(525,675,l),
(450,675,l),
(450,750,l)
);
},
{
closed = 1;
nodes = (
(225,825,l),
(225,900,l),
(300,900,l),
(300,825,l),
(450,825,l),
(450,900,l),
(375,900,l),
(375,975,l),
(300,975,l),
(300,1050,l),
(225,1050,l),
(225,975,l),
(150,975,l),
(150,900,l),
(75,900,l),
(75,825,l)
);
},
{
closed = 1;
nodes = (
(150,525,l),
(225,525,l),
(225,600,l),
(300,600,l),
(300,525,l),
(375,525,l),
(375,225,l),
(300,225,l),
(300,150,l),
(225,150,l),
(225,225,l),
(150,225,l)
);
}
);
width = 600;
}
);
unicode = 212;
},
{
color = 6;
glyphname = Odieresis;
lastChange = "2023-12-06 14:16:46 +0000";
layers = (
{
anchors = (
{
name = bottom;
pos = (300,0);
},
{
name = center;
pos = (300,375);
},
{
name = top.case;
pos = (225,750);
}
);
layerId = m01;
shapes = (
{
closed = 1;
nodes = (
(75,750,l),
(75,675,l),
(0,675,l),
(0,75,l),
(75,75,l),
(75,0,l),
(450,0,l),
(450,75,l),
(525,75,l),
(525,675,l),
(450,675,l),
(450,750,l)
);
},
{
closed = 1;
nodes = (
(225,825,l),
(225,975,l),
(75,975,l),
(75,825,l)
);
},
{
closed = 1;
nodes = (
(150,525,l),
(225,525,l),
(225,600,l),
(300,600,l),
(300,525,l),
(375,525,l),
(375,225,l),
(300,225,l),
(300,150,l),
(225,150,l),
(225,225,l),
(150,225,l)
);
},
{
closed = 1;
nodes = (
(450,825,l),
(450,975,l),
(300,975,l),
(300,825,l)
);
}
);
width = 600;
},
{
anchors = (
{
name = bottom;
pos = (300,0);
},
{
name = center;
pos = (300,375);
},
{
name = top.case;
pos = (225,750);
}
);
layerId = m002;
shapes = (
{
closed = 1;
nodes = (
(75,750,l),
(75,675,l),
(0,675,l),
(0,75,l),
(75,75,l),
(75,0,l),
(450,0,l),
(450,75,l),
(525,75,l),
(525,675,l),
(450,675,l),
(450,750,l)
);
},
{
closed = 1;
nodes = (
(225,825,l),
(225,975,l),
(75,975,l),
(75,825,l)
);
},
{
closed = 1;
nodes = (
(150,525,l),
(225,525,l),
(225,600,l),
(300,600,l),
(300,525,l),
(375,525,l),
(375,225,l),
(300,225,l),
(300,150,l),
(225,150,l),
(225,225,l),
(150,225,l)
);
},
{
closed = 1;
nodes = (
(450,825,l),
(450,975,l),
(300,975,l),
(300,825,l)
);
}
);
width = 600;
}
);
unicode = 214;
},
{
color = 6;
glyphname = Ograve;
lastChange = "2023-12-06 14:16:46 +0000";
layers = (
{
anchors = (
{
name = bottom;
pos = (300,0);
},
{
name = center;
pos = (300,375);
},
{
name = top.case;
pos = (225,750);
}
);
layerId = m01;
shapes = (
{
closed = 1;
nodes = (
(75,750,l),
(75,675,l),
(0,675,l),
(0,75,l),
(75,75,l),
(75,0,l),
(450,0,l),
(450,75,l),
(525,75,l),
(525,675,l),
(450,675,l),
(450,750,l)
);
},
{
closed = 1;
nodes = (
(150,525,l),
(225,525,l),
(225,600,l),
(300,600,l),
(300,525,l),
(375,525,l),
(375,225,l),
(300,225,l),
(300,150,l),
(225,150,l),
(225,225,l),
(150,225,l)
);
},
{
closed = 1;
nodes = (
(225,900,l),
(225,825,l),
(375,825,l),
(375,900,l),
(300,900,l),
(300,975,l),
(225,975,l),
(225,1050,l),
(150,1050,l),
(150,900,l)
);
}
);
width = 600;
},
{
anchors = (
{
name = bottom;
pos = (300,0);
},
{
name = center;
pos = (300,375);
},
{
name = top.case;
pos = (225,750);
}
);
layerId = m002;
shapes = (
{
closed = 1;
nodes = (
(75,750,l),
(75,675,l),
(0,675,l),
(0,75,l),
(75,75,l),
(75,0,l),
(450,0,l),
(450,75,l),
(525,75,l),
(525,675,l),
(450,675,l),
(450,750,l)
);
},
{
closed = 1;
nodes = (
(150,525,l),
(225,525,l),
(225,600,l),
(300,600,l),
(300,525,l),
(375,525,l),
(375,225,l),
(300,225,l),
(300,150,l),
(225,150,l),
(225,225,l),
(150,225,l)
);
},
{
closed = 1;
nodes = (
(225,900,l),
(225,825,l),
(375,825,l),
(375,900,l),
(300,900,l),
(300,975,l),
(225,975,l),
(225,1050,l),
(150,1050,l),
(150,900,l)
);
}
);
width = 600;
}
);
unicode = 210;
},
{
color = 6;
glyphname = Ohungarumlaut;
lastChange = "2023-12-06 14:16:46 +0000";
layers = (
{
anchors = (
{
name = bottom;
pos = (300,0);
},
{
name = center;
pos = (300,375);
},
{
name = top.case;
pos = (225,750);
}
);
layerId = m01;
shapes = (
{
closed = 1;
nodes = (
(75,750,l),
(75,675,l),
(0,675,l),
(0,75,l),
(75,75,l),
(75,0,l),
(450,0,l),
(450,75,l),
(525,75,l),
(525,675,l),
(450,675,l),
(450,750,l)
);
},
{
closed = 1;
nodes = (
(150,825,l),
(150,900,l),
(225,900,l),
(225,1050,l),
(150,1050,l),
(150,975,l),
(75,975,l),
(75,900,l),
(0,900,l),
(0,825,l)
);
},
{
closed = 1;
nodes = (
(150,525,l),
(225,525,l),
(225,600,l),
(300,600,l),
(300,525,l),
(375,525,l),
(375,225,l),
(300,225,l),
(300,150,l),
(225,150,l),
(225,225,l),
(150,225,l)
);
},
{
closed = 1;
nodes = (
(375,825,l),
(375,900,l),
(450,900,l),
(450,1050,l),
(375,1050,l),
(375,975,l),
(300,975,l),
(300,900,l),
(225,900,l),
(225,825,l)
);
}
);
width = 600;
},
{
anchors = (
{
name = bottom;
pos = (300,0);
},
{
name = center;
pos = (300,375);
},
{
name = top.case;
pos = (225,750);
}
);
layerId = m002;
shapes = (
{
closed = 1;
nodes = (
(75,750,l),
(75,675,l),
(0,675,l),
(0,75,l),
(75,75,l),
(75,0,l),
(450,0,l),
(450,75,l),
(525,75,l),
(525,675,l),
(450,675,l),
(450,750,l)
);
},
{
closed = 1;
nodes = (
(150,825,l),
(150,900,l),
(225,900,l),
(225,1050,l),
(150,1050,l),
(150,975,l),
(75,975,l),
(75,900,l),
(0,900,l),
(0,825,l)
);
},
{
closed = 1;
nodes = (
(150,525,l),
(225,525,l),
(225,600,l),
(300,600,l),
(300,525,l),
(375,525,l),
(375,225,l),
(300,225,l),
(300,150,l),
(225,150,l),
(225,225,l),
(150,225,l)
);
},
{
closed = 1;
nodes = (
(375,825,l),
(375,900,l),
(450,900,l),
(450,1050,l),
(375,1050,l),
(375,975,l),
(300,975,l),
(300,900,l),
(225,900,l),
(225,825,l)
);
}
);
width = 600;
}
);
unicode = 336;
},
{
color = 6;
glyphname = Omacron;
lastChange = "2023-12-06 14:16:46 +0000";
layers = (
{
anchors = (
{
name = bottom;
pos = (300,0);
},
{
name = center;
pos = (300,375);
},
{
name = top.case;
pos = (225,750);
}
);
layerId = m01;
shapes = (
{
closed = 1;
nodes = (
(75,750,l),
(75,675,l),
(0,675,l),
(0,75,l),
(75,75,l),
(75,0,l),
(450,0,l),
(450,75,l),
(525,75,l),
(525,675,l),
(450,675,l),
(450,750,l)
);
},
{
closed = 1;
nodes = (
(450,825,l),
(450,975,l),
(75,975,l),
(75,825,l)
);
},
{
closed = 1;
nodes = (
(150,525,l),
(225,525,l),
(225,600,l),
(300,600,l),
(300,525,l),
(375,525,l),
(375,225,l),
(300,225,l),
(300,150,l),
(225,150,l),
(225,225,l),
(150,225,l)
);
}
);
width = 600;
},
{
anchors = (
{
name = bottom;
pos = (300,0);
},
{
name = center;
pos = (300,375);
},
{
name = top.case;
pos = (225,750);
}
);
layerId = m002;
shapes = (
{
closed = 1;
nodes = (
(75,750,l),
(75,675,l),
(0,675,l),
(0,75,l),
(75,75,l),
(75,0,l),
(450,0,l),
(450,75,l),
(525,75,l),
(525,675,l),
(450,675,l),
(450,750,l)
);
},
{
closed = 1;
nodes = (
(450,825,l),
(450,975,l),
(75,975,l),
(75,825,l)
);
},
{
closed = 1;
nodes = (
(150,525,l),
(225,525,l),
(225,600,l),
(300,600,l),
(300,525,l),
(375,525,l),
(375,225,l),
(300,225,l),
(300,150,l),
(225,150,l),
(225,225,l),
(150,225,l)
);
}
);
width = 600;
}
);
unicode = 332;
},
{
color = 6;
glyphname = Oslash;
lastChange = "2023-12-06 14:16:46 +0000";
layers = (
{
layerId = m01;
shapes = (
{
closed = 1;
nodes = (
(225,750,l),
(225,675,l),
(150,675,l),
(150,300,l),
(75,300,l),
(75,225,l),
(0,225,l),
(0,150,l),
(150,150,l),
(150,75,l),
(225,75,l),
(225,0,l),
(600,0,l),
(600,75,l),
(675,75,l),
(675,450,l),
(750,450,l),
(750,525,l),
(825,525,l),
(825,600,l),
(675,600,l),
(675,675,l),
(600,675,l),
(600,750,l)
);
},
{
closed = 1;
nodes = (
(300,300,l),
(450,300,l),
(450,375,l),
(525,375,l),
(525,225,l),
(450,225,l),
(450,150,l),
(375,150,l),
(375,225,l),
(300,225,l)
);
},
{
closed = 1;
nodes = (
(300,525,l),
(375,525,l),
(375,600,l),
(450,600,l),
(450,525,l),
(525,525,l),
(525,450,l),
(375,450,l),
(375,375,l),
(300,375,l)
);
}
);
width = 900;
},
{
layerId = m002;
shapes = (
{
closed = 1;
nodes = (
(225,750,l),
(225,675,l),
(150,675,l),
(150,300,l),
(75,300,l),
(75,225,l),
(0,225,l),
(0,150,l),
(150,150,l),
(150,75,l),
(225,75,l),
(225,0,l),
(600,0,l),
(600,75,l),
(675,75,l),
(675,450,l),
(750,450,l),
(750,525,l),
(825,525,l),
(825,600,l),
(675,600,l),
(675,675,l),
(600,675,l),
(600,750,l)
);
},
{
closed = 1;
nodes = (
(300,300,l),
(450,300,l),
(450,375,l),
(525,375,l),
(525,225,l),
(450,225,l),
(450,150,l),
(375,150,l),
(375,225,l),
(300,225,l)
);
},
{
closed = 1;
nodes = (
(300,525,l),
(375,525,l),
(375,600,l),
(450,600,l),
(450,525,l),
(525,525,l),
(525,450,l),
(375,450,l),
(375,375,l),
(300,375,l)
);
}
);
width = 900;
}
);
unicode = 216;
},
{
color = 6;
glyphname = Otilde;
lastChange = "2023-12-06 14:16:46 +0000";
layers = (
{
anchors = (
{
name = bottom;
pos = (300,0);
},
{
name = center;
pos = (300,375);
},
{
name = top.case;
pos = (225,750);
}
);
layerId = m01;
shapes = (
{
closed = 1;
nodes = (
(75,750,l),
(75,675,l),
(0,675,l),
(0,75,l),
(75,75,l),
(75,0,l),
(450,0,l),
(450,75,l),
(525,75,l),
(525,675,l),
(450,675,l),
(450,750,l)
);
},
{
closed = 1;
nodes = (
(150,900,l),
(150,975,l),
(225,975,l),
(225,900,l),
(300,900,l),
(300,825,l),
(375,825,l),
(375,900,l),
(450,900,l),
(450,1050,l),
(375,1050,l),
(375,975,l),
(300,975,l),
(300,1050,l),
(225,1050,l),
(225,1125,l),
(150,1125,l),
(150,1050,l),
(75,1050,l),
(75,900,l)
);
},
{
closed = 1;
nodes = (
(150,525,l),
(225,525,l),
(225,600,l),
(300,600,l),
(300,525,l),
(375,525,l),
(375,225,l),
(300,225,l),
(300,150,l),
(225,150,l),
(225,225,l),
(150,225,l)
);
}
);
width = 600;
},
{
anchors = (
{
name = bottom;
pos = (300,0);
},
{
name = center;
pos = (300,375);
},
{
name = top.case;
pos = (225,750);
}
);
layerId = m002;
shapes = (
{
closed = 1;
nodes = (
(75,750,l),
(75,675,l),
(0,675,l),
(0,75,l),
(75,75,l),
(75,0,l),
(450,0,l),
(450,75,l),
(525,75,l),
(525,675,l),
(450,675,l),
(450,750,l)
);
},
{
closed = 1;
nodes = (
(150,900,l),
(150,975,l),
(225,975,l),
(225,900,l),
(300,900,l),
(300,825,l),
(375,825,l),
(375,900,l),
(450,900,l),
(450,1050,l),
(375,1050,l),
(375,975,l),
(300,975,l),
(300,1050,l),
(225,1050,l),
(225,1125,l),
(150,1125,l),
(150,1050,l),
(75,1050,l),
(75,900,l)
);
},
{
closed = 1;
nodes = (
(150,525,l),
(225,525,l),
(225,600,l),
(300,600,l),
(300,525,l),
(375,525,l),
(375,225,l),
(300,225,l),
(300,150,l),
(225,150,l),
(225,225,l),
(150,225,l)
);
}
);
width = 600;
}
);
unicode = 213;
},
{
color = 6;
glyphname = OE;
lastChange = "2023-12-06 14:16:46 +0000";
layers = (
{
layerId = m01;
shapes = (
{
closed = 1;
nodes = (
(75,750,l),
(75,675,l),
(0,675,l),
(0,75,l),
(75,75,l),
(75,0,l),
(750,0,l),
(750,150,l),
(525,150,l),
(525,300,l),
(675,300,l),
(675,450,l),
(525,450,l),
(525,600,l),
(750,600,l),
(750,750,l)
);
},
{
closed = 1;
nodes = (
(150,525,l),
(225,525,l),
(225,600,l),
(300,600,l),
(300,525,l),
(375,525,l),
(375,225,l),
(300,225,l),
(300,150,l),
(225,150,l),
(225,225,l),
(150,225,l)
);
}
);
width = 825;
},
{
layerId = m002;
shapes = (
{
closed = 1;
nodes = (
(75,750,l),
(75,675,l),
(0,675,l),
(0,75,l),
(75,75,l),
(75,0,l),
(750,0,l),
(750,150,l),
(525,150,l),
(525,300,l),
(675,300,l),
(675,450,l),
(525,450,l),
(525,600,l),
(750,600,l),
(750,750,l)
);
},
{
closed = 1;
nodes = (
(150,525,l),
(225,525,l),
(225,600,l),
(300,600,l),
(300,525,l),
(375,525,l),
(375,225,l),
(300,225,l),
(300,150,l),
(225,150,l),
(225,225,l),
(150,225,l)
);
}
);
width = 825;
}
);
unicode = 338;
},
{
color = 6;
glyphname = P;
lastChange = "2023-12-06 14:24:39 +0000";
layers = (
{
layerId = m01;
shapes = (
{
closed = 1;
nodes = (
(0,0,l),
(150,0,l),
(150,225,l),
(450,225,l),
(450,300,l),
(525,300,l),
(525,675,l),
(450,675,l),
(450,750,l),
(0,750,l)
);
},
{
closed = 1;
nodes = (
(150,600,l),
(375,600,l),
(375,375,l),
(150,375,l)
);
}
);
width = 600;
},
{
layerId = m002;
shapes = (
{
closed = 1;
nodes = (
(0,0,l),
(150,0,l),
(150,225,l),
(450,225,l),
(450,375,l),
(525,375,l),
(525,675,l),
(450,675,l),
(450,750,l),
(0,750,l)
);
},
{
closed = 1;
nodes = (
(150,600,l),
(375,600,l),
(375,375,l),
(150,375,l)
);
}
);
width = 600;
}
);
unicode = 80;
},
{
color = 6;
glyphname = Thorn;
lastChange = "2023-12-06 14:16:46 +0000";
layers = (
{
layerId = m01;
shapes = (
{
closed = 1;
nodes = (
(0,0,l),
(150,0,l),
(150,150,l),
(450,150,l),
(450,300,l),
(525,300,l),
(525,525,l),
(450,525,l),
(450,600,l),
(150,600,l),
(150,750,l),
(0,750,l)
);
},
{
closed = 1;
nodes = (
(150,450,l),
(375,450,l),
(375,300,l),
(150,300,l)
);
}
);
width = 600;
},
{
layerId = m002;
shapes = (
{
closed = 1;
nodes = (
(0,0,l),
(150,0,l),
(150,150,l),
(450,150,l),
(450,300,l),
(525,300,l),
(525,525,l),
(450,525,l),
(450,600,l),
(150,600,l),
(150,750,l),
(0,750,l)
);
},
{
closed = 1;
nodes = (
(150,450,l),
(375,450,l),
(375,300,l),
(150,300,l)
);
}
);
width = 600;
}
);
unicode = 222;
},
{
color = 6;
glyphname = Q;
lastChange = "2023-12-06 14:16:46 +0000";
layers = (
{
layerId = m01;
shapes = (
{
closed = 1;
nodes = (
(75,750,l),
(75,675,l),
(0,675,l),
(0,75,l),
(75,75,l),
(75,0,l),
(225,0,l),
(225,-75,l),
(300,-75,l),
(300,-150,l),
(525,-150,l),
(525,0,l),
(375,0,l),
(375,75,l),
(525,75,l),
(525,675,l),
(450,675,l),
(450,750,l)
);
},
{
closed = 1;
nodes = (
(150,525,l),
(225,525,l),
(225,600,l),
(300,600,l),
(300,525,l),
(375,525,l),
(375,225,l),
(300,225,l),
(300,150,l),
(225,150,l),
(225,225,l),
(150,225,l)
);
}
);
width = 600;
},
{
layerId = m002;
shapes = (
{
closed = 1;
nodes = (
(75,750,l),
(75,675,l),
(0,675,l),
(0,75,l),
(75,75,l),
(75,0,l),
(225,0,l),
(225,-75,l),
(300,-75,l),
(300,-150,l),
(525,-150,l),
(525,0,l),
(375,0,l),
(375,75,l),
(525,75,l),
(525,675,l),
(450,675,l),
(450,750,l)
);
},
{
closed = 1;
nodes = (
(150,525,l),
(225,525,l),
(225,600,l),
(300,600,l),
(300,525,l),
(375,525,l),
(375,225,l),
(300,225,l),
(300,150,l),
(225,150,l),
(225,225,l),
(150,225,l)
);
}
);
width = 600;
}
);
unicode = 81;
},
{
color = 6;
glyphname = R;
lastChange = "2023-12-06 14:16:46 +0000";
layers = (
{
anchors = (
{
name = bottom;
pos = (225,0);
},
{
name = top.case;
pos = (225,750);
}
);
layerId = m01;
shapes = (
{
closed = 1;
nodes = (
(150,600,l),
(375,600,l),
(375,375,l),
(150,375,l)
);
},
{
closed = 1;
nodes = (
(150,0,l),
(150,225,l),
(375,225,l),
(375,0,l),
(525,0,l),
(525,300,l),
(450,300,l),
(450,375,l),
(525,375,l),
(525,675,l),
(450,675,l),
(450,750,l),
(0,750,l),
(0,0,l)
);
}
);
width = 600;
},
{
anchors = (
{
name = bottom;
pos = (225,0);
},
{
name = top.case;
pos = (225,750);
}
);
layerId = m002;
shapes = (
{
closed = 1;
nodes = (
(150,600,l),
(375,600,l),
(375,375,l),
(150,375,l)
);
},
{
closed = 1;
nodes = (
(150,0,l),
(150,225,l),
(375,225,l),
(375,0,l),
(525,0,l),
(525,300,l),
(450,300,l),
(450,375,l),
(525,375,l),
(525,675,l),
(450,675,l),
(450,750,l),
(0,750,l),
(0,0,l)
);
}
);
width = 600;
}
);
unicode = 82;
},
{
color = 6;
glyphname = Racute;
lastChange = "2023-12-06 14:16:46 +0000";
layers = (
{
anchors = (
{
name = bottom;
pos = (225,0);
},
{
name = top.case;
pos = (225,750);
}
);
layerId = m01;
shapes = (
{
closed = 1;
nodes = (
(150,600,l),
(375,600,l),
(375,375,l),
(150,375,l)
);
},
{
closed = 1;
nodes = (
(150,0,l),
(150,225,l),
(375,225,l),
(375,0,l),
(525,0,l),
(525,300,l),
(450,300,l),
(450,375,l),
(525,375,l),
(525,675,l),
(450,675,l),
(450,750,l),
(0,750,l),
(0,0,l)
);
},
{
closed = 1;
nodes = (
(300,825,l),
(300,900,l),
(375,900,l),
(375,1050,l),
(300,1050,l),
(300,975,l),
(225,975,l),
(225,825,l)
);
}
);
width = 600;
},
{
anchors = (
{
name = bottom;
pos = (225,0);
},
{
name = top.case;
pos = (225,750);
}
);
layerId = m002;
shapes = (
{
closed = 1;
nodes = (
(150,600,l),
(375,600,l),
(375,375,l),
(150,375,l)
);
},
{
closed = 1;
nodes = (
(150,0,l),
(150,225,l),
(375,225,l),
(375,0,l),
(525,0,l),
(525,300,l),
(450,300,l),
(450,375,l),
(525,375,l),
(525,675,l),
(450,675,l),
(450,750,l),
(0,750,l),
(0,0,l)
);
},
{
closed = 1;
nodes = (
(300,825,l),
(300,900,l),
(375,900,l),
(375,1050,l),
(300,1050,l),
(300,975,l),
(225,975,l),
(225,825,l)
);
}
);
width = 600;
}
);
unicode = 340;
},
{
color = 6;
glyphname = Rcaron;
lastChange = "2023-12-06 14:16:46 +0000";
layers = (
{
anchors = (
{
name = bottom;
pos = (225,0);
},
{
name = top.case;
pos = (225,750);
}
);
layerId = m01;
shapes = (
{
closed = 1;
nodes = (
(150,600,l),
(375,600,l),
(375,375,l),
(150,375,l)
);
},
{
closed = 1;
nodes = (
(150,0,l),
(150,225,l),
(375,225,l),
(375,0,l),
(525,0,l),
(525,300,l),
(450,300,l),
(450,375,l),
(525,375,l),
(525,675,l),
(450,675,l),
(450,750,l),
(0,750,l),
(0,0,l)
);
},
{
closed = 1;
nodes = (
(150,975,l),
(150,900,l),
(225,900,l),
(225,825,l),
(300,825,l),
(300,900,l),
(375,900,l),
(375,975,l),
(450,975,l),
(450,1050,l),
(300,1050,l),
(300,975,l),
(225,975,l),
(225,1050,l),
(75,1050,l),
(75,975,l)
);
}
);
width = 600;
},
{
anchors = (
{
name = bottom;
pos = (225,0);
},
{
name = top.case;
pos = (225,750);
}
);
layerId = m002;
shapes = (
{
closed = 1;
nodes = (
(150,600,l),
(375,600,l),
(375,375,l),
(150,375,l)
);
},
{
closed = 1;
nodes = (
(150,0,l),
(150,225,l),
(375,225,l),
(375,0,l),
(525,0,l),
(525,300,l),
(450,300,l),
(450,375,l),
(525,375,l),
(525,675,l),
(450,675,l),
(450,750,l),
(0,750,l),
(0,0,l)
);
},
{
closed = 1;
nodes = (
(150,975,l),
(150,900,l),
(225,900,l),
(225,825,l),
(300,825,l),
(300,900,l),
(375,900,l),
(375,975,l),
(450,975,l),
(450,1050,l),
(300,1050,l),
(300,975,l),
(225,975,l),
(225,1050,l),
(75,1050,l),
(75,975,l)
);
}
);
width = 600;
}
);
unicode = 344;
},
{
color = 6;
glyphname = Rcommaaccent;
lastChange = "2023-12-06 14:16:46 +0000";
layers = (
{
anchors = (
{
name = bottom;
pos = (225,0);
},
{
name = top.case;
pos = (225,750);
}
);
layerId = m01;
shapes = (
{
closed = 1;
nodes = (
(150,600,l),
(375,600,l),
(375,375,l),
(150,375,l)
);
},
{
closed = 1;
nodes = (
(150,0,l),
(150,225,l),
(375,225,l),
(375,0,l),
(525,0,l),
(525,300,l),
(450,300,l),
(450,375,l),
(525,375,l),
(525,675,l),
(450,675,l),
(450,750,l),
(0,750,l),
(0,0,l)
);
},
{
closed = 1;
nodes = (
(225,-375,l),
(225,-300,l),
(150,-300,l),
(150,-375,l)
);
},
{
closed = 1;
nodes = (
(225,-225,l),
(225,-300,l),
(300,-300,l),
(300,-75,l),
(150,-75,l),
(150,-225,l)
);
}
);
width = 600;
},
{
anchors = (
{
name = bottom;
pos = (225,0);
},
{
name = top.case;
pos = (225,750);
}
);
layerId = m002;
shapes = (
{
closed = 1;
nodes = (
(150,600,l),
(375,600,l),
(375,375,l),
(150,375,l)
);
},
{
closed = 1;
nodes = (
(150,0,l),
(150,225,l),
(375,225,l),
(375,0,l),
(525,0,l),
(525,300,l),
(450,300,l),
(450,375,l),
(525,375,l),
(525,675,l),
(450,675,l),
(450,750,l),
(0,750,l),
(0,0,l)
);
},
{
closed = 1;
nodes = (
(225,-375,l),
(225,-300,l),
(150,-300,l),
(150,-375,l)
);
},
{
closed = 1;
nodes = (
(225,-225,l),
(225,-300,l),
(300,-300,l),
(300,-75,l),
(150,-75,l),
(150,-225,l)
);
}
);
width = 600;
}
);
unicode = 342;
},
{
color = 6;
glyphname = S;
lastChange = "2023-12-06 14:16:46 +0000";
layers = (
{
anchors = (
{
name = bottom;
pos = (300,0);
},
{
name = top.case;
pos = (225,750);
}
);
layerId = m01;
shapes = (
{
closed = 1;
nodes = (
(375,525,l),
(525,525,l),
(525,675,l),
(450,675,l),
(450,750,l),
(75,750,l),
(75,675,l),
(0,675,l),
(0,375,l),
(75,375,l),
(75,300,l),
(375,300,l),
(375,150,l),
(150,150,l),
(150,225,l),
(0,225,l),
(0,75,l),
(75,75,l),
(75,0,l),
(450,0,l),
(450,75,l),
(525,75,l),
(525,375,l),
(450,375,l),
(450,450,l),
(150,450,l),
(150,600,l),
(375,600,l)
);
}
);
width = 600;
},
{
anchors = (
{
name = bottom;
pos = (300,0);
},
{
name = top.case;
pos = (225,750);
}
);
layerId = m002;
shapes = (
{
closed = 1;
nodes = (
(375,525,l),
(525,525,l),
(525,675,l),
(450,675,l),
(450,750,l),
(75,750,l),
(75,675,l),
(0,675,l),
(0,375,l),
(75,375,l),
(75,300,l),
(375,300,l),
(375,150,l),
(150,150,l),
(150,225,l),
(0,225,l),
(0,75,l),
(75,75,l),
(75,0,l),
(450,0,l),
(450,75,l),
(525,75,l),
(525,375,l),
(450,375,l),
(450,450,l),
(150,450,l),
(150,600,l),
(375,600,l)
);
}
);
width = 600;
}
);
unicode = 83;
},
{
color = 6;
glyphname = Sacute;
lastChange = "2023-12-06 14:16:46 +0000";
layers = (
{
anchors = (
{
name = bottom;
pos = (300,0);
},
{
name = top.case;
pos = (225,750);
}
);
layerId = m01;
shapes = (
{
closed = 1;
nodes = (
(375,525,l),
(525,525,l),
(525,675,l),
(450,675,l),
(450,750,l),
(75,750,l),
(75,675,l),
(0,675,l),
(0,375,l),
(75,375,l),
(75,300,l),
(375,300,l),
(375,150,l),
(150,150,l),
(150,225,l),
(0,225,l),
(0,75,l),
(75,75,l),
(75,0,l),
(450,0,l),
(450,75,l),
(525,75,l),
(525,375,l),
(450,375,l),
(450,450,l),
(150,450,l),
(150,600,l),
(375,600,l)
);
},
{
closed = 1;
nodes = (
(300,825,l),
(300,900,l),
(375,900,l),
(375,1050,l),
(300,1050,l),
(300,975,l),
(225,975,l),
(225,825,l)
);
}
);
width = 600;
},
{
anchors = (
{
name = bottom;
pos = (300,0);
},
{
name = top.case;
pos = (225,750);
}
);
layerId = m002;
shapes = (
{
closed = 1;
nodes = (
(375,525,l),
(525,525,l),
(525,675,l),
(450,675,l),
(450,750,l),
(75,750,l),
(75,675,l),
(0,675,l),
(0,375,l),
(75,375,l),
(75,300,l),
(375,300,l),
(375,150,l),
(150,150,l),
(150,225,l),
(0,225,l),
(0,75,l),
(75,75,l),
(75,0,l),
(450,0,l),
(450,75,l),
(525,75,l),
(525,375,l),
(450,375,l),
(450,450,l),
(150,450,l),
(150,600,l),
(375,600,l)
);
},
{
closed = 1;
nodes = (
(300,825,l),
(300,900,l),
(375,900,l),
(375,1050,l),
(300,1050,l),
(300,975,l),
(225,975,l),
(225,825,l)
);
}
);
width = 600;
}
);
unicode = 346;
},
{
color = 6;
glyphname = Scaron;
lastChange = "2023-12-06 14:16:46 +0000";
layers = (
{
anchors = (
{
name = bottom;
pos = (300,0);
},
{
name = top.case;
pos = (225,750);
}
);
layerId = m01;
shapes = (
{
closed = 1;
nodes = (
(375,525,l),
(525,525,l),
(525,675,l),
(450,675,l),
(450,750,l),
(75,750,l),
(75,675,l),
(0,675,l),
(0,375,l),
(75,375,l),
(75,300,l),
(375,300,l),
(375,150,l),
(150,150,l),
(150,225,l),
(0,225,l),
(0,75,l),
(75,75,l),
(75,0,l),
(450,0,l),
(450,75,l),
(525,75,l),
(525,375,l),
(450,375,l),
(450,450,l),
(150,450,l),
(150,600,l),
(375,600,l)
);
},
{
closed = 1;
nodes = (
(150,975,l),
(150,900,l),
(225,900,l),
(225,825,l),
(300,825,l),
(300,900,l),
(375,900,l),
(375,975,l),
(450,975,l),
(450,1050,l),
(300,1050,l),
(300,975,l),
(225,975,l),
(225,1050,l),
(75,1050,l),
(75,975,l)
);
}
);
width = 600;
},
{
anchors = (
{
name = bottom;
pos = (300,0);
},
{
name = top.case;
pos = (225,750);
}
);
layerId = m002;
shapes = (
{
closed = 1;
nodes = (
(375,525,l),
(525,525,l),
(525,675,l),
(450,675,l),
(450,750,l),
(75,750,l),
(75,675,l),
(0,675,l),
(0,375,l),
(75,375,l),
(75,300,l),
(375,300,l),
(375,150,l),
(150,150,l),
(150,225,l),
(0,225,l),
(0,75,l),
(75,75,l),
(75,0,l),
(450,0,l),
(450,75,l),
(525,75,l),
(525,375,l),
(450,375,l),
(450,450,l),
(150,450,l),
(150,600,l),
(375,600,l)
);
},
{
closed = 1;
nodes = (
(150,975,l),
(150,900,l),
(225,900,l),
(225,825,l),
(300,825,l),
(300,900,l),
(375,900,l),
(375,975,l),
(450,975,l),
(450,1050,l),
(300,1050,l),
(300,975,l),
(225,975,l),
(225,1050,l),
(75,1050,l),
(75,975,l)
);
}
);
width = 600;
}
);
unicode = 352;
},
{
color = 6;
glyphname = Scedilla;
lastChange = "2023-12-06 14:16:46 +0000";
layers = (
{
anchors = (
{
name = bottom;
pos = (300,0);
},
{
name = top.case;
pos = (225,750);
}
);
layerId = m01;
shapes = (
{
closed = 1;
nodes = (
(375,525,l),
(525,525,l),
(525,675,l),
(450,675,l),
(450,750,l),
(75,750,l),
(75,675,l),
(0,675,l),
(0,375,l),
(75,375,l),
(75,300,l),
(375,300,l),
(375,150,l),
(150,150,l),
(150,225,l),
(0,225,l),
(0,75,l),
(75,75,l),
(75,0,l),
(225,0,l),
(225,-75,l),
(300,-75,l),
(300,0,l),
(450,0,l),
(450,75,l),
(525,75,l),
(525,375,l),
(450,375,l),
(450,450,l),
(150,450,l),
(150,600,l),
(375,600,l)
);
},
{
closed = 1;
nodes = (
(375,-300,l),
(375,-75,l),
(300,-75,l),
(300,-150,l),
(225,-150,l),
(225,-300,l)
);
}
);
width = 600;
},
{
anchors = (
{
name = bottom;
pos = (300,0);
},
{
name = top.case;
pos = (225,750);
}
);
layerId = m002;
shapes = (
{
closed = 1;
nodes = (
(375,525,l),
(525,525,l),
(525,675,l),
(450,675,l),
(450,750,l),
(75,750,l),
(75,675,l),
(0,675,l),
(0,375,l),
(75,375,l),
(75,300,l),
(375,300,l),
(375,150,l),
(150,150,l),
(150,225,l),
(0,225,l),
(0,75,l),
(75,75,l),
(75,0,l),
(225,0,l),
(225,-75,l),
(300,-75,l),
(300,0,l),
(450,0,l),
(450,75,l),
(525,75,l),
(525,375,l),
(450,375,l),
(450,450,l),
(150,450,l),
(150,600,l),
(375,600,l)
);
},
{
closed = 1;
nodes = (
(375,-300,l),
(375,-75,l),
(300,-75,l),
(300,-150,l),
(225,-150,l),
(225,-300,l)
);
}
);
width = 600;
}
);
unicode = 350;
},
{
color = 6;
glyphname = Scommaaccent;
lastChange = "2023-12-06 14:16:46 +0000";
layers = (
{
anchors = (
{
name = bottom;
pos = (300,0);
},
{
name = top.case;
pos = (225,750);
}
);
layerId = m01;
shapes = (
{
closed = 1;
nodes = (
(375,525,l),
(525,525,l),
(525,675,l),
(450,675,l),
(450,750,l),
(75,750,l),
(75,675,l),
(0,675,l),
(0,375,l),
(75,375,l),
(75,300,l),
(375,300,l),
(375,150,l),
(150,150,l),
(150,225,l),
(0,225,l),
(0,75,l),
(75,75,l),
(75,0,l),
(450,0,l),
(450,75,l),
(525,75,l),
(525,375,l),
(450,375,l),
(450,450,l),
(150,450,l),
(150,600,l),
(375,600,l)
);
},
{
closed = 1;
nodes = (
(300,-375,l),
(300,-300,l),
(225,-300,l),
(225,-375,l)
);
},
{
closed = 1;
nodes = (
(300,-225,l),
(300,-300,l),
(375,-300,l),
(375,-75,l),
(225,-75,l),
(225,-225,l)
);
}
);
width = 600;
},
{
anchors = (
{
name = bottom;
pos = (300,0);
},
{
name = top.case;
pos = (225,750);
}
);
layerId = m002;
shapes = (
{
closed = 1;
nodes = (
(375,525,l),
(525,525,l),
(525,675,l),
(450,675,l),
(450,750,l),
(75,750,l),
(75,675,l),
(0,675,l),
(0,375,l),
(75,375,l),
(75,300,l),
(375,300,l),
(375,150,l),
(150,150,l),
(150,225,l),
(0,225,l),
(0,75,l),
(75,75,l),
(75,0,l),
(450,0,l),
(450,75,l),
(525,75,l),
(525,375,l),
(450,375,l),
(450,450,l),
(150,450,l),
(150,600,l),
(375,600,l)
);
},
{
closed = 1;
nodes = (
(300,-375,l),
(300,-300,l),
(225,-300,l),
(225,-375,l)
);
},
{
closed = 1;
nodes = (
(300,-225,l),
(300,-300,l),
(375,-300,l),
(375,-75,l),
(225,-75,l),
(225,-225,l)
);
}
);
width = 600;
}
);
unicode = 536;
},
{
color = 6;
glyphname = Germandbls;
lastChange = "2023-12-06 14:16:46 +0000";
layers = (
{
layerId = m01;
shapes = (
{
closed = 1;
nodes = (
(0,0,l),
(150,0,l),
(150,600,l),
(300,600,l),
(300,525,l),
(225,525,l),
(225,300,l),
(375,300,l),
(375,150,l),
(225,150,l),
(225,0,l),
(450,0,l),
(450,75,l),
(525,75,l),
(525,375,l),
(450,375,l),
(450,450,l),
(375,450,l),
(375,525,l),
(450,525,l),
(450,600,l),
(525,600,l),
(525,750,l),
(0,750,l)
);
}
);
width = 600;
},
{
layerId = m002;
shapes = (
{
closed = 1;
nodes = (
(0,0,l),
(150,0,l),
(150,600,l),
(300,600,l),
(300,525,l),
(225,525,l),
(225,300,l),
(375,300,l),
(375,150,l),
(225,150,l),
(225,0,l),
(450,0,l),
(450,75,l),
(525,75,l),
(525,375,l),
(450,375,l),
(450,450,l),
(375,450,l),
(375,525,l),
(450,525,l),
(450,600,l),
(525,600,l),
(525,750,l),
(0,750,l)
);
}
);
width = 600;
}
);
unicode = 7838;
},
{
color = 6;
glyphname = T;
lastChange = "2023-12-06 14:16:46 +0000";
layers = (
{
anchors = (
{
name = bottom;
pos = (225,0);
},
{
name = top.case;
pos = (225,750);
}
);
layerId = m01;
shapes = (
{
closed = 1;
nodes = (
(0,600,l),
(150,600,l),
(150,0,l),
(300,0,l),
(300,600,l),
(450,600,l),
(450,750,l),
(0,750,l)
);
}
);
width = 525;
},
{
anchors = (
{
name = bottom;
pos = (225,0);
},
{
name = top.case;
pos = (225,750);
}
);
layerId = m002;
shapes = (
{
closed = 1;
nodes = (
(0,600,l),
(150,600,l),
(150,0,l),
(300,0,l),
(300,600,l),
(450,600,l),
(450,750,l),
(0,750,l)
);
}
);
width = 525;
}
);
unicode = 84;
},
{
color = 6;
glyphname = Tcaron;
lastChange = "2023-12-06 14:16:46 +0000";
layers = (
{
anchors = (
{
name = bottom;
pos = (225,0);
},
{
name = top.case;
pos = (225,750);
}
);
layerId = m01;
shapes = (
{
closed = 1;
nodes = (
(0,600,l),
(150,600,l),
(150,0,l),
(300,0,l),
(300,600,l),
(450,600,l),
(450,750,l),
(0,750,l)
);
},
{
closed = 1;
nodes = (
(150,975,l),
(150,900,l),
(225,900,l),
(225,825,l),
(300,825,l),
(300,900,l),
(375,900,l),
(375,975,l),
(450,975,l),
(450,1050,l),
(300,1050,l),
(300,975,l),
(225,975,l),
(225,1050,l),
(75,1050,l),
(75,975,l)
);
}
);
width = 525;
},
{
anchors = (
{
name = bottom;
pos = (225,0);
},
{
name = top.case;
pos = (225,750);
}
);
layerId = m002;
shapes = (
{
closed = 1;
nodes = (
(0,600,l),
(150,600,l),
(150,0,l),
(300,0,l),
(300,600,l),
(450,600,l),
(450,750,l),
(0,750,l)
);
},
{
closed = 1;
nodes = (
(150,975,l),
(150,900,l),
(225,900,l),
(225,825,l),
(300,825,l),
(300,900,l),
(375,900,l),
(375,975,l),
(450,975,l),
(450,1050,l),
(300,1050,l),
(300,975,l),
(225,975,l),
(225,1050,l),
(75,1050,l),
(75,975,l)
);
}
);
width = 525;
}
);
unicode = 356;
},
{
color = 6;
glyphname = Tcommaaccent;
lastChange = "2023-12-06 14:16:46 +0000";
layers = (
{
anchors = (
{
name = bottom;
pos = (225,0);
},
{
name = top.case;
pos = (225,750);
}
);
layerId = m01;
shapes = (
{
closed = 1;
nodes = (
(0,600,l),
(150,600,l),
(150,0,l),
(300,0,l),
(300,600,l),
(450,600,l),
(450,750,l),
(0,750,l)
);
},
{
closed = 1;
nodes = (
(225,-375,l),
(225,-300,l),
(150,-300,l),
(150,-375,l)
);
},
{
closed = 1;
nodes = (
(225,-225,l),
(225,-300,l),
(300,-300,l),
(300,-75,l),
(150,-75,l),
(150,-225,l)
);
}
);
width = 525;
},
{
anchors = (
{
name = bottom;
pos = (225,0);
},
{
name = top.case;
pos = (225,750);
}
);
layerId = m002;
shapes = (
{
closed = 1;
nodes = (
(0,600,l),
(150,600,l),
(150,0,l),
(300,0,l),
(300,600,l),
(450,600,l),
(450,750,l),
(0,750,l)
);
},
{
closed = 1;
nodes = (
(225,-375,l),
(225,-300,l),
(150,-300,l),
(150,-375,l)
);
},
{
closed = 1;
nodes = (
(225,-225,l),
(225,-300,l),
(300,-300,l),
(300,-75,l),
(150,-75,l),
(150,-225,l)
);
}
);
width = 525;
}
);
unicode = 538;
},
{
color = 6;
glyphname = U;
lastChange = "2023-12-06 14:16:46 +0000";
layers = (
{
anchors = (
{
name = bottom;
pos = (300,0);
},
{
name = top.case;
pos = (225,750);
}
);
layerId = m01;
shapes = (
{
closed = 1;
nodes = (
(375,225,l),
(300,225,l),
(300,150,l),
(225,150,l),
(225,225,l),
(150,225,l),
(150,750,l),
(0,750,l),
(0,75,l),
(75,75,l),
(75,0,l),
(450,0,l),
(450,75,l),
(525,75,l),
(525,750,l),
(375,750,l)
);
}
);
width = 600;
},
{
anchors = (
{
name = bottom;
pos = (300,0);
},
{
name = top.case;
pos = (225,750);
}
);
layerId = m002;
shapes = (
{
closed = 1;
nodes = (
(375,225,l),
(300,225,l),
(300,150,l),
(225,150,l),
(225,225,l),
(150,225,l),
(150,750,l),
(0,750,l),
(0,75,l),
(75,75,l),
(75,0,l),
(450,0,l),
(450,75,l),
(525,75,l),
(525,750,l),
(375,750,l)
);
}
);
width = 600;
}
);
unicode = 85;
},
{
color = 6;
glyphname = Uacute;
lastChange = "2023-12-06 14:16:46 +0000";
layers = (
{
anchors = (
{
name = bottom;
pos = (300,0);
},
{
name = top.case;
pos = (225,750);
}
);
layerId = m01;
shapes = (
{
closed = 1;
nodes = (
(375,225,l),
(300,225,l),
(300,150,l),
(225,150,l),
(225,225,l),
(150,225,l),
(150,750,l),
(0,750,l),
(0,75,l),
(75,75,l),
(75,0,l),
(450,0,l),
(450,75,l),
(525,75,l),
(525,750,l),
(375,750,l)
);
},
{
closed = 1;
nodes = (
(300,825,l),
(300,900,l),
(375,900,l),
(375,1050,l),
(300,1050,l),
(300,975,l),
(225,975,l),
(225,825,l)
);
}
);
width = 600;
},
{
anchors = (
{
name = bottom;
pos = (300,0);
},
{
name = top.case;
pos = (225,750);
}
);
layerId = m002;
shapes = (
{
closed = 1;
nodes = (
(375,225,l),
(300,225,l),
(300,150,l),
(225,150,l),
(225,225,l),
(150,225,l),
(150,750,l),
(0,750,l),
(0,75,l),
(75,75,l),
(75,0,l),
(450,0,l),
(450,75,l),
(525,75,l),
(525,750,l),
(375,750,l)
);
},
{
closed = 1;
nodes = (
(300,825,l),
(300,900,l),
(375,900,l),
(375,1050,l),
(300,1050,l),
(300,975,l),
(225,975,l),
(225,825,l)
);
}
);
width = 600;
}
);
unicode = 218;
},
{
color = 6;
glyphname = Ubreve;
lastChange = "2023-12-06 14:16:46 +0000";
layers = (
{
anchors = (
{
name = bottom;
pos = (300,0);
},
{
name = top.case;
pos = (225,750);
}
);
layerId = m01;
shapes = (
{
closed = 1;
nodes = (
(375,225,l),
(300,225,l),
(300,150,l),
(225,150,l),
(225,225,l),
(150,225,l),
(150,750,l),
(0,750,l),
(0,75,l),
(75,75,l),
(75,0,l),
(450,0,l),
(450,75,l),
(525,75,l),
(525,750,l),
(375,750,l)
);
},
{
closed = 1;
nodes = (
(150,900,l),
(150,825,l),
(375,825,l),
(375,900,l),
(450,900,l),
(450,1050,l),
(375,1050,l),
(375,975,l),
(150,975,l),
(150,1050,l),
(75,1050,l),
(75,900,l)
);
}
);
width = 600;
},
{
anchors = (
{
name = bottom;
pos = (300,0);
},
{
name = top.case;
pos = (225,750);
}
);
layerId = m002;
shapes = (
{
closed = 1;
nodes = (
(375,225,l),
(300,225,l),
(300,150,l),
(225,150,l),
(225,225,l),
(150,225,l),
(150,750,l),
(0,750,l),
(0,75,l),
(75,75,l),
(75,0,l),
(450,0,l),
(450,75,l),
(525,75,l),
(525,750,l),
(375,750,l)
);
},
{
closed = 1;
nodes = (
(150,900,l),
(150,825,l),
(375,825,l),
(375,900,l),
(450,900,l),
(450,1050,l),
(375,1050,l),
(375,975,l),
(150,975,l),
(150,1050,l),
(75,1050,l),
(75,900,l)
);
}
);
width = 600;
}
);
unicode = 364;
},
{
color = 6;
glyphname = Ucircumflex;
lastChange = "2023-12-06 14:16:46 +0000";
layers = (
{
anchors = (
{
name = bottom;
pos = (300,0);
},
{
name = top.case;
pos = (225,750);
}
);
layerId = m01;
shapes = (
{
closed = 1;
nodes = (
(375,225,l),
(300,225,l),
(300,150,l),
(225,150,l),
(225,225,l),
(150,225,l),
(150,750,l),
(0,750,l),
(0,75,l),
(75,75,l),
(75,0,l),
(450,0,l),
(450,75,l),
(525,75,l),
(525,750,l),
(375,750,l)
);
},
{
closed = 1;
nodes = (
(225,825,l),
(225,900,l),
(300,900,l),
(300,825,l),
(450,825,l),
(450,900,l),
(375,900,l),
(375,975,l),
(300,975,l),
(300,1050,l),
(225,1050,l),
(225,975,l),
(150,975,l),
(150,900,l),
(75,900,l),
(75,825,l)
);
}
);
width = 600;
},
{
anchors = (
{
name = bottom;
pos = (300,0);
},
{
name = top.case;
pos = (225,750);
}
);
layerId = m002;
shapes = (
{
closed = 1;
nodes = (
(375,225,l),
(300,225,l),
(300,150,l),
(225,150,l),
(225,225,l),
(150,225,l),
(150,750,l),
(0,750,l),
(0,75,l),
(75,75,l),
(75,0,l),
(450,0,l),
(450,75,l),
(525,75,l),
(525,750,l),
(375,750,l)
);
},
{
closed = 1;
nodes = (
(225,825,l),
(225,900,l),
(300,900,l),
(300,825,l),
(450,825,l),
(450,900,l),
(375,900,l),
(375,975,l),
(300,975,l),
(300,1050,l),
(225,1050,l),
(225,975,l),
(150,975,l),
(150,900,l),
(75,900,l),
(75,825,l)
);
}
);
width = 600;
}
);
unicode = 219;
},
{
color = 6;
glyphname = Udieresis;
lastChange = "2023-12-06 14:16:46 +0000";
layers = (
{
anchors = (
{
name = bottom;
pos = (300,0);
},
{
name = top.case;
pos = (225,750);
}
);
layerId = m01;
shapes = (
{
closed = 1;
nodes = (
(375,225,l),
(300,225,l),
(300,150,l),
(225,150,l),
(225,225,l),
(150,225,l),
(150,750,l),
(0,750,l),
(0,75,l),
(75,75,l),
(75,0,l),
(450,0,l),
(450,75,l),
(525,75,l),
(525,750,l),
(375,750,l)
);
},
{
closed = 1;
nodes = (
(225,825,l),
(225,975,l),
(75,975,l),
(75,825,l)
);
},
{
closed = 1;
nodes = (
(450,825,l),
(450,975,l),
(300,975,l),
(300,825,l)
);
}
);
width = 600;
},
{
anchors = (
{
name = bottom;
pos = (300,0);
},
{
name = top.case;
pos = (225,750);
}
);
layerId = m002;
shapes = (
{
closed = 1;
nodes = (
(375,225,l),
(300,225,l),
(300,150,l),
(225,150,l),
(225,225,l),
(150,225,l),
(150,750,l),
(0,750,l),
(0,75,l),
(75,75,l),
(75,0,l),
(450,0,l),
(450,75,l),
(525,75,l),
(525,750,l),
(375,750,l)
);
},
{
closed = 1;
nodes = (
(225,825,l),
(225,975,l),
(75,975,l),
(75,825,l)
);
},
{
closed = 1;
nodes = (
(450,825,l),
(450,975,l),
(300,975,l),
(300,825,l)
);
}
);
width = 600;
}
);
unicode = 220;
},
{
color = 6;
glyphname = Ugrave;
lastChange = "2023-12-06 14:16:46 +0000";
layers = (
{
anchors = (
{
name = bottom;
pos = (300,0);
},
{
name = top.case;
pos = (225,750);
}
);
layerId = m01;
shapes = (
{
closed = 1;
nodes = (
(375,225,l),
(300,225,l),
(300,150,l),
(225,150,l),
(225,225,l),
(150,225,l),
(150,750,l),
(0,750,l),
(0,75,l),
(75,75,l),
(75,0,l),
(450,0,l),
(450,75,l),
(525,75,l),
(525,750,l),
(375,750,l)
);
},
{
closed = 1;
nodes = (
(225,900,l),
(225,825,l),
(375,825,l),
(375,900,l),
(300,900,l),
(300,975,l),
(225,975,l),
(225,1050,l),
(150,1050,l),
(150,900,l)
);
}
);
width = 600;
},
{
anchors = (
{
name = bottom;
pos = (300,0);
},
{
name = top.case;
pos = (225,750);
}
);
layerId = m002;
shapes = (
{
closed = 1;
nodes = (
(375,225,l),
(300,225,l),
(300,150,l),
(225,150,l),
(225,225,l),
(150,225,l),
(150,750,l),
(0,750,l),
(0,75,l),
(75,75,l),
(75,0,l),
(450,0,l),
(450,75,l),
(525,75,l),
(525,750,l),
(375,750,l)
);
},
{
closed = 1;
nodes = (
(225,900,l),
(225,825,l),
(375,825,l),
(375,900,l),
(300,900,l),
(300,975,l),
(225,975,l),
(225,1050,l),
(150,1050,l),
(150,900,l)
);
}
);
width = 600;
}
);
unicode = 217;
},
{
color = 6;
glyphname = Uhungarumlaut;
lastChange = "2023-12-06 14:16:46 +0000";
layers = (
{
anchors = (
{
name = bottom;
pos = (300,0);
},
{
name = top.case;
pos = (225,750);
}
);
layerId = m01;
shapes = (
{
closed = 1;
nodes = (
(375,225,l),
(300,225,l),
(300,150,l),
(225,150,l),
(225,225,l),
(150,225,l),
(150,750,l),
(0,750,l),
(0,75,l),
(75,75,l),
(75,0,l),
(450,0,l),
(450,75,l),
(525,75,l),
(525,750,l),
(375,750,l)
);
},
{
closed = 1;
nodes = (
(150,825,l),
(150,900,l),
(225,900,l),
(225,1050,l),
(150,1050,l),
(150,975,l),
(75,975,l),
(75,900,l),
(0,900,l),
(0,825,l)
);
},
{
closed = 1;
nodes = (
(375,825,l),
(375,900,l),
(450,900,l),
(450,1050,l),
(375,1050,l),
(375,975,l),
(300,975,l),
(300,900,l),
(225,900,l),
(225,825,l)
);
}
);
width = 600;
},
{
anchors = (
{
name = bottom;
pos = (300,0);
},
{
name = top.case;
pos = (225,750);
}
);
layerId = m002;
shapes = (
{
closed = 1;
nodes = (
(375,225,l),
(300,225,l),
(300,150,l),
(225,150,l),
(225,225,l),
(150,225,l),
(150,750,l),
(0,750,l),
(0,75,l),
(75,75,l),
(75,0,l),
(450,0,l),
(450,75,l),
(525,75,l),
(525,750,l),
(375,750,l)
);
},
{
closed = 1;
nodes = (
(150,825,l),
(150,900,l),
(225,900,l),
(225,1050,l),
(150,1050,l),
(150,975,l),
(75,975,l),
(75,900,l),
(0,900,l),
(0,825,l)
);
},
{
closed = 1;
nodes = (
(375,825,l),
(375,900,l),
(450,900,l),
(450,1050,l),
(375,1050,l),
(375,975,l),
(300,975,l),
(300,900,l),
(225,900,l),
(225,825,l)
);
}
);
width = 600;
}
);
unicode = 368;
},
{
color = 6;
glyphname = Umacron;
lastChange = "2023-12-06 14:16:46 +0000";
layers = (
{
anchors = (
{
name = bottom;
pos = (300,0);
},
{
name = top.case;
pos = (225,750);
}
);
layerId = m01;
shapes = (
{
closed = 1;
nodes = (
(375,225,l),
(300,225,l),
(300,150,l),
(225,150,l),
(225,225,l),
(150,225,l),
(150,750,l),
(0,750,l),
(0,75,l),
(75,75,l),
(75,0,l),
(450,0,l),
(450,75,l),
(525,75,l),
(525,750,l),
(375,750,l)
);
},
{
closed = 1;
nodes = (
(450,825,l),
(450,975,l),
(75,975,l),
(75,825,l)
);
}
);
width = 600;
},
{
anchors = (
{
name = bottom;
pos = (300,0);
},
{
name = top.case;
pos = (225,750);
}
);
layerId = m002;
shapes = (
{
closed = 1;
nodes = (
(375,225,l),
(300,225,l),
(300,150,l),
(225,150,l),
(225,225,l),
(150,225,l),
(150,750,l),
(0,750,l),
(0,75,l),
(75,75,l),
(75,0,l),
(450,0,l),
(450,75,l),
(525,75,l),
(525,750,l),
(375,750,l)
);
},
{
closed = 1;
nodes = (
(450,825,l),
(450,975,l),
(75,975,l),
(75,825,l)
);
}
);
width = 600;
}
);
unicode = 362;
},
{
color = 6;
glyphname = Uogonek;
lastChange = "2023-12-06 14:16:46 +0000";
layers = (
{
anchors = (
{
name = bottom;
pos = (300,0);
},
{
name = top.case;
pos = (225,750);
}
);
layerId = m01;
shapes = (
{
closed = 1;
nodes = (
(375,225,l),
(300,225,l),
(300,150,l),
(225,150,l),
(225,225,l),
(150,225,l),
(150,750,l),
(0,750,l),
(0,75,l),
(75,75,l),
(75,0,l),
(300,0,l),
(300,-75,l),
(375,-75,l),
(375,0,l),
(450,0,l),
(450,75,l),
(525,75,l),
(525,750,l),
(375,750,l)
);
},
{
closed = 1;
nodes = (
(375,-300,l),
(375,-150,l),
(300,-150,l),
(300,-75,l),
(225,-75,l),
(225,-300,l)
);
}
);
width = 600;
},
{
anchors = (
{
name = bottom;
pos = (300,0);
},
{
name = top.case;
pos = (225,750);
}
);
layerId = m002;
shapes = (
{
closed = 1;
nodes = (
(375,225,l),
(300,225,l),
(300,150,l),
(225,150,l),
(225,225,l),
(150,225,l),
(150,750,l),
(0,750,l),
(0,75,l),
(75,75,l),
(75,0,l),
(300,0,l),
(300,-75,l),
(375,-75,l),
(375,0,l),
(450,0,l),
(450,75,l),
(525,75,l),
(525,750,l),
(375,750,l)
);
},
{
closed = 1;
nodes = (
(375,-300,l),
(375,-150,l),
(300,-150,l),
(300,-75,l),
(225,-75,l),
(225,-300,l)
);
}
);
width = 600;
}
);
unicode = 370;
},
{
color = 6;
glyphname = Uring;
lastChange = "2023-12-06 14:16:46 +0000";
layers = (
{
anchors = (
{
name = bottom;
pos = (300,0);
},
{
name = top.case;
pos = (225,750);
}
);
layerId = m01;
shapes = (
{
closed = 1;
nodes = (
(375,225,l),
(300,225,l),
(300,150,l),
(225,150,l),
(225,225,l),
(150,225,l),
(150,750,l),
(0,750,l),
(0,75,l),
(75,75,l),
(75,0,l),
(450,0,l),
(450,75,l),
(525,75,l),
(525,750,l),
(375,750,l)
);
},
{
closed = 1;
nodes = (
(375,825,l),
(375,1050,l),
(150,1050,l),
(150,825,l)
);
},
{
closed = 1;
nodes = (
(225,975,l),
(300,975,l),
(300,900,l),
(225,900,l)
);
}
);
width = 600;
},
{
anchors = (
{
name = bottom;
pos = (300,0);
},
{
name = top.case;
pos = (225,750);
}
);
layerId = m002;
shapes = (
{
closed = 1;
nodes = (
(375,225,l),
(300,225,l),
(300,150,l),
(225,150,l),
(225,225,l),
(150,225,l),
(150,750,l),
(0,750,l),
(0,75,l),
(75,75,l),
(75,0,l),
(450,0,l),
(450,75,l),
(525,75,l),
(525,750,l),
(375,750,l)
);
},
{
closed = 1;
nodes = (
(375,825,l),
(375,1050,l),
(150,1050,l),
(150,825,l)
);
},
{
closed = 1;
nodes = (
(225,975,l),
(300,975,l),
(300,900,l),
(225,900,l)
);
}
);
width = 600;
}
);
unicode = 366;
},
{
color = 6;
glyphname = V;
lastChange = "2023-12-06 14:16:46 +0000";
layers = (
{
layerId = m01;
shapes = (
{
closed = 1;
nodes = (
(225,0,l),
(300,0,l),
(300,75,l),
(375,75,l),
(375,150,l),
(450,150,l),
(450,225,l),
(525,225,l),
(525,750,l),
(375,750,l),
(375,300,l),
(300,300,l),
(300,225,l),
(225,225,l),
(225,300,l),
(150,300,l),
(150,750,l),
(0,750,l),
(0,225,l),
(75,225,l),
(75,150,l),
(150,150,l),
(150,75,l),
(225,75,l)
);
}
);
width = 600;
},
{
layerId = m002;
shapes = (
{
closed = 1;
nodes = (
(225,0,l),
(300,0,l),
(300,75,l),
(375,75,l),
(375,150,l),
(450,150,l),
(450,225,l),
(525,225,l),
(525,750,l),
(375,750,l),
(375,300,l),
(300,300,l),
(300,225,l),
(225,225,l),
(225,300,l),
(150,300,l),
(150,750,l),
(0,750,l),
(0,225,l),
(75,225,l),
(75,150,l),
(150,150,l),
(150,75,l),
(225,75,l)
);
}
);
width = 600;
}
);
unicode = 86;
},
{
color = 6;
glyphname = W;
lastChange = "2023-12-06 14:16:46 +0000";
layers = (
{
anchors = (
{
name = bottom;
pos = (375,0);
},
{
name = top.case;
pos = (375,750);
}
);
layerId = m01;
shapes = (
{
closed = 1;
nodes = (
(150,0,l),
(225,0,l),
(225,75,l),
(300,75,l),
(300,150,l),
(450,150,l),
(450,75,l),
(525,75,l),
(525,0,l),
(600,0,l),
(600,75,l),
(675,75,l),
(675,150,l),
(750,150,l),
(750,750,l),
(600,750,l),
(600,225,l),
(450,225,l),
(450,750,l),
(300,750,l),
(300,225,l),
(150,225,l),
(150,750,l),
(0,750,l),
(0,150,l),
(75,150,l),
(75,75,l),
(150,75,l)
);
}
);
width = 825;
},
{
anchors = (
{
name = bottom;
pos = (375,0);
},
{
name = top.case;
pos = (375,750);
}
);
layerId = m002;
shapes = (
{
closed = 1;
nodes = (
(150,0,l),
(225,0,l),
(225,75,l),
(300,75,l),
(300,150,l),
(450,150,l),
(450,75,l),
(525,75,l),
(525,0,l),
(600,0,l),
(600,75,l),
(675,75,l),
(675,150,l),
(750,150,l),
(750,750,l),
(600,750,l),
(600,225,l),
(450,225,l),
(450,750,l),
(300,750,l),
(300,225,l),
(150,225,l),
(150,750,l),
(0,750,l),
(0,150,l),
(75,150,l),
(75,75,l),
(150,75,l)
);
}
);
width = 825;
}
);
unicode = 87;
},
{
color = 6;
glyphname = Wacute;
lastChange = "2023-12-06 14:16:46 +0000";
layers = (
{
anchors = (
{
name = bottom;
pos = (375,0);
},
{
name = top.case;
pos = (375,750);
}
);
layerId = m01;
shapes = (
{
closed = 1;
nodes = (
(150,0,l),
(225,0,l),
(225,75,l),
(300,75,l),
(300,150,l),
(450,150,l),
(450,75,l),
(525,75,l),
(525,0,l),
(600,0,l),
(600,75,l),
(675,75,l),
(675,150,l),
(750,150,l),
(750,750,l),
(600,750,l),
(600,225,l),
(450,225,l),
(450,750,l),
(300,750,l),
(300,225,l),
(150,225,l),
(150,750,l),
(0,750,l),
(0,150,l),
(75,150,l),
(75,75,l),
(150,75,l)
);
},
{
closed = 1;
nodes = (
(450,825,l),
(450,900,l),
(525,900,l),
(525,1050,l),
(450,1050,l),
(450,975,l),
(375,975,l),
(375,825,l)
);
}
);
width = 825;
},
{
anchors = (
{
name = bottom;
pos = (375,0);
},
{
name = top.case;
pos = (375,750);
}
);
layerId = m002;
shapes = (
{
closed = 1;
nodes = (
(150,0,l),
(225,0,l),
(225,75,l),
(300,75,l),
(300,150,l),
(450,150,l),
(450,75,l),
(525,75,l),
(525,0,l),
(600,0,l),
(600,75,l),
(675,75,l),
(675,150,l),
(750,150,l),
(750,750,l),
(600,750,l),
(600,225,l),
(450,225,l),
(450,750,l),
(300,750,l),
(300,225,l),
(150,225,l),
(150,750,l),
(0,750,l),
(0,150,l),
(75,150,l),
(75,75,l),
(150,75,l)
);
},
{
closed = 1;
nodes = (
(450,825,l),
(450,900,l),
(525,900,l),
(525,1050,l),
(450,1050,l),
(450,975,l),
(375,975,l),
(375,825,l)
);
}
);
width = 825;
}
);
unicode = 7810;
},
{
color = 6;
glyphname = Wcircumflex;
lastChange = "2023-12-06 14:16:46 +0000";
layers = (
{
anchors = (
{
name = bottom;
pos = (375,0);
},
{
name = top;
pos = (375,750);
}
);
layerId = m01;
shapes = (
{
closed = 1;
nodes = (
(150,0,l),
(225,0,l),
(225,75,l),
(300,75,l),
(300,150,l),
(450,150,l),
(450,75,l),
(525,75,l),
(525,0,l),
(600,0,l),
(600,75,l),
(675,75,l),
(675,150,l),
(750,150,l),
(750,750,l),
(600,750,l),
(600,225,l),
(450,225,l),
(450,750,l),
(300,750,l),
(300,225,l),
(150,225,l),
(150,750,l),
(0,750,l),
(0,150,l),
(75,150,l),
(75,75,l),
(150,75,l)
);
},
{
closed = 1;
nodes = (
(300,825,l),
(300,900,l),
(450,900,l),
(450,825,l),
(525,825,l),
(525,975,l),
(450,975,l),
(450,1050,l),
(300,1050,l),
(300,975,l),
(225,975,l),
(225,825,l)
);
}
);
width = 825;
},
{
anchors = (
{
name = bottom;
pos = (375,0);
},
{
name = top;
pos = (375,750);
}
);
layerId = m002;
shapes = (
{
closed = 1;
nodes = (
(150,0,l),
(225,0,l),
(225,75,l),
(300,75,l),
(300,150,l),
(450,150,l),
(450,75,l),
(525,75,l),
(525,0,l),
(600,0,l),
(600,75,l),
(675,75,l),
(675,150,l),
(750,150,l),
(750,750,l),
(600,750,l),
(600,225,l),
(450,225,l),
(450,750,l),
(300,750,l),
(300,225,l),
(150,225,l),
(150,750,l),
(0,750,l),
(0,150,l),
(75,150,l),
(75,75,l),
(150,75,l)
);
},
{
closed = 1;
nodes = (
(300,825,l),
(300,900,l),
(450,900,l),
(450,825,l),
(525,825,l),
(525,975,l),
(450,975,l),
(450,1050,l),
(300,1050,l),
(300,975,l),
(225,975,l),
(225,825,l)
);
}
);
width = 825;
}
);
unicode = 372;
},
{
color = 6;
glyphname = Wdieresis;
lastChange = "2023-12-06 14:16:46 +0000";
layers = (
{
anchors = (
{
name = bottom;
pos = (375,0);
},
{
name = top;
pos = (375,750);
}
);
layerId = m01;
shapes = (
{
closed = 1;
nodes = (
(150,0,l),
(225,0,l),
(225,75,l),
(300,75,l),
(300,150,l),
(450,150,l),
(450,75,l),
(525,75,l),
(525,0,l),
(600,0,l),
(600,75,l),
(675,75,l),
(675,150,l),
(750,150,l),
(750,750,l),
(600,750,l),
(600,225,l),
(450,225,l),
(450,750,l),
(300,750,l),
(300,225,l),
(150,225,l),
(150,750,l),
(0,750,l),
(0,150,l),
(75,150,l),
(75,75,l),
(150,75,l)
);
},
{
closed = 1;
nodes = (
(300,825,l),
(300,975,l),
(150,975,l),
(150,825,l)
);
},
{
closed = 1;
nodes = (
(600,825,l),
(600,975,l),
(450,975,l),
(450,825,l)
);
}
);
width = 825;
},
{
anchors = (
{
name = bottom;
pos = (375,0);
},
{
name = top;
pos = (375,750);
}
);
layerId = m002;
shapes = (
{
closed = 1;
nodes = (
(150,0,l),
(225,0,l),
(225,75,l),
(300,75,l),
(300,150,l),
(450,150,l),
(450,75,l),
(525,75,l),
(525,0,l),
(600,0,l),
(600,75,l),
(675,75,l),
(675,150,l),
(750,150,l),
(750,750,l),
(600,750,l),
(600,225,l),
(450,225,l),
(450,750,l),
(300,750,l),
(300,225,l),
(150,225,l),
(150,750,l),
(0,750,l),
(0,150,l),
(75,150,l),
(75,75,l),
(150,75,l)
);
},
{
closed = 1;
nodes = (
(300,825,l),
(300,975,l),
(150,975,l),
(150,825,l)
);
},
{
closed = 1;
nodes = (
(600,825,l),
(600,975,l),
(450,975,l),
(450,825,l)
);
}
);
width = 825;
}
);
unicode = 7812;
},
{
color = 6;
glyphname = Wgrave;
lastChange = "2023-12-06 14:16:46 +0000";
layers = (
{
anchors = (
{
name = bottom;
pos = (375,0);
},
{
name = top.case;
pos = (375,750);
}
);
layerId = m01;
shapes = (
{
closed = 1;
nodes = (
(150,0,l),
(225,0,l),
(225,75,l),
(300,75,l),
(300,150,l),
(450,150,l),
(450,75,l),
(525,75,l),
(525,0,l),
(600,0,l),
(600,75,l),
(675,75,l),
(675,150,l),
(750,150,l),
(750,750,l),
(600,750,l),
(600,225,l),
(450,225,l),
(450,750,l),
(300,750,l),
(300,225,l),
(150,225,l),
(150,750,l),
(0,750,l),
(0,150,l),
(75,150,l),
(75,75,l),
(150,75,l)
);
},
{
closed = 1;
nodes = (
(375,900,l),
(375,825,l),
(525,825,l),
(525,900,l),
(450,900,l),
(450,975,l),
(375,975,l),
(375,1050,l),
(300,1050,l),
(300,900,l)
);
}
);
width = 825;
},
{
anchors = (
{
name = bottom;
pos = (375,0);
},
{
name = top.case;
pos = (375,750);
}
);
layerId = m002;
shapes = (
{
closed = 1;
nodes = (
(150,0,l),
(225,0,l),
(225,75,l),
(300,75,l),
(300,150,l),
(450,150,l),
(450,75,l),
(525,75,l),
(525,0,l),
(600,0,l),
(600,75,l),
(675,75,l),
(675,150,l),
(750,150,l),
(750,750,l),
(600,750,l),
(600,225,l),
(450,225,l),
(450,750,l),
(300,750,l),
(300,225,l),
(150,225,l),
(150,750,l),
(0,750,l),
(0,150,l),
(75,150,l),
(75,75,l),
(150,75,l)
);
},
{
closed = 1;
nodes = (
(375,900,l),
(375,825,l),
(525,825,l),
(525,900,l),
(450,900,l),
(450,975,l),
(375,975,l),
(375,1050,l),
(300,1050,l),
(300,900,l)
);
}
);
width = 825;
}
);
unicode = 7808;
},
{
color = 6;
glyphname = X;
lastChange = "2023-12-06 14:16:46 +0000";
layers = (
{
layerId = m01;
shapes = (
{
closed = 1;
nodes = (
(0,750,l),
(0,525,l),
(75,525,l),
(75,450,l),
(150,450,l),
(150,375,l),
(75,375,l),
(75,300,l),
(0,300,l),
(0,0,l),
(150,0,l),
(150,225,l),
(225,225,l),
(225,300,l),
(300,300,l),
(300,225,l),
(375,225,l),
(375,0,l),
(525,0,l),
(525,300,l),
(450,300,l),
(450,375,l),
(375,375,l),
(375,450,l),
(450,450,l),
(450,525,l),
(525,525,l),
(525,750,l),
(375,750,l),
(375,600,l),
(300,600,l),
(300,525,l),
(225,525,l),
(225,600,l),
(150,600,l),
(150,750,l)
);
}
);
width = 600;
},
{
layerId = m002;
shapes = (
{
closed = 1;
nodes = (
(0,750,l),
(0,525,l),
(75,525,l),
(75,450,l),
(150,450,l),
(150,375,l),
(75,375,l),
(75,300,l),
(0,300,l),
(0,0,l),
(150,0,l),
(150,225,l),
(225,225,l),
(225,300,l),
(300,300,l),
(300,225,l),
(375,225,l),
(375,0,l),
(525,0,l),
(525,300,l),
(450,300,l),
(450,375,l),
(375,375,l),
(375,450,l),
(450,450,l),
(450,525,l),
(525,525,l),
(525,750,l),
(375,750,l),
(375,600,l),
(300,600,l),
(300,525,l),
(225,525,l),
(225,600,l),
(150,600,l),
(150,750,l)
);
}
);
width = 600;
}
);
unicode = 88;
},
{
color = 6;
glyphname = Y;
lastChange = "2023-12-06 14:16:46 +0000";
layers = (
{
anchors = (
{
name = bottom;
pos = (300,0);
},
{
name = top.case;
pos = (300,750);
}
);
layerId = m01;
shapes = (
{
closed = 1;
nodes = (
(0,375,l),
(75,375,l),
(75,300,l),
(150,300,l),
(150,225,l),
(225,225,l),
(225,0,l),
(375,0,l),
(375,225,l),
(450,225,l),
(450,300,l),
(525,300,l),
(525,375,l),
(600,375,l),
(600,750,l),
(450,750,l),
(450,450,l),
(375,450,l),
(375,375,l),
(225,375,l),
(225,450,l),
(150,450,l),
(150,750,l),
(0,750,l)
);
}
);
width = 675;
},
{
anchors = (
{
name = bottom;
pos = (300,0);
},
{
name = top.case;
pos = (300,750);
}
);
layerId = m002;
shapes = (
{
closed = 1;
nodes = (
(0,375,l),
(75,375,l),
(75,300,l),
(150,300,l),
(150,225,l),
(225,225,l),
(225,0,l),
(375,0,l),
(375,225,l),
(450,225,l),
(450,300,l),
(525,300,l),
(525,375,l),
(600,375,l),
(600,750,l),
(450,750,l),
(450,450,l),
(375,450,l),
(375,375,l),
(225,375,l),
(225,450,l),
(150,450,l),
(150,750,l),
(0,750,l)
);
}
);
width = 675;
}
);
unicode = 89;
},
{
color = 6;
glyphname = Yacute;
lastChange = "2023-12-06 14:16:46 +0000";
layers = (
{
anchors = (
{
name = bottom;
pos = (300,0);
},
{
name = top.case;
pos = (300,750);
}
);
layerId = m01;
shapes = (
{
closed = 1;
nodes = (
(0,375,l),
(75,375,l),
(75,300,l),
(150,300,l),
(150,225,l),
(225,225,l),
(225,0,l),
(375,0,l),
(375,225,l),
(450,225,l),
(450,300,l),
(525,300,l),
(525,375,l),
(600,375,l),
(600,750,l),
(450,750,l),
(450,450,l),
(375,450,l),
(375,375,l),
(225,375,l),
(225,450,l),
(150,450,l),
(150,750,l),
(0,750,l)
);
},
{
closed = 1;
nodes = (
(375,825,l),
(375,900,l),
(450,900,l),
(450,1050,l),
(375,1050,l),
(375,975,l),
(300,975,l),
(300,825,l)
);
}
);
width = 675;
},
{
anchors = (
{
name = bottom;
pos = (300,0);
},
{
name = top.case;
pos = (300,750);
}
);
layerId = m002;
shapes = (
{
closed = 1;
nodes = (
(0,375,l),
(75,375,l),
(75,300,l),
(150,300,l),
(150,225,l),
(225,225,l),
(225,0,l),
(375,0,l),
(375,225,l),
(450,225,l),
(450,300,l),
(525,300,l),
(525,375,l),
(600,375,l),
(600,750,l),
(450,750,l),
(450,450,l),
(375,450,l),
(375,375,l),
(225,375,l),
(225,450,l),
(150,450,l),
(150,750,l),
(0,750,l)
);
},
{
closed = 1;
nodes = (
(375,825,l),
(375,900,l),
(450,900,l),
(450,1050,l),
(375,1050,l),
(375,975,l),
(300,975,l),
(300,825,l)
);
}
);
width = 675;
}
);
unicode = 221;
},
{
color = 6;
glyphname = Ycircumflex;
lastChange = "2023-12-06 14:16:46 +0000";
layers = (
{
anchors = (
{
name = bottom;
pos = (300,0);
},
{
name = top;
pos = (300,750);
}
);
layerId = m01;
shapes = (
{
closed = 1;
nodes = (
(0,375,l),
(75,375,l),
(75,300,l),
(150,300,l),
(150,225,l),
(225,225,l),
(225,0,l),
(375,0,l),
(375,225,l),
(450,225,l),
(450,300,l),
(525,300,l),
(525,375,l),
(600,375,l),
(600,750,l),
(450,750,l),
(450,450,l),
(375,450,l),
(375,375,l),
(225,375,l),
(225,450,l),
(150,450,l),
(150,750,l),
(0,750,l)
);
},
{
closed = 1;
nodes = (
(225,825,l),
(225,900,l),
(375,900,l),
(375,825,l),
(450,825,l),
(450,975,l),
(375,975,l),
(375,1050,l),
(225,1050,l),
(225,975,l),
(150,975,l),
(150,825,l)
);
}
);
width = 675;
},
{
anchors = (
{
name = bottom;
pos = (300,0);
},
{
name = top;
pos = (300,750);
}
);
layerId = m002;
shapes = (
{
closed = 1;
nodes = (
(0,375,l),
(75,375,l),
(75,300,l),
(150,300,l),
(150,225,l),
(225,225,l),
(225,0,l),
(375,0,l),
(375,225,l),
(450,225,l),
(450,300,l),
(525,300,l),
(525,375,l),
(600,375,l),
(600,750,l),
(450,750,l),
(450,450,l),
(375,450,l),
(375,375,l),
(225,375,l),
(225,450,l),
(150,450,l),
(150,750,l),
(0,750,l)
);
},
{
closed = 1;
nodes = (
(225,825,l),
(225,900,l),
(375,900,l),
(375,825,l),
(450,825,l),
(450,975,l),
(375,975,l),
(375,1050,l),
(225,1050,l),
(225,975,l),
(150,975,l),
(150,825,l)
);
}
);
width = 675;
}
);
unicode = 374;
},
{
color = 6;
glyphname = Ydieresis;
lastChange = "2023-12-06 14:16:46 +0000";
layers = (
{
anchors = (
{
name = bottom;
pos = (300,0);
},
{
name = top;
pos = (300,750);
}
);
layerId = m01;
shapes = (
{
closed = 1;
nodes = (
(0,375,l),
(75,375,l),
(75,300,l),
(150,300,l),
(150,225,l),
(225,225,l),
(225,0,l),
(375,0,l),
(375,225,l),
(450,225,l),
(450,300,l),
(525,300,l),
(525,375,l),
(600,375,l),
(600,750,l),
(450,750,l),
(450,450,l),
(375,450,l),
(375,375,l),
(225,375,l),
(225,450,l),
(150,450,l),
(150,750,l),
(0,750,l)
);
},
{
closed = 1;
nodes = (
(225,825,l),
(225,975,l),
(75,975,l),
(75,825,l)
);
},
{
closed = 1;
nodes = (
(525,825,l),
(525,975,l),
(375,975,l),
(375,825,l)
);
}
);
width = 675;
},
{
anchors = (
{
name = bottom;
pos = (300,0);
},
{
name = top;
pos = (300,750);
}
);
layerId = m002;
shapes = (
{
closed = 1;
nodes = (
(0,375,l),
(75,375,l),
(75,300,l),
(150,300,l),
(150,225,l),
(225,225,l),
(225,0,l),
(375,0,l),
(375,225,l),
(450,225,l),
(450,300,l),
(525,300,l),
(525,375,l),
(600,375,l),
(600,750,l),
(450,750,l),
(450,450,l),
(375,450,l),
(375,375,l),
(225,375,l),
(225,450,l),
(150,450,l),
(150,750,l),
(0,750,l)
);
},
{
closed = 1;
nodes = (
(225,825,l),
(225,975,l),
(75,975,l),
(75,825,l)
);
},
{
closed = 1;
nodes = (
(525,825,l),
(525,975,l),
(375,975,l),
(375,825,l)
);
}
);
width = 675;
}
);
unicode = 376;
},
{
color = 6;
glyphname = Ygrave;
lastChange = "2023-12-06 14:16:46 +0000";
layers = (
{
anchors = (
{
name = bottom;
pos = (300,0);
},
{
name = top.case;
pos = (300,750);
}
);
layerId = m01;
shapes = (
{
closed = 1;
nodes = (
(0,375,l),
(75,375,l),
(75,300,l),
(150,300,l),
(150,225,l),
(225,225,l),
(225,0,l),
(375,0,l),
(375,225,l),
(450,225,l),
(450,300,l),
(525,300,l),
(525,375,l),
(600,375,l),
(600,750,l),
(450,750,l),
(450,450,l),
(375,450,l),
(375,375,l),
(225,375,l),
(225,450,l),
(150,450,l),
(150,750,l),
(0,750,l)
);
},
{
closed = 1;
nodes = (
(300,900,l),
(300,825,l),
(450,825,l),
(450,900,l),
(375,900,l),
(375,975,l),
(300,975,l),
(300,1050,l),
(225,1050,l),
(225,900,l)
);
}
);
width = 675;
},
{
anchors = (
{
name = bottom;
pos = (300,0);
},
{
name = top.case;
pos = (300,750);
}
);
layerId = m002;
shapes = (
{
closed = 1;
nodes = (
(0,375,l),
(75,375,l),
(75,300,l),
(150,300,l),
(150,225,l),
(225,225,l),
(225,0,l),
(375,0,l),
(375,225,l),
(450,225,l),
(450,300,l),
(525,300,l),
(525,375,l),
(600,375,l),
(600,750,l),
(450,750,l),
(450,450,l),
(375,450,l),
(375,375,l),
(225,375,l),
(225,450,l),
(150,450,l),
(150,750,l),
(0,750,l)
);
},
{
closed = 1;
nodes = (
(300,900,l),
(300,825,l),
(450,825,l),
(450,900,l),
(375,900,l),
(375,975,l),
(300,975,l),
(300,1050,l),
(225,1050,l),
(225,900,l)
);
}
);
width = 675;
}
);
unicode = 7922;
},
{
color = 6;
glyphname = Z;
lastChange = "2023-12-06 14:16:46 +0000";
layers = (
{
anchors = (
{
name = bottom;
pos = (300,0);
},
{
name = center;
pos = (300,375);
},
{
name = top.case;
pos = (300,750);
}
);
layerId = m01;
shapes = (
{
closed = 1;
nodes = (
(0,600,l),
(375,600,l),
(375,525,l),
(300,525,l),
(300,450,l),
(225,450,l),
(225,375,l),
(150,375,l),
(150,300,l),
(75,300,l),
(75,225,l),
(0,225,l),
(0,0,l),
(600,0,l),
(600,150,l),
(225,150,l),
(225,225,l),
(300,225,l),
(300,300,l),
(375,300,l),
(375,375,l),
(450,375,l),
(450,450,l),
(525,450,l),
(525,525,l),
(600,525,l),
(600,750,l),
(0,750,l)
);
}
);
width = 675;
},
{
anchors = (
{
name = bottom;
pos = (300,0);
},
{
name = center;
pos = (300,375);
},
{
name = top.case;
pos = (300,750);
}
);
layerId = m002;
shapes = (
{
closed = 1;
nodes = (
(0,600,l),
(375,600,l),
(375,525,l),
(300,525,l),
(300,450,l),
(225,450,l),
(225,375,l),
(150,375,l),
(150,300,l),
(75,300,l),
(75,225,l),
(0,225,l),
(0,0,l),
(600,0,l),
(600,150,l),
(225,150,l),
(225,225,l),
(300,225,l),
(300,300,l),
(375,300,l),
(375,375,l),
(450,375,l),
(450,450,l),
(525,450,l),
(525,525,l),
(600,525,l),
(600,750,l),
(0,750,l)
);
}
);
width = 675;
}
);
unicode = 90;
},
{
color = 6;
glyphname = Zacute;
lastChange = "2023-12-06 14:16:46 +0000";
layers = (
{
anchors = (
{
name = bottom;
pos = (300,0);
},
{
name = center;
pos = (300,375);
},
{
name = top.case;
pos = (300,750);
}
);
layerId = m01;
shapes = (
{
closed = 1;
nodes = (
(0,600,l),
(375,600,l),
(375,525,l),
(300,525,l),
(300,450,l),
(225,450,l),
(225,375,l),
(150,375,l),
(150,300,l),
(75,300,l),
(75,225,l),
(0,225,l),
(0,0,l),
(600,0,l),
(600,150,l),
(225,150,l),
(225,225,l),
(300,225,l),
(300,300,l),
(375,300,l),
(375,375,l),
(450,375,l),
(450,450,l),
(525,450,l),
(525,525,l),
(600,525,l),
(600,750,l),
(0,750,l)
);
},
{
closed = 1;
nodes = (
(375,825,l),
(375,900,l),
(450,900,l),
(450,1050,l),
(375,1050,l),
(375,975,l),
(300,975,l),
(300,825,l)
);
}
);
width = 675;
},
{
anchors = (
{
name = bottom;
pos = (300,0);
},
{
name = center;
pos = (300,375);
},
{
name = top.case;
pos = (300,750);
}
);
layerId = m002;
shapes = (
{
closed = 1;
nodes = (
(0,600,l),
(375,600,l),
(375,525,l),
(300,525,l),
(300,450,l),
(225,450,l),
(225,375,l),
(150,375,l),
(150,300,l),
(75,300,l),
(75,225,l),
(0,225,l),
(0,0,l),
(600,0,l),
(600,150,l),
(225,150,l),
(225,225,l),
(300,225,l),
(300,300,l),
(375,300,l),
(375,375,l),
(450,375,l),
(450,450,l),
(525,450,l),
(525,525,l),
(600,525,l),
(600,750,l),
(0,750,l)
);
},
{
closed = 1;
nodes = (
(375,825,l),
(375,900,l),
(450,900,l),
(450,1050,l),
(375,1050,l),
(375,975,l),
(300,975,l),
(300,825,l)
);
}
);
width = 675;
}
);
unicode = 377;
},
{
color = 6;
glyphname = Zcaron;
lastChange = "2023-12-06 14:16:46 +0000";
layers = (
{
anchors = (
{
name = bottom;
pos = (300,0);
},
{
name = center;
pos = (300,375);
},
{
name = top.case;
pos = (300,750);
}
);
layerId = m01;
shapes = (
{
closed = 1;
nodes = (
(0,600,l),
(375,600,l),
(375,525,l),
(300,525,l),
(300,450,l),
(225,450,l),
(225,375,l),
(150,375,l),
(150,300,l),
(75,300,l),
(75,225,l),
(0,225,l),
(0,0,l),
(600,0,l),
(600,150,l),
(225,150,l),
(225,225,l),
(300,225,l),
(300,300,l),
(375,300,l),
(375,375,l),
(450,375,l),
(450,450,l),
(525,450,l),
(525,525,l),
(600,525,l),
(600,750,l),
(0,750,l)
);
},
{
closed = 1;
nodes = (
(225,975,l),
(225,900,l),
(300,900,l),
(300,825,l),
(375,825,l),
(375,900,l),
(450,900,l),
(450,975,l),
(525,975,l),
(525,1050,l),
(375,1050,l),
(375,975,l),
(300,975,l),
(300,1050,l),
(150,1050,l),
(150,975,l)
);
}
);
width = 675;
},
{
anchors = (
{
name = bottom;
pos = (300,0);
},
{
name = center;
pos = (300,375);
},
{
name = top.case;
pos = (300,750);
}
);
layerId = m002;
shapes = (
{
closed = 1;
nodes = (
(0,600,l),
(375,600,l),
(375,525,l),
(300,525,l),
(300,450,l),
(225,450,l),
(225,375,l),
(150,375,l),
(150,300,l),
(75,300,l),
(75,225,l),
(0,225,l),
(0,0,l),
(600,0,l),
(600,150,l),
(225,150,l),
(225,225,l),
(300,225,l),
(300,300,l),
(375,300,l),
(375,375,l),
(450,375,l),
(450,450,l),
(525,450,l),
(525,525,l),
(600,525,l),
(600,750,l),
(0,750,l)
);
},
{
closed = 1;
nodes = (
(225,975,l),
(225,900,l),
(300,900,l),
(300,825,l),
(375,825,l),
(375,900,l),
(450,900,l),
(450,975,l),
(525,975,l),
(525,1050,l),
(375,1050,l),
(375,975,l),
(300,975,l),
(300,1050,l),
(150,1050,l),
(150,975,l)
);
}
);
width = 675;
}
);
unicode = 381;
},
{
color = 6;
glyphname = Zdotaccent;
lastChange = "2023-12-06 14:16:46 +0000";
layers = (
{
anchors = (
{
name = bottom;
pos = (300,0);
},
{
name = center;
pos = (300,375);
},
{
name = top.case;
pos = (300,750);
}
);
layerId = m01;
shapes = (
{
closed = 1;
nodes = (
(0,600,l),
(375,600,l),
(375,525,l),
(300,525,l),
(300,450,l),
(225,450,l),
(225,375,l),
(150,375,l),
(150,300,l),
(75,300,l),
(75,225,l),
(0,225,l),
(0,0,l),
(600,0,l),
(600,150,l),
(225,150,l),
(225,225,l),
(300,225,l),
(300,300,l),
(375,300,l),
(375,375,l),
(450,375,l),
(450,450,l),
(525,450,l),
(525,525,l),
(600,525,l),
(600,750,l),
(0,750,l)
);
},
{
closed = 1;
nodes = (
(375,825,l),
(375,975,l),
(225,975,l),
(225,825,l)
);
}
);
width = 675;
},
{
anchors = (
{
name = bottom;
pos = (300,0);
},
{
name = center;
pos = (300,375);
},
{
name = top.case;
pos = (300,750);
}
);
layerId = m002;
shapes = (
{
closed = 1;
nodes = (
(0,600,l),
(375,600,l),
(375,525,l),
(300,525,l),
(300,450,l),
(225,450,l),
(225,375,l),
(150,375,l),
(150,300,l),
(75,300,l),
(75,225,l),
(0,225,l),
(0,0,l),
(600,0,l),
(600,150,l),
(225,150,l),
(225,225,l),
(300,225,l),
(300,300,l),
(375,300,l),
(375,375,l),
(450,375,l),
(450,450,l),
(525,450,l),
(525,525,l),
(600,525,l),
(600,750,l),
(0,750,l)
);
},
{
closed = 1;
nodes = (
(375,825,l),
(375,975,l),
(225,975,l),
(225,825,l)
);
}
);
width = 675;
}
);
unicode = 379;
},
{
color = 1;
glyphname = A.15;
lastChange = "2023-12-06 14:16:46 +0000";
layers = (
{
anchors = (
{
name = bottom;
pos = (450,0);
},
{
name = top.case;
pos = (300,750);
}
);
layerId = m01;
shapes = (
{
closed = 1;
nodes = (
(250,700,l),
(200,700,l),
(200,650,l),
(150,650,l),
(150,600,l),
(100,600,l),
(100,550,l),
(50,550,l),
(50,0,l),
(200,0,l),
(200,200,l),
(400,200,l),
(400,0,l),
(550,0,l),
(550,550,l),
(500,550,l),
(500,600,l),
(450,600,l),
(450,650,l),
(400,650,l),
(400,700,l),
(350,700,l),
(350,750,l),
(250,750,l)
);
},
{
closed = 1;
nodes = (
(200,500,l),
(250,500,l),
(250,550,l),
(350,550,l),
(350,500,l),
(400,500,l),
(400,350,l),
(200,350,l)
);
}
);
width = 600;
},
{
anchors = (
{
name = bottom;
pos = (450,0);
},
{
name = top.case;
pos = (300,750);
}
);
layerId = m002;
shapes = (
{
closed = 1;
nodes = (
(250,700,l),
(200,700,l),
(200,650,l),
(150,650,l),
(150,600,l),
(100,600,l),
(100,550,l),
(50,550,l),
(50,0,l),
(200,0,l),
(200,200,l),
(400,200,l),
(400,0,l),
(550,0,l),
(550,550,l),
(500,550,l),
(500,600,l),
(450,600,l),
(450,650,l),
(400,650,l),
(400,700,l),
(350,700,l),
(350,750,l),
(250,750,l)
);
},
{
closed = 1;
nodes = (
(200,500,l),
(250,500,l),
(250,550,l),
(350,550,l),
(350,500,l),
(400,500,l),
(400,350,l),
(200,350,l)
);
}
);
width = 600;
}
);
},
{
color = 4;
glyphname = A.20;
lastChange = "2023-12-06 14:16:46 +0000";
layers = (
{
anchors = (
{
name = bottom;
pos = (456,0);
},
{
name = top.case;
pos = (304,760);
}
);
layerId = m01;
shapes = (
{
closed = 1;
nodes = (
(38,0,l),
(190,0,l),
(190,190,l),
(380,190,l),
(380,0,l),
(532,0,l),
(532,570,l),
(494,570,l),
(494,608,l),
(456,608,l),
(456,646,l),
(418,646,l),
(418,684,l),
(380,684,l),
(380,722,l),
(342,722,l),
(342,760,l),
(228,760,l),
(228,722,l),
(190,722,l),
(190,684,l),
(152,684,l),
(152,646,l),
(114,646,l),
(114,608,l),
(76,608,l),
(76,570,l),
(38,570,l)
);
},
{
closed = 1;
nodes = (
(190,494,l),
(228,494,l),
(228,532,l),
(266,532,l),
(266,570,l),
(304,570,l),
(304,532,l),
(342,532,l),
(342,494,l),
(380,494,l),
(380,342,l),
(190,342,l)
);
}
);
width = 608;
},
{
anchors = (
{
name = bottom;
pos = (456,0);
},
{
name = top.case;
pos = (304,760);
}
);
layerId = m002;
shapes = (
{
closed = 1;
nodes = (
(38,0,l),
(190,0,l),
(190,190,l),
(380,190,l),
(380,0,l),
(532,0,l),
(532,570,l),
(494,570,l),
(494,608,l),
(456,608,l),
(456,646,l),
(418,646,l),
(418,684,l),
(380,684,l),
(380,722,l),
(342,722,l),
(342,760,l),
(228,760,l),
(228,722,l),
(190,722,l),
(190,684,l),
(152,684,l),
(152,646,l),
(114,646,l),
(114,608,l),
(76,608,l),
(76,570,l),
(38,570,l)
);
},
{
closed = 1;
nodes = (
(190,494,l),
(228,494,l),
(228,532,l),
(266,532,l),
(266,570,l),
(304,570,l),
(304,532,l),
(342,532,l),
(342,494,l),
(380,494,l),
(380,342,l),
(190,342,l)
);
}
);
width = 608;
}
);
},
{
color = 9;
glyphname = A.25;
lastChange = "2023-12-06 14:16:46 +0000";
layers = (
{
anchors = (
{
name = bottom;
pos = (510,0);
},
{
name = top.case;
pos = (300,750);
}
);
layerId = m01;
shapes = (
{
closed = 1;
nodes = (
(210,0,l),
(60,0,l),
(60,570,l),
(90,570,l),
(90,600,l),
(120,600,l),
(120,630,l),
(150,630,l),
(150,660,l),
(180,660,l),
(180,690,l),
(210,690,l),
(210,720,l),
(240,720,l),
(240,750,l),
(360,750,l),
(360,720,l),
(390,720,l),
(390,690,l),
(420,690,l),
(420,660,l),
(450,660,l),
(450,630,l),
(480,630,l),
(480,600,l),
(510,600,l),
(510,570,l),
(540,570,l),
(540,0,l),
(390,0,l),
(390,180,l),
(210,180,l)
);
},
{
closed = 1;
nodes = (
(390,330,l),
(390,510,l),
(360,510,l),
(360,540,l),
(330,540,l),
(330,570,l),
(270,570,l),
(270,540,l),
(240,540,l),
(240,510,l),
(210,510,l),
(210,330,l)
);
}
);
width = 600;
},
{
anchors = (
{
name = bottom;
pos = (510,0);
},
{
name = top.case;
pos = (300,750);
}
);
layerId = m002;
shapes = (
{
closed = 1;
nodes = (
(210,0,l),
(60,0,l),
(60,570,l),
(90,570,l),
(90,600,l),
(120,600,l),
(120,630,l),
(150,630,l),
(150,660,l),
(180,660,l),
(180,690,l),
(210,690,l),
(210,720,l),
(240,720,l),
(240,750,l),
(360,750,l),
(360,720,l),
(390,720,l),
(390,690,l),
(420,690,l),
(420,660,l),
(450,660,l),
(450,630,l),
(480,630,l),
(480,600,l),
(510,600,l),
(510,570,l),
(540,570,l),
(540,0,l),
(390,0,l),
(390,180,l),
(210,180,l)
);
},
{
closed = 1;
nodes = (
(390,330,l),
(390,510,l),
(360,510,l),
(360,540,l),
(330,540,l),
(330,570,l),
(270,570,l),
(270,540,l),
(240,540,l),
(240,510,l),
(210,510,l),
(210,330,l)
);
}
);
width = 600;
}
);
},
{
color = 1;
glyphname = Aacute.15;
lastChange = "2023-12-06 14:16:46 +0000";
layers = (
{
anchors = (
{
name = bottom;
pos = (450,0);
},
{
name = top.case;
pos = (300,750);
}
);
layerId = m01;
shapes = (
{
closed = 1;
nodes = (
(250,700,l),
(200,700,l),
(200,650,l),
(150,650,l),
(150,600,l),
(100,600,l),
(100,550,l),
(50,550,l),
(50,0,l),
(200,0,l),
(200,200,l),
(400,200,l),
(400,0,l),
(550,0,l),
(550,550,l),
(500,550,l),
(500,600,l),
(450,600,l),
(450,650,l),
(400,650,l),
(400,700,l),
(350,700,l),
(350,750,l),
(250,750,l)
);
},
{
closed = 1;
nodes = (
(200,500,l),
(250,500,l),
(250,550,l),
(350,550,l),
(350,500,l),
(400,500,l),
(400,350,l),
(200,350,l)
);
},
{
closed = 1;
nodes = (
(300,800,l),
(300,850,l),
(350,850,l),
(350,900,l),
(400,900,l),
(400,1000,l),
(300,1000,l),
(300,950,l),
(250,950,l),
(250,900,l),
(200,900,l),
(200,800,l)
);
}
);
width = 600;
},
{
anchors = (
{
name = bottom;
pos = (450,0);
},
{
name = top.case;
pos = (300,750);
}
);
layerId = m002;
shapes = (
{
closed = 1;
nodes = (
(250,700,l),
(200,700,l),
(200,650,l),
(150,650,l),
(150,600,l),
(100,600,l),
(100,550,l),
(50,550,l),
(50,0,l),
(200,0,l),
(200,200,l),
(400,200,l),
(400,0,l),
(550,0,l),
(550,550,l),
(500,550,l),
(500,600,l),
(450,600,l),
(450,650,l),
(400,650,l),
(400,700,l),
(350,700,l),
(350,750,l),
(250,750,l)
);
},
{
closed = 1;
nodes = (
(200,500,l),
(250,500,l),
(250,550,l),
(350,550,l),
(350,500,l),
(400,500,l),
(400,350,l),
(200,350,l)
);
},
{
closed = 1;
nodes = (
(300,800,l),
(300,850,l),
(350,850,l),
(350,900,l),
(400,900,l),
(400,1000,l),
(300,1000,l),
(300,950,l),
(250,950,l),
(250,900,l),
(200,900,l),
(200,800,l)
);
}
);
width = 600;
}
);
},
{
color = 4;
glyphname = Aacute.20;
lastChange = "2023-12-06 14:16:46 +0000";
layers = (
{
anchors = (
{
name = bottom;
pos = (456,0);
},
{
name = top.case;
pos = (304,760);
}
);
layerId = m01;
shapes = (
{
closed = 1;
nodes = (
(38,0,l),
(190,0,l),
(190,190,l),
(380,190,l),
(380,0,l),
(532,0,l),
(532,570,l),
(494,570,l),
(494,608,l),
(456,608,l),
(456,646,l),
(418,646,l),
(418,684,l),
(380,684,l),
(380,722,l),
(342,722,l),
(342,760,l),
(228,760,l),
(228,722,l),
(190,722,l),
(190,684,l),
(152,684,l),
(152,646,l),
(114,646,l),
(114,608,l),
(76,608,l),
(76,570,l),
(38,570,l)
);
},
{
closed = 1;
nodes = (
(190,494,l),
(228,494,l),
(228,532,l),
(266,532,l),
(266,570,l),
(304,570,l),
(304,532,l),
(342,532,l),
(342,494,l),
(380,494,l),
(380,342,l),
(190,342,l)
);
},
{
closed = 1;
nodes = (
(342,798,l),
(342,836,l),
(380,836,l),
(380,874,l),
(418,874,l),
(418,950,l),
(304,950,l),
(304,912,l),
(266,912,l),
(266,874,l),
(228,874,l),
(228,798,l)
);
}
);
width = 608;
},
{
anchors = (
{
name = bottom;
pos = (456,0);
},
{
name = top.case;
pos = (304,760);
}
);
layerId = m002;
shapes = (
{
closed = 1;
nodes = (
(38,0,l),
(190,0,l),
(190,190,l),
(380,190,l),
(380,0,l),
(532,0,l),
(532,570,l),
(494,570,l),
(494,608,l),
(456,608,l),
(456,646,l),
(418,646,l),
(418,684,l),
(380,684,l),
(380,722,l),
(342,722,l),
(342,760,l),
(228,760,l),
(228,722,l),
(190,722,l),
(190,684,l),
(152,684,l),
(152,646,l),
(114,646,l),
(114,608,l),
(76,608,l),
(76,570,l),
(38,570,l)
);
},
{
closed = 1;
nodes = (
(190,494,l),
(228,494,l),
(228,532,l),
(266,532,l),
(266,570,l),
(304,570,l),
(304,532,l),
(342,532,l),
(342,494,l),
(380,494,l),
(380,342,l),
(190,342,l)
);
},
{
closed = 1;
nodes = (
(342,798,l),
(342,836,l),
(380,836,l),
(380,874,l),
(418,874,l),
(418,950,l),
(304,950,l),
(304,912,l),
(266,912,l),
(266,874,l),
(228,874,l),
(228,798,l)
);
}
);
width = 608;
}
);
},
{
color = 9;
glyphname = Aacute.25;
lastChange = "2023-12-06 14:16:46 +0000";
layers = (
{
anchors = (
{
name = bottom;
pos = (510,0);
},
{
name = top.case;
pos = (300,750);
}
);
layerId = m01;
shapes = (
{
closed = 1;
nodes = (
(210,0,l),
(60,0,l),
(60,570,l),
(90,570,l),
(90,600,l),
(120,600,l),
(120,630,l),
(150,630,l),
(150,660,l),
(180,660,l),
(180,690,l),
(210,690,l),
(210,720,l),
(240,720,l),
(240,750,l),
(360,750,l),
(360,720,l),
(390,720,l),
(390,690,l),
(420,690,l),
(420,660,l),
(450,660,l),
(450,630,l),
(480,630,l),
(480,600,l),
(510,600,l),
(510,570,l),
(540,570,l),
(540,0,l),
(390,0,l),
(390,180,l),
(210,180,l)
);
},
{
closed = 1;
nodes = (
(390,330,l),
(390,510,l),
(360,510,l),
(360,540,l),
(330,540,l),
(330,570,l),
(270,570,l),
(270,540,l),
(240,540,l),
(240,510,l),
(210,510,l),
(210,330,l)
);
},
{
closed = 1;
nodes = (
(210,870,l),
(240,870,l),
(240,900,l),
(270,900,l),
(270,930,l),
(300,930,l),
(300,960,l),
(390,960,l),
(390,870,l),
(360,870,l),
(360,840,l),
(330,840,l),
(330,810,l),
(300,810,l),
(300,780,l),
(210,780,l)
);
}
);
width = 600;
},
{
anchors = (
{
name = bottom;
pos = (510,0);
},
{
name = top.case;
pos = (300,750);
}
);
layerId = m002;
shapes = (
{
closed = 1;
nodes = (
(210,0,l),
(60,0,l),
(60,570,l),
(90,570,l),
(90,600,l),
(120,600,l),
(120,630,l),
(150,630,l),
(150,660,l),
(180,660,l),
(180,690,l),
(210,690,l),
(210,720,l),
(240,720,l),
(240,750,l),
(360,750,l),
(360,720,l),
(390,720,l),
(390,690,l),
(420,690,l),
(420,660,l),
(450,660,l),
(450,630,l),
(480,630,l),
(480,600,l),
(510,600,l),
(510,570,l),
(540,570,l),
(540,0,l),
(390,0,l),
(390,180,l),
(210,180,l)
);
},
{
closed = 1;
nodes = (
(390,330,l),
(390,510,l),
(360,510,l),
(360,540,l),
(330,540,l),
(330,570,l),
(270,570,l),
(270,540,l),
(240,540,l),
(240,510,l),
(210,510,l),
(210,330,l)
);
},
{
closed = 1;
nodes = (
(210,870,l),
(240,870,l),
(240,900,l),
(270,900,l),
(270,930,l),
(300,930,l),
(300,960,l),
(390,960,l),
(390,870,l),
(360,870,l),
(360,840,l),
(330,840,l),
(330,810,l),
(300,810,l),
(300,780,l),
(210,780,l)
);
}
);
width = 600;
}
);
},
{
color = 1;
glyphname = Abreve.15;
lastChange = "2023-12-06 14:16:46 +0000";
layers = (
{
anchors = (
{
name = bottom;
pos = (450,0);
},
{
name = top.case;
pos = (300,750);
}
);
layerId = m01;
shapes = (
{
closed = 1;
nodes = (
(250,700,l),
(200,700,l),
(200,650,l),
(150,650,l),
(150,600,l),
(100,600,l),
(100,550,l),
(50,550,l),
(50,0,l),
(200,0,l),
(200,200,l),
(400,200,l),
(400,0,l),
(550,0,l),
(550,550,l),
(500,550,l),
(500,600,l),
(450,600,l),
(450,650,l),
(400,650,l),
(400,700,l),
(350,700,l),
(350,750,l),
(250,750,l)
);
},
{
closed = 1;
nodes = (
(200,850,l),
(200,800,l),
(400,800,l),
(400,850,l),
(450,850,l),
(450,1000,l),
(350,1000,l),
(350,900,l),
(250,900,l),
(250,1000,l),
(150,1000,l),
(150,850,l)
);
},
{
closed = 1;
nodes = (
(200,500,l),
(250,500,l),
(250,550,l),
(350,550,l),
(350,500,l),
(400,500,l),
(400,350,l),
(200,350,l)
);
}
);
width = 600;
},
{
anchors = (
{
name = bottom;
pos = (450,0);
},
{
name = top.case;
pos = (300,750);
}
);
layerId = m002;
shapes = (
{
closed = 1;
nodes = (
(250,700,l),
(200,700,l),
(200,650,l),
(150,650,l),
(150,600,l),
(100,600,l),
(100,550,l),
(50,550,l),
(50,0,l),
(200,0,l),
(200,200,l),
(400,200,l),
(400,0,l),
(550,0,l),
(550,550,l),
(500,550,l),
(500,600,l),
(450,600,l),
(450,650,l),
(400,650,l),
(400,700,l),
(350,700,l),
(350,750,l),
(250,750,l)
);
},
{
closed = 1;
nodes = (
(200,850,l),
(200,800,l),
(400,800,l),
(400,850,l),
(450,850,l),
(450,1000,l),
(350,1000,l),
(350,900,l),
(250,900,l),
(250,1000,l),
(150,1000,l),
(150,850,l)
);
},
{
closed = 1;
nodes = (
(200,500,l),
(250,500,l),
(250,550,l),
(350,550,l),
(350,500,l),
(400,500,l),
(400,350,l),
(200,350,l)
);
}
);
width = 600;
}
);
},
{
color = 4;
glyphname = Abreve.20;
lastChange = "2023-12-06 14:16:46 +0000";
layers = (
{
anchors = (
{
name = bottom;
pos = (456,0);
},
{
name = top.case;
pos = (304,760);
}
);
layerId = m01;
shapes = (
{
closed = 1;
nodes = (
(38,0,l),
(190,0,l),
(190,190,l),
(380,190,l),
(380,0,l),
(532,0,l),
(532,570,l),
(494,570,l),
(494,608,l),
(456,608,l),
(456,646,l),
(418,646,l),
(418,684,l),
(380,684,l),
(380,722,l),
(342,722,l),
(342,760,l),
(228,760,l),
(228,722,l),
(190,722,l),
(190,684,l),
(152,684,l),
(152,646,l),
(114,646,l),
(114,608,l),
(76,608,l),
(76,570,l),
(38,570,l)
);
},
{
closed = 1;
nodes = (
(190,836,l),
(190,798,l),
(380,798,l),
(380,836,l),
(418,836,l),
(418,950,l),
(342,950,l),
(342,874,l),
(228,874,l),
(228,950,l),
(152,950,l),
(152,836,l)
);
},
{
closed = 1;
nodes = (
(190,494,l),
(228,494,l),
(228,532,l),
(266,532,l),
(266,570,l),
(304,570,l),
(304,532,l),
(342,532,l),
(342,494,l),
(380,494,l),
(380,342,l),
(190,342,l)
);
}
);
width = 608;
},
{
anchors = (
{
name = bottom;
pos = (456,0);
},
{
name = top.case;
pos = (304,760);
}
);
layerId = m002;
shapes = (
{
closed = 1;
nodes = (
(38,0,l),
(190,0,l),
(190,190,l),
(380,190,l),
(380,0,l),
(532,0,l),
(532,570,l),
(494,570,l),
(494,608,l),
(456,608,l),
(456,646,l),
(418,646,l),
(418,684,l),
(380,684,l),
(380,722,l),
(342,722,l),
(342,760,l),
(228,760,l),
(228,722,l),
(190,722,l),
(190,684,l),
(152,684,l),
(152,646,l),
(114,646,l),
(114,608,l),
(76,608,l),
(76,570,l),
(38,570,l)
);
},
{
closed = 1;
nodes = (
(190,836,l),
(190,798,l),
(380,798,l),
(380,836,l),
(418,836,l),
(418,950,l),
(342,950,l),
(342,874,l),
(228,874,l),
(228,950,l),
(152,950,l),
(152,836,l)
);
},
{
closed = 1;
nodes = (
(190,494,l),
(228,494,l),
(228,532,l),
(266,532,l),
(266,570,l),
(304,570,l),
(304,532,l),
(342,532,l),
(342,494,l),
(380,494,l),
(380,342,l),
(190,342,l)
);
}
);
width = 608;
}
);
},
{
color = 9;
glyphname = Abreve.25;
lastChange = "2023-12-06 14:16:46 +0000";
layers = (
{
anchors = (
{
name = bottom;
pos = (510,0);
},
{
name = top.case;
pos = (300,750);
}
);
layerId = m01;
shapes = (
{
closed = 1;
nodes = (
(210,0,l),
(60,0,l),
(60,570,l),
(90,570,l),
(90,600,l),
(120,600,l),
(120,630,l),
(150,630,l),
(150,660,l),
(180,660,l),
(180,690,l),
(210,690,l),
(210,720,l),
(240,720,l),
(240,750,l),
(360,750,l),
(360,720,l),
(390,720,l),
(390,690,l),
(420,690,l),
(420,660,l),
(450,660,l),
(450,630,l),
(480,630,l),
(480,600,l),
(510,600,l),
(510,570,l),
(540,570,l),
(540,0,l),
(390,0,l),
(390,180,l),
(210,180,l)
);
},
{
closed = 1;
nodes = (
(150,960,l),
(240,960,l),
(240,900,l),
(360,900,l),
(360,960,l),
(450,960,l),
(450,870,l),
(420,870,l),
(420,840,l),
(390,840,l),
(390,810,l),
(210,810,l),
(210,840,l),
(180,840,l),
(180,870,l),
(150,870,l)
);
},
{
closed = 1;
nodes = (
(390,330,l),
(390,510,l),
(360,510,l),
(360,540,l),
(330,540,l),
(330,570,l),
(270,570,l),
(270,540,l),
(240,540,l),
(240,510,l),
(210,510,l),
(210,330,l)
);
}
);
width = 600;
},
{
anchors = (
{
name = bottom;
pos = (510,0);
},
{
name = top.case;
pos = (300,750);
}
);
layerId = m002;
shapes = (
{
closed = 1;
nodes = (
(210,0,l),
(60,0,l),
(60,570,l),
(90,570,l),
(90,600,l),
(120,600,l),
(120,630,l),
(150,630,l),
(150,660,l),
(180,660,l),
(180,690,l),
(210,690,l),
(210,720,l),
(240,720,l),
(240,750,l),
(360,750,l),
(360,720,l),
(390,720,l),
(390,690,l),
(420,690,l),
(420,660,l),
(450,660,l),
(450,630,l),
(480,630,l),
(480,600,l),
(510,600,l),
(510,570,l),
(540,570,l),
(540,0,l),
(390,0,l),
(390,180,l),
(210,180,l)
);
},
{
closed = 1;
nodes = (
(150,960,l),
(240,960,l),
(240,900,l),
(360,900,l),
(360,960,l),
(450,960,l),
(450,870,l),
(420,870,l),
(420,840,l),
(390,840,l),
(390,810,l),
(210,810,l),
(210,840,l),
(180,840,l),
(180,870,l),
(150,870,l)
);
},
{
closed = 1;
nodes = (
(390,330,l),
(390,510,l),
(360,510,l),
(360,540,l),
(330,540,l),
(330,570,l),
(270,570,l),
(270,540,l),
(240,540,l),
(240,510,l),
(210,510,l),
(210,330,l)
);
}
);
width = 600;
}
);
},
{
color = 1;
glyphname = Acircumflex.15;
lastChange = "2023-12-06 14:16:46 +0000";
layers = (
{
anchors = (
{
name = bottom;
pos = (450,0);
},
{
name = top.case;
pos = (300,750);
}
);
layerId = m01;
shapes = (
{
closed = 1;
nodes = (
(250,700,l),
(200,700,l),
(200,650,l),
(150,650,l),
(150,600,l),
(100,600,l),
(100,550,l),
(50,550,l),
(50,0,l),
(200,0,l),
(200,200,l),
(400,200,l),
(400,0,l),
(550,0,l),
(550,550,l),
(500,550,l),
(500,600,l),
(450,600,l),
(450,650,l),
(400,650,l),
(400,700,l),
(350,700,l),
(350,750,l),
(250,750,l)
);
},
{
closed = 1;
nodes = (
(250,800,l),
(250,850,l),
(350,850,l),
(350,800,l),
(450,800,l),
(450,900,l),
(400,900,l),
(400,950,l),
(350,950,l),
(350,1000,l),
(250,1000,l),
(250,950,l),
(200,950,l),
(200,900,l),
(150,900,l),
(150,800,l)
);
},
{
closed = 1;
nodes = (
(200,500,l),
(250,500,l),
(250,550,l),
(350,550,l),
(350,500,l),
(400,500,l),
(400,350,l),
(200,350,l)
);
}
);
width = 600;
},
{
anchors = (
{
name = bottom;
pos = (450,0);
},
{
name = top.case;
pos = (300,750);
}
);
layerId = m002;
shapes = (
{
closed = 1;
nodes = (
(250,700,l),
(200,700,l),
(200,650,l),
(150,650,l),
(150,600,l),
(100,600,l),
(100,550,l),
(50,550,l),
(50,0,l),
(200,0,l),
(200,200,l),
(400,200,l),
(400,0,l),
(550,0,l),
(550,550,l),
(500,550,l),
(500,600,l),
(450,600,l),
(450,650,l),
(400,650,l),
(400,700,l),
(350,700,l),
(350,750,l),
(250,750,l)
);
},
{
closed = 1;
nodes = (
(250,800,l),
(250,850,l),
(350,850,l),
(350,800,l),
(450,800,l),
(450,900,l),
(400,900,l),
(400,950,l),
(350,950,l),
(350,1000,l),
(250,1000,l),
(250,950,l),
(200,950,l),
(200,900,l),
(150,900,l),
(150,800,l)
);
},
{
closed = 1;
nodes = (
(200,500,l),
(250,500,l),
(250,550,l),
(350,550,l),
(350,500,l),
(400,500,l),
(400,350,l),
(200,350,l)
);
}
);
width = 600;
}
);
},
{
color = 4;
glyphname = Acircumflex.20;
lastChange = "2023-12-06 14:16:46 +0000";
layers = (
{
anchors = (
{
name = bottom;
pos = (304,0);
}
);
layerId = m01;
shapes = (
{
closed = 1;
nodes = (
(38,0,l),
(190,0,l),
(190,190,l),
(380,190,l),
(380,0,l),
(532,0,l),
(532,570,l),
(494,570,l),
(494,608,l),
(456,608,l),
(456,646,l),
(418,646,l),
(418,684,l),
(380,684,l),
(380,722,l),
(342,722,l),
(342,760,l),
(228,760,l),
(228,722,l),
(190,722,l),
(190,684,l),
(152,684,l),
(152,646,l),
(114,646,l),
(114,608,l),
(76,608,l),
(76,570,l),
(38,570,l)
);
},
{
closed = 1;
nodes = (
(228,798,l),
(228,836,l),
(266,836,l),
(266,874,l),
(304,874,l),
(304,836,l),
(342,836,l),
(342,798,l),
(418,798,l),
(418,874,l),
(380,874,l),
(380,912,l),
(342,912,l),
(342,950,l),
(228,950,l),
(228,912,l),
(190,912,l),
(190,874,l),
(152,874,l),
(152,798,l)
);
},
{
closed = 1;
nodes = (
(190,494,l),
(228,494,l),
(228,532,l),
(266,532,l),
(266,570,l),
(304,570,l),
(304,532,l),
(342,532,l),
(342,494,l),
(380,494,l),
(380,342,l),
(190,342,l)
);
}
);
width = 608;
},
{
anchors = (
{
name = bottom;
pos = (304,0);
}
);
layerId = m002;
shapes = (
{
closed = 1;
nodes = (
(38,0,l),
(190,0,l),
(190,190,l),
(380,190,l),
(380,0,l),
(532,0,l),
(532,570,l),
(494,570,l),
(494,608,l),
(456,608,l),
(456,646,l),
(418,646,l),
(418,684,l),
(380,684,l),
(380,722,l),
(342,722,l),
(342,760,l),
(228,760,l),
(228,722,l),
(190,722,l),
(190,684,l),
(152,684,l),
(152,646,l),
(114,646,l),
(114,608,l),
(76,608,l),
(76,570,l),
(38,570,l)
);
},
{
closed = 1;
nodes = (
(228,798,l),
(228,836,l),
(266,836,l),
(266,874,l),
(304,874,l),
(304,836,l),
(342,836,l),
(342,798,l),
(418,798,l),
(418,874,l),
(380,874,l),
(380,912,l),
(342,912,l),
(342,950,l),
(228,950,l),
(228,912,l),
(190,912,l),
(190,874,l),
(152,874,l),
(152,798,l)
);
},
{
closed = 1;
nodes = (
(190,494,l),
(228,494,l),
(228,532,l),
(266,532,l),
(266,570,l),
(304,570,l),
(304,532,l),
(342,532,l),
(342,494,l),
(380,494,l),
(380,342,l),
(190,342,l)
);
}
);
width = 608;
}
);
},
{
color = 9;
glyphname = Acircumflex.25;
lastChange = "2023-12-06 14:16:46 +0000";
layers = (
{
anchors = (
{
name = bottom;
pos = (510,0);
},
{
name = top.case;
pos = (300,750);
}
);
layerId = m01;
shapes = (
{
closed = 1;
nodes = (
(210,0,l),
(60,0,l),
(60,570,l),
(90,570,l),
(90,600,l),
(120,600,l),
(120,630,l),
(150,630,l),
(150,660,l),
(180,660,l),
(180,690,l),
(210,690,l),
(210,720,l),
(240,720,l),
(240,750,l),
(360,750,l),
(360,720,l),
(390,720,l),
(390,690,l),
(420,690,l),
(420,660,l),
(450,660,l),
(450,630,l),
(480,630,l),
(480,600,l),
(510,600,l),
(510,570,l),
(540,570,l),
(540,0,l),
(390,0,l),
(390,180,l),
(210,180,l)
);
},
{
closed = 1;
nodes = (
(150,870,l),
(180,870,l),
(180,900,l),
(210,900,l),
(210,930,l),
(240,930,l),
(240,960,l),
(360,960,l),
(360,930,l),
(390,930,l),
(390,900,l),
(420,900,l),
(420,870,l),
(450,870,l),
(450,810,l),
(360,810,l),
(360,840,l),
(330,840,l),
(330,870,l),
(270,870,l),
(270,840,l),
(240,840,l),
(240,810,l),
(150,810,l)
);
},
{
closed = 1;
nodes = (
(390,330,l),
(390,510,l),
(360,510,l),
(360,540,l),
(330,540,l),
(330,570,l),
(270,570,l),
(270,540,l),
(240,540,l),
(240,510,l),
(210,510,l),
(210,330,l)
);
}
);
width = 600;
},
{
anchors = (
{
name = bottom;
pos = (510,0);
},
{
name = top.case;
pos = (300,750);
}
);
layerId = m002;
shapes = (
{
closed = 1;
nodes = (
(210,0,l),
(60,0,l),
(60,570,l),
(90,570,l),
(90,600,l),
(120,600,l),
(120,630,l),
(150,630,l),
(150,660,l),
(180,660,l),
(180,690,l),
(210,690,l),
(210,720,l),
(240,720,l),
(240,750,l),
(360,750,l),
(360,720,l),
(390,720,l),
(390,690,l),
(420,690,l),
(420,660,l),
(450,660,l),
(450,630,l),
(480,630,l),
(480,600,l),
(510,600,l),
(510,570,l),
(540,570,l),
(540,0,l),
(390,0,l),
(390,180,l),
(210,180,l)
);
},
{
closed = 1;
nodes = (
(150,870,l),
(180,870,l),
(180,900,l),
(210,900,l),
(210,930,l),
(240,930,l),
(240,960,l),
(360,960,l),
(360,930,l),
(390,930,l),
(390,900,l),
(420,900,l),
(420,870,l),
(450,870,l),
(450,810,l),
(360,810,l),
(360,840,l),
(330,840,l),
(330,870,l),
(270,870,l),
(270,840,l),
(240,840,l),
(240,810,l),
(150,810,l)
);
},
{
closed = 1;
nodes = (
(390,330,l),
(390,510,l),
(360,510,l),
(360,540,l),
(330,540,l),
(330,570,l),
(270,570,l),
(270,540,l),
(240,540,l),
(240,510,l),
(210,510,l),
(210,330,l)
);
}
);
width = 600;
}
);
},
{
color = 1;
glyphname = Adieresis.15;
lastChange = "2023-12-06 14:16:46 +0000";
layers = (
{
anchors = (
{
name = bottom;
pos = (450,0);
},
{
name = top.case;
pos = (300,750);
}
);
layerId = m01;
shapes = (
{
closed = 1;
nodes = (
(250,700,l),
(200,700,l),
(200,650,l),
(150,650,l),
(150,600,l),
(100,600,l),
(100,550,l),
(50,550,l),
(50,0,l),
(200,0,l),
(200,200,l),
(400,200,l),
(400,0,l),
(550,0,l),
(550,550,l),
(500,550,l),
(500,600,l),
(450,600,l),
(450,650,l),
(400,650,l),
(400,700,l),
(350,700,l),
(350,750,l),
(250,750,l)
);
},
{
closed = 1;
nodes = (
(250,850,l),
(250,1000,l),
(100,1000,l),
(100,850,l)
);
},
{
closed = 1;
nodes = (
(200,500,l),
(250,500,l),
(250,550,l),
(350,550,l),
(350,500,l),
(400,500,l),
(400,350,l),
(200,350,l)
);
},
{
closed = 1;
nodes = (
(500,850,l),
(500,1000,l),
(350,1000,l),
(350,850,l)
);
}
);
width = 600;
},
{
anchors = (
{
name = bottom;
pos = (450,0);
},
{
name = top.case;
pos = (300,750);
}
);
layerId = m002;
shapes = (
{
closed = 1;
nodes = (
(250,700,l),
(200,700,l),
(200,650,l),
(150,650,l),
(150,600,l),
(100,600,l),
(100,550,l),
(50,550,l),
(50,0,l),
(200,0,l),
(200,200,l),
(400,200,l),
(400,0,l),
(550,0,l),
(550,550,l),
(500,550,l),
(500,600,l),
(450,600,l),
(450,650,l),
(400,650,l),
(400,700,l),
(350,700,l),
(350,750,l),
(250,750,l)
);
},
{
closed = 1;
nodes = (
(250,850,l),
(250,1000,l),
(100,1000,l),
(100,850,l)
);
},
{
closed = 1;
nodes = (
(200,500,l),
(250,500,l),
(250,550,l),
(350,550,l),
(350,500,l),
(400,500,l),
(400,350,l),
(200,350,l)
);
},
{
closed = 1;
nodes = (
(500,850,l),
(500,1000,l),
(350,1000,l),
(350,850,l)
);
}
);
width = 600;
}
);
},
{
color = 4;
glyphname = Adieresis.20;
lastChange = "2023-12-06 14:16:46 +0000";
layers = (
{
anchors = (
{
name = bottom;
pos = (304,0);
}
);
layerId = m01;
shapes = (
{
closed = 1;
nodes = (
(38,0,l),
(190,0,l),
(190,190,l),
(380,190,l),
(380,0,l),
(532,0,l),
(532,570,l),
(494,570,l),
(494,608,l),
(456,608,l),
(456,646,l),
(418,646,l),
(418,684,l),
(380,684,l),
(380,722,l),
(342,722,l),
(342,760,l),
(228,760,l),
(228,722,l),
(190,722,l),
(190,684,l),
(152,684,l),
(152,646,l),
(114,646,l),
(114,608,l),
(76,608,l),
(76,570,l),
(38,570,l)
);
},
{
closed = 1;
nodes = (
(152,836,l),
(152,798,l),
(228,798,l),
(228,836,l),
(266,836,l),
(266,912,l),
(228,912,l),
(228,950,l),
(152,950,l),
(152,912,l),
(114,912,l),
(114,836,l)
);
},
{
closed = 1;
nodes = (
(190,494,l),
(228,494,l),
(228,532,l),
(266,532,l),
(266,570,l),
(304,570,l),
(304,532,l),
(342,532,l),
(342,494,l),
(380,494,l),
(380,342,l),
(190,342,l)
);
},
{
closed = 1;
nodes = (
(342,836,l),
(342,798,l),
(418,798,l),
(418,836,l),
(456,836,l),
(456,912,l),
(418,912,l),
(418,950,l),
(342,950,l),
(342,912,l),
(304,912,l),
(304,836,l)
);
}
);
width = 608;
},
{
anchors = (
{
name = bottom;
pos = (304,0);
}
);
layerId = m002;
shapes = (
{
closed = 1;
nodes = (
(38,0,l),
(190,0,l),
(190,190,l),
(380,190,l),
(380,0,l),
(532,0,l),
(532,570,l),
(494,570,l),
(494,608,l),
(456,608,l),
(456,646,l),
(418,646,l),
(418,684,l),
(380,684,l),
(380,722,l),
(342,722,l),
(342,760,l),
(228,760,l),
(228,722,l),
(190,722,l),
(190,684,l),
(152,684,l),
(152,646,l),
(114,646,l),
(114,608,l),
(76,608,l),
(76,570,l),
(38,570,l)
);
},
{
closed = 1;
nodes = (
(152,836,l),
(152,798,l),
(228,798,l),
(228,836,l),
(266,836,l),
(266,912,l),
(228,912,l),
(228,950,l),
(152,950,l),
(152,912,l),
(114,912,l),
(114,836,l)
);
},
{
closed = 1;
nodes = (
(190,494,l),
(228,494,l),
(228,532,l),
(266,532,l),
(266,570,l),
(304,570,l),
(304,532,l),
(342,532,l),
(342,494,l),
(380,494,l),
(380,342,l),
(190,342,l)
);
},
{
closed = 1;
nodes = (
(342,836,l),
(342,798,l),
(418,798,l),
(418,836,l),
(456,836,l),
(456,912,l),
(418,912,l),
(418,950,l),
(342,950,l),
(342,912,l),
(304,912,l),
(304,836,l)
);
}
);
width = 608;
}
);
},
{
color = 9;
glyphname = Adieresis.25;
lastChange = "2023-12-06 14:16:46 +0000";
layers = (
{
anchors = (
{
name = bottom;
pos = (510,0);
},
{
name = top.case;
pos = (300,750);
}
);
layerId = m01;
shapes = (
{
closed = 1;
nodes = (
(210,0,l),
(60,0,l),
(60,570,l),
(90,570,l),
(90,600,l),
(120,600,l),
(120,630,l),
(150,630,l),
(150,660,l),
(180,660,l),
(180,690,l),
(210,690,l),
(210,720,l),
(240,720,l),
(240,750,l),
(360,750,l),
(360,720,l),
(390,720,l),
(390,690,l),
(420,690,l),
(420,660,l),
(450,660,l),
(450,630,l),
(480,630,l),
(480,600,l),
(510,600,l),
(510,570,l),
(540,570,l),
(540,0,l),
(390,0,l),
(390,180,l),
(210,180,l)
);
},
{
closed = 1;
nodes = (
(150,900,l),
(180,900,l),
(180,930,l),
(240,930,l),
(240,900,l),
(270,900,l),
(270,840,l),
(240,840,l),
(240,810,l),
(180,810,l),
(180,840,l),
(150,840,l)
);
},
{
closed = 1;
nodes = (
(390,330,l),
(390,510,l),
(360,510,l),
(360,540,l),
(330,540,l),
(330,570,l),
(270,570,l),
(270,540,l),
(240,540,l),
(240,510,l),
(210,510,l),
(210,330,l)
);
},
{
closed = 1;
nodes = (
(330,900,l),
(360,900,l),
(360,930,l),
(420,930,l),
(420,900,l),
(450,900,l),
(450,840,l),
(420,840,l),
(420,810,l),
(360,810,l),
(360,840,l),
(330,840,l)
);
}
);
width = 600;
},
{
anchors = (
{
name = bottom;
pos = (510,0);
},
{
name = top.case;
pos = (300,750);
}
);
layerId = m002;
shapes = (
{
closed = 1;
nodes = (
(210,0,l),
(60,0,l),
(60,570,l),
(90,570,l),
(90,600,l),
(120,600,l),
(120,630,l),
(150,630,l),
(150,660,l),
(180,660,l),
(180,690,l),
(210,690,l),
(210,720,l),
(240,720,l),
(240,750,l),
(360,750,l),
(360,720,l),
(390,720,l),
(390,690,l),
(420,690,l),
(420,660,l),
(450,660,l),
(450,630,l),
(480,630,l),
(480,600,l),
(510,600,l),
(510,570,l),
(540,570,l),
(540,0,l),
(390,0,l),
(390,180,l),
(210,180,l)
);
},
{
closed = 1;
nodes = (
(150,900,l),
(180,900,l),
(180,930,l),
(240,930,l),
(240,900,l),
(270,900,l),
(270,840,l),
(240,840,l),
(240,810,l),
(180,810,l),
(180,840,l),
(150,840,l)
);
},
{
closed = 1;
nodes = (
(390,330,l),
(390,510,l),
(360,510,l),
(360,540,l),
(330,540,l),
(330,570,l),
(270,570,l),
(270,540,l),
(240,540,l),
(240,510,l),
(210,510,l),
(210,330,l)
);
},
{
closed = 1;
nodes = (
(330,900,l),
(360,900,l),
(360,930,l),
(420,930,l),
(420,900,l),
(450,900,l),
(450,840,l),
(420,840,l),
(420,810,l),
(360,810,l),
(360,840,l),
(330,840,l)
);
}
);
width = 600;
}
);
},
{
color = 1;
glyphname = Agrave.15;
lastChange = "2023-12-06 14:16:46 +0000";
layers = (
{
anchors = (
{
name = bottom;
pos = (450,0);
},
{
name = top.case;
pos = (300,750);
}
);
layerId = m01;
shapes = (
{
closed = 1;
nodes = (
(250,700,l),
(200,700,l),
(200,650,l),
(150,650,l),
(150,600,l),
(100,600,l),
(100,550,l),
(50,550,l),
(50,0,l),
(200,0,l),
(200,200,l),
(400,200,l),
(400,0,l),
(550,0,l),
(550,550,l),
(500,550,l),
(500,600,l),
(450,600,l),
(450,650,l),
(400,650,l),
(400,700,l),
(350,700,l),
(350,750,l),
(250,750,l)
);
},
{
closed = 1;
nodes = (
(200,500,l),
(250,500,l),
(250,550,l),
(350,550,l),
(350,500,l),
(400,500,l),
(400,350,l),
(200,350,l)
);
},
{
closed = 1;
nodes = (
(250,900,l),
(250,850,l),
(300,850,l),
(300,800,l),
(400,800,l),
(400,900,l),
(350,900,l),
(350,950,l),
(300,950,l),
(300,1000,l),
(200,1000,l),
(200,900,l)
);
}
);
width = 600;
},
{
anchors = (
{
name = bottom;
pos = (450,0);
},
{
name = top.case;
pos = (300,750);
}
);
layerId = m002;
shapes = (
{
closed = 1;
nodes = (
(250,700,l),
(200,700,l),
(200,650,l),
(150,650,l),
(150,600,l),
(100,600,l),
(100,550,l),
(50,550,l),
(50,0,l),
(200,0,l),
(200,200,l),
(400,200,l),
(400,0,l),
(550,0,l),
(550,550,l),
(500,550,l),
(500,600,l),
(450,600,l),
(450,650,l),
(400,650,l),
(400,700,l),
(350,700,l),
(350,750,l),
(250,750,l)
);
},
{
closed = 1;
nodes = (
(200,500,l),
(250,500,l),
(250,550,l),
(350,550,l),
(350,500,l),
(400,500,l),
(400,350,l),
(200,350,l)
);
},
{
closed = 1;
nodes = (
(250,900,l),
(250,850,l),
(300,850,l),
(300,800,l),
(400,800,l),
(400,900,l),
(350,900,l),
(350,950,l),
(300,950,l),
(300,1000,l),
(200,1000,l),
(200,900,l)
);
}
);
width = 600;
}
);
},
{
color = 4;
glyphname = Agrave.20;
lastChange = "2023-12-06 14:16:46 +0000";
layers = (
{
anchors = (
{
name = bottom;
pos = (456,0);
},
{
name = top.case;
pos = (304,760);
}
);
layerId = m01;
shapes = (
{
closed = 1;
nodes = (
(38,0,l),
(190,0,l),
(190,190,l),
(380,190,l),
(380,0,l),
(532,0,l),
(532,570,l),
(494,570,l),
(494,608,l),
(456,608,l),
(456,646,l),
(418,646,l),
(418,684,l),
(380,684,l),
(380,722,l),
(342,722,l),
(342,760,l),
(228,760,l),
(228,722,l),
(190,722,l),
(190,684,l),
(152,684,l),
(152,646,l),
(114,646,l),
(114,608,l),
(76,608,l),
(76,570,l),
(38,570,l)
);
},
{
closed = 1;
nodes = (
(190,494,l),
(228,494,l),
(228,532,l),
(266,532,l),
(266,570,l),
(304,570,l),
(304,532,l),
(342,532,l),
(342,494,l),
(380,494,l),
(380,342,l),
(190,342,l)
);
},
{
closed = 1;
nodes = (
(228,874,l),
(228,836,l),
(266,836,l),
(266,798,l),
(380,798,l),
(380,874,l),
(342,874,l),
(342,912,l),
(304,912,l),
(304,950,l),
(190,950,l),
(190,874,l)
);
}
);
width = 608;
},
{
anchors = (
{
name = bottom;
pos = (456,0);
},
{
name = top.case;
pos = (304,760);
}
);
layerId = m002;
shapes = (
{
closed = 1;
nodes = (
(38,0,l),
(190,0,l),
(190,190,l),
(380,190,l),
(380,0,l),
(532,0,l),
(532,570,l),
(494,570,l),
(494,608,l),
(456,608,l),
(456,646,l),
(418,646,l),
(418,684,l),
(380,684,l),
(380,722,l),
(342,722,l),
(342,760,l),
(228,760,l),
(228,722,l),
(190,722,l),
(190,684,l),
(152,684,l),
(152,646,l),
(114,646,l),
(114,608,l),
(76,608,l),
(76,570,l),
(38,570,l)
);
},
{
closed = 1;
nodes = (
(190,494,l),
(228,494,l),
(228,532,l),
(266,532,l),
(266,570,l),
(304,570,l),
(304,532,l),
(342,532,l),
(342,494,l),
(380,494,l),
(380,342,l),
(190,342,l)
);
},
{
closed = 1;
nodes = (
(228,874,l),
(228,836,l),
(266,836,l),
(266,798,l),
(380,798,l),
(380,874,l),
(342,874,l),
(342,912,l),
(304,912,l),
(304,950,l),
(190,950,l),
(190,874,l)
);
}
);
width = 608;
}
);
},
{
color = 9;
glyphname = Agrave.25;
lastChange = "2023-12-06 14:16:46 +0000";
layers = (
{
anchors = (
{
name = bottom;
pos = (510,0);
},
{
name = top.case;
pos = (300,750);
}
);
layerId = m01;
shapes = (
{
closed = 1;
nodes = (
(210,0,l),
(60,0,l),
(60,570,l),
(90,570,l),
(90,600,l),
(120,600,l),
(120,630,l),
(150,630,l),
(150,660,l),
(180,660,l),
(180,690,l),
(210,690,l),
(210,720,l),
(240,720,l),
(240,750,l),
(360,750,l),
(360,720,l),
(390,720,l),
(390,690,l),
(420,690,l),
(420,660,l),
(450,660,l),
(450,630,l),
(480,630,l),
(480,600,l),
(510,600,l),
(510,570,l),
(540,570,l),
(540,0,l),
(390,0,l),
(390,180,l),
(210,180,l)
);
},
{
closed = 1;
nodes = (
(390,330,l),
(390,510,l),
(360,510,l),
(360,540,l),
(330,540,l),
(330,570,l),
(270,570,l),
(270,540,l),
(240,540,l),
(240,510,l),
(210,510,l),
(210,330,l)
);
},
{
closed = 1;
nodes = (
(210,960,l),
(300,960,l),
(300,930,l),
(330,930,l),
(330,900,l),
(360,900,l),
(360,870,l),
(390,870,l),
(390,780,l),
(300,780,l),
(300,810,l),
(270,810,l),
(270,840,l),
(240,840,l),
(240,870,l),
(210,870,l)
);
}
);
width = 600;
},
{
anchors = (
{
name = bottom;
pos = (510,0);
},
{
name = top.case;
pos = (300,750);
}
);
layerId = m002;
shapes = (
{
closed = 1;
nodes = (
(210,0,l),
(60,0,l),
(60,570,l),
(90,570,l),
(90,600,l),
(120,600,l),
(120,630,l),
(150,630,l),
(150,660,l),
(180,660,l),
(180,690,l),
(210,690,l),
(210,720,l),
(240,720,l),
(240,750,l),
(360,750,l),
(360,720,l),
(390,720,l),
(390,690,l),
(420,690,l),
(420,660,l),
(450,660,l),
(450,630,l),
(480,630,l),
(480,600,l),
(510,600,l),
(510,570,l),
(540,570,l),
(540,0,l),
(390,0,l),
(390,180,l),
(210,180,l)
);
},
{
closed = 1;
nodes = (
(390,330,l),
(390,510,l),
(360,510,l),
(360,540,l),
(330,540,l),
(330,570,l),
(270,570,l),
(270,540,l),
(240,540,l),
(240,510,l),
(210,510,l),
(210,330,l)
);
},
{
closed = 1;
nodes = (
(210,960,l),
(300,960,l),
(300,930,l),
(330,930,l),
(330,900,l),
(360,900,l),
(360,870,l),
(390,870,l),
(390,780,l),
(300,780,l),
(300,810,l),
(270,810,l),
(270,840,l),
(240,840,l),
(240,870,l),
(210,870,l)
);
}
);
width = 600;
}
);
},
{
color = 1;
glyphname = Amacron.15;
lastChange = "2023-12-06 14:16:46 +0000";
layers = (
{
anchors = (
{
name = bottom;
pos = (450,0);
},
{
name = top.case;
pos = (300,750);
}
);
layerId = m01;
shapes = (
{
closed = 1;
nodes = (
(250,700,l),
(200,700,l),
(200,650,l),
(150,650,l),
(150,600,l),
(100,600,l),
(100,550,l),
(50,550,l),
(50,0,l),
(200,0,l),
(200,200,l),
(400,200,l),
(400,0,l),
(550,0,l),
(550,550,l),
(500,550,l),
(500,600,l),
(450,600,l),
(450,650,l),
(400,650,l),
(400,700,l),
(350,700,l),
(350,750,l),
(250,750,l)
);
},
{
closed = 1;
nodes = (
(450,850,l),
(450,950,l),
(150,950,l),
(150,850,l)
);
},
{
closed = 1;
nodes = (
(200,500,l),
(250,500,l),
(250,550,l),
(350,550,l),
(350,500,l),
(400,500,l),
(400,350,l),
(200,350,l)
);
}
);
width = 600;
},
{
anchors = (
{
name = bottom;
pos = (450,0);
},
{
name = top.case;
pos = (300,750);
}
);
layerId = m002;
shapes = (
{
closed = 1;
nodes = (
(250,700,l),
(200,700,l),
(200,650,l),
(150,650,l),
(150,600,l),
(100,600,l),
(100,550,l),
(50,550,l),
(50,0,l),
(200,0,l),
(200,200,l),
(400,200,l),
(400,0,l),
(550,0,l),
(550,550,l),
(500,550,l),
(500,600,l),
(450,600,l),
(450,650,l),
(400,650,l),
(400,700,l),
(350,700,l),
(350,750,l),
(250,750,l)
);
},
{
closed = 1;
nodes = (
(450,850,l),
(450,950,l),
(150,950,l),
(150,850,l)
);
},
{
closed = 1;
nodes = (
(200,500,l),
(250,500,l),
(250,550,l),
(350,550,l),
(350,500,l),
(400,500,l),
(400,350,l),
(200,350,l)
);
}
);
width = 600;
}
);
},
{
color = 4;
glyphname = Amacron.20;
lastChange = "2023-12-06 14:16:46 +0000";
layers = (
{
anchors = (
{
name = bottom;
pos = (456,0);
},
{
name = top.case;
pos = (304,760);
}
);
layerId = m01;
shapes = (
{
closed = 1;
nodes = (
(38,0,l),
(190,0,l),
(190,190,l),
(380,190,l),
(380,0,l),
(532,0,l),
(532,570,l),
(494,570,l),
(494,608,l),
(456,608,l),
(456,646,l),
(418,646,l),
(418,684,l),
(380,684,l),
(380,722,l),
(342,722,l),
(342,760,l),
(228,760,l),
(228,722,l),
(190,722,l),
(190,684,l),
(152,684,l),
(152,646,l),
(114,646,l),
(114,608,l),
(76,608,l),
(76,570,l),
(38,570,l)
);
},
{
closed = 1;
nodes = (
(456,798,l),
(456,912,l),
(114,912,l),
(114,798,l)
);
},
{
closed = 1;
nodes = (
(190,494,l),
(228,494,l),
(228,532,l),
(266,532,l),
(266,570,l),
(304,570,l),
(304,532,l),
(342,532,l),
(342,494,l),
(380,494,l),
(380,342,l),
(190,342,l)
);
}
);
width = 608;
},
{
anchors = (
{
name = bottom;
pos = (456,0);
},
{
name = top.case;
pos = (304,760);
}
);
layerId = m002;
shapes = (
{
closed = 1;
nodes = (
(38,0,l),
(190,0,l),
(190,190,l),
(380,190,l),
(380,0,l),
(532,0,l),
(532,570,l),
(494,570,l),
(494,608,l),
(456,608,l),
(456,646,l),
(418,646,l),
(418,684,l),
(380,684,l),
(380,722,l),
(342,722,l),
(342,760,l),
(228,760,l),
(228,722,l),
(190,722,l),
(190,684,l),
(152,684,l),
(152,646,l),
(114,646,l),
(114,608,l),
(76,608,l),
(76,570,l),
(38,570,l)
);
},
{
closed = 1;
nodes = (
(456,798,l),
(456,912,l),
(114,912,l),
(114,798,l)
);
},
{
closed = 1;
nodes = (
(190,494,l),
(228,494,l),
(228,532,l),
(266,532,l),
(266,570,l),
(304,570,l),
(304,532,l),
(342,532,l),
(342,494,l),
(380,494,l),
(380,342,l),
(190,342,l)
);
}
);
width = 608;
}
);
},
{
color = 9;
glyphname = Amacron.25;
lastChange = "2023-12-06 14:16:46 +0000";
layers = (
{
anchors = (
{
name = bottom;
pos = (510,0);
},
{
name = top.case;
pos = (300,750);
}
);
layerId = m01;
shapes = (
{
closed = 1;
nodes = (
(210,0,l),
(60,0,l),
(60,570,l),
(90,570,l),
(90,600,l),
(120,600,l),
(120,630,l),
(150,630,l),
(150,660,l),
(180,660,l),
(180,690,l),
(210,690,l),
(210,720,l),
(240,720,l),
(240,750,l),
(360,750,l),
(360,720,l),
(390,720,l),
(390,690,l),
(420,690,l),
(420,660,l),
(450,660,l),
(450,630,l),
(480,630,l),
(480,600,l),
(510,600,l),
(510,570,l),
(540,570,l),
(540,0,l),
(390,0,l),
(390,180,l),
(210,180,l)
);
},
{
closed = 1;
nodes = (
(150,930,l),
(450,930,l),
(450,810,l),
(150,810,l)
);
},
{
closed = 1;
nodes = (
(390,330,l),
(390,510,l),
(360,510,l),
(360,540,l),
(330,540,l),
(330,570,l),
(270,570,l),
(270,540,l),
(240,540,l),
(240,510,l),
(210,510,l),
(210,330,l)
);
}
);
width = 600;
},
{
anchors = (
{
name = bottom;
pos = (510,0);
},
{
name = top.case;
pos = (300,750);
}
);
layerId = m002;
shapes = (
{
closed = 1;
nodes = (
(210,0,l),
(60,0,l),
(60,570,l),
(90,570,l),
(90,600,l),
(120,600,l),
(120,630,l),
(150,630,l),
(150,660,l),
(180,660,l),
(180,690,l),
(210,690,l),
(210,720,l),
(240,720,l),
(240,750,l),
(360,750,l),
(360,720,l),
(390,720,l),
(390,690,l),
(420,690,l),
(420,660,l),
(450,660,l),
(450,630,l),
(480,630,l),
(480,600,l),
(510,600,l),
(510,570,l),
(540,570,l),
(540,0,l),
(390,0,l),
(390,180,l),
(210,180,l)
);
},
{
closed = 1;
nodes = (
(150,930,l),
(450,930,l),
(450,810,l),
(150,810,l)
);
},
{
closed = 1;
nodes = (
(390,330,l),
(390,510,l),
(360,510,l),
(360,540,l),
(330,540,l),
(330,570,l),
(270,570,l),
(270,540,l),
(240,540,l),
(240,510,l),
(210,510,l),
(210,330,l)
);
}
);
width = 600;
}
);
},
{
color = 1;
glyphname = Aogonek.15;
lastChange = "2023-12-06 14:16:46 +0000";
layers = (
{
anchors = (
{
name = bottom;
pos = (450,0);
},
{
name = top.case;
pos = (300,750);
}
);
layerId = m01;
shapes = (
{
closed = 1;
nodes = (
(250,700,l),
(200,700,l),
(200,650,l),
(150,650,l),
(150,600,l),
(100,600,l),
(100,550,l),
(50,550,l),
(50,0,l),
(200,0,l),
(200,200,l),
(400,200,l),
(400,-50,l),
(350,-50,l),
(350,-100,l),
(300,-100,l),
(300,-200,l),
(350,-200,l),
(350,-250,l),
(550,-250,l),
(550,-150,l),
(400,-150,l),
(400,-100,l),
(450,-100,l),
(450,-50,l),
(500,-50,l),
(500,0,l),
(550,0,l),
(550,550,l),
(500,550,l),
(500,600,l),
(450,600,l),
(450,650,l),
(400,650,l),
(400,700,l),
(350,700,l),
(350,750,l),
(250,750,l)
);
},
{
closed = 1;
nodes = (
(200,500,l),
(250,500,l),
(250,550,l),
(350,550,l),
(350,500,l),
(400,500,l),
(400,350,l),
(200,350,l)
);
}
);
width = 600;
},
{
anchors = (
{
name = bottom;
pos = (450,0);
},
{
name = top.case;
pos = (300,750);
}
);
layerId = m002;
shapes = (
{
closed = 1;
nodes = (
(250,700,l),
(200,700,l),
(200,650,l),
(150,650,l),
(150,600,l),
(100,600,l),
(100,550,l),
(50,550,l),
(50,0,l),
(200,0,l),
(200,200,l),
(400,200,l),
(400,-50,l),
(350,-50,l),
(350,-100,l),
(300,-100,l),
(300,-200,l),
(350,-200,l),
(350,-250,l),
(550,-250,l),
(550,-150,l),
(400,-150,l),
(400,-100,l),
(450,-100,l),
(450,-50,l),
(500,-50,l),
(500,0,l),
(550,0,l),
(550,550,l),
(500,550,l),
(500,600,l),
(450,600,l),
(450,650,l),
(400,650,l),
(400,700,l),
(350,700,l),
(350,750,l),
(250,750,l)
);
},
{
closed = 1;
nodes = (
(200,500,l),
(250,500,l),
(250,550,l),
(350,550,l),
(350,500,l),
(400,500,l),
(400,350,l),
(200,350,l)
);
}
);
width = 600;
}
);
},
{
color = 4;
glyphname = Aogonek.20;
lastChange = "2023-12-06 14:16:46 +0000";
layers = (
{
anchors = (
{
name = bottom;
pos = (456,0);
},
{
name = top.case;
pos = (304,760);
}
);
layerId = m01;
shapes = (
{
closed = 1;
nodes = (
(38,0,l),
(190,0,l),
(190,190,l),
(380,190,l),
(380,0,l),
(418,0,l),
(418,-38,l),
(380,-38,l),
(380,-76,l),
(342,-76,l),
(342,-152,l),
(380,-152,l),
(380,-190,l),
(418,-190,l),
(418,-228,l),
(570,-228,l),
(570,-114,l),
(456,-114,l),
(456,-76,l),
(494,-76,l),
(494,-38,l),
(532,-38,l),
(532,570,l),
(494,570,l),
(494,608,l),
(456,608,l),
(456,646,l),
(418,646,l),
(418,684,l),
(380,684,l),
(380,722,l),
(342,722,l),
(342,760,l),
(228,760,l),
(228,722,l),
(190,722,l),
(190,684,l),
(152,684,l),
(152,646,l),
(114,646,l),
(114,608,l),
(76,608,l),
(76,570,l),
(38,570,l)
);
},
{
closed = 1;
nodes = (
(190,494,l),
(228,494,l),
(228,532,l),
(266,532,l),
(266,570,l),
(304,570,l),
(304,532,l),
(342,532,l),
(342,494,l),
(380,494,l),
(380,342,l),
(190,342,l)
);
}
);
width = 608;
},
{
anchors = (
{
name = bottom;
pos = (456,0);
},
{
name = top.case;
pos = (304,760);
}
);
layerId = m002;
shapes = (
{
closed = 1;
nodes = (
(38,0,l),
(190,0,l),
(190,190,l),
(380,190,l),
(380,0,l),
(418,0,l),
(418,-38,l),
(380,-38,l),
(380,-76,l),
(342,-76,l),
(342,-152,l),
(380,-152,l),
(380,-190,l),
(418,-190,l),
(418,-228,l),
(570,-228,l),
(570,-114,l),
(456,-114,l),
(456,-76,l),
(494,-76,l),
(494,-38,l),
(532,-38,l),
(532,570,l),
(494,570,l),
(494,608,l),
(456,608,l),
(456,646,l),
(418,646,l),
(418,684,l),
(380,684,l),
(380,722,l),
(342,722,l),
(342,760,l),
(228,760,l),
(228,722,l),
(190,722,l),
(190,684,l),
(152,684,l),
(152,646,l),
(114,646,l),
(114,608,l),
(76,608,l),
(76,570,l),
(38,570,l)
);
},
{
closed = 1;
nodes = (
(190,494,l),
(228,494,l),
(228,532,l),
(266,532,l),
(266,570,l),
(304,570,l),
(304,532,l),
(342,532,l),
(342,494,l),
(380,494,l),
(380,342,l),
(190,342,l)
);
}
);
width = 608;
}
);
},
{
color = 9;
glyphname = Aogonek.25;
lastChange = "2023-12-06 14:16:46 +0000";
layers = (
{
anchors = (
{
name = bottom;
pos = (510,0);
},
{
name = top.case;
pos = (300,750);
}
);
layerId = m01;
shapes = (
{
closed = 1;
nodes = (
(210,0,l),
(60,0,l),
(60,570,l),
(90,570,l),
(90,600,l),
(120,600,l),
(120,630,l),
(150,630,l),
(150,660,l),
(180,660,l),
(180,690,l),
(210,690,l),
(210,720,l),
(240,720,l),
(240,750,l),
(360,750,l),
(360,720,l),
(390,720,l),
(390,690,l),
(420,690,l),
(420,660,l),
(450,660,l),
(450,630,l),
(480,630,l),
(480,600,l),
(510,600,l),
(510,570,l),
(540,570,l),
(540,-60,l),
(510,-60,l),
(510,-90,l),
(480,-90,l),
(480,-150,l),
(570,-150,l),
(570,-240,l),
(450,-240,l),
(450,-210,l),
(420,-210,l),
(420,-180,l),
(390,-180,l),
(390,-90,l),
(420,-90,l),
(420,-60,l),
(450,-60,l),
(450,-30,l),
(480,-30,l),
(480,0,l),
(390,0,l),
(390,180,l),
(210,180,l)
);
},
{
closed = 1;
nodes = (
(390,330,l),
(390,510,l),
(360,510,l),
(360,540,l),
(330,540,l),
(330,570,l),
(270,570,l),
(270,540,l),
(240,540,l),
(240,510,l),
(210,510,l),
(210,330,l)
);
}
);
width = 600;
},
{
anchors = (
{
name = bottom;
pos = (510,0);
},
{
name = top.case;
pos = (300,750);
}
);
layerId = m002;
shapes = (
{
closed = 1;
nodes = (
(210,0,l),
(60,0,l),
(60,570,l),
(90,570,l),
(90,600,l),
(120,600,l),
(120,630,l),
(150,630,l),
(150,660,l),
(180,660,l),
(180,690,l),
(210,690,l),
(210,720,l),
(240,720,l),
(240,750,l),
(360,750,l),
(360,720,l),
(390,720,l),
(390,690,l),
(420,690,l),
(420,660,l),
(450,660,l),
(450,630,l),
(480,630,l),
(480,600,l),
(510,600,l),
(510,570,l),
(540,570,l),
(540,-60,l),
(510,-60,l),
(510,-90,l),
(480,-90,l),
(480,-150,l),
(570,-150,l),
(570,-240,l),
(450,-240,l),
(450,-210,l),
(420,-210,l),
(420,-180,l),
(390,-180,l),
(390,-90,l),
(420,-90,l),
(420,-60,l),
(450,-60,l),
(450,-30,l),
(480,-30,l),
(480,0,l),
(390,0,l),
(390,180,l),
(210,180,l)
);
},
{
closed = 1;
nodes = (
(390,330,l),
(390,510,l),
(360,510,l),
(360,540,l),
(330,540,l),
(330,570,l),
(270,570,l),
(270,540,l),
(240,540,l),
(240,510,l),
(210,510,l),
(210,330,l)
);
}
);
width = 600;
}
);
},
{
color = 1;
glyphname = Aring.15;
lastChange = "2023-12-06 14:16:46 +0000";
layers = (
{
anchors = (
{
name = bottom;
pos = (450,0);
},
{
name = top.case;
pos = (300,750);
}
);
layerId = m01;
shapes = (
{
closed = 1;
nodes = (
(250,700,l),
(200,700,l),
(200,650,l),
(150,650,l),
(150,600,l),
(100,600,l),
(100,550,l),
(50,550,l),
(50,0,l),
(200,0,l),
(200,200,l),
(400,200,l),
(400,0,l),
(550,0,l),
(550,550,l),
(500,550,l),
(500,600,l),
(450,600,l),
(450,650,l),
(400,650,l),
(400,700,l),
(350,700,l),
(350,750,l),
(250,750,l)
);
},
{
closed = 1;
nodes = (
(200,850,l),
(200,800,l),
(400,800,l),
(400,850,l),
(450,850,l),
(450,950,l),
(400,950,l),
(400,1000,l),
(350,1000,l),
(350,1050,l),
(250,1050,l),
(250,1000,l),
(200,1000,l),
(200,950,l),
(150,950,l),
(150,850,l)
);
},
{
closed = 1;
nodes = (
(200,500,l),
(250,500,l),
(250,550,l),
(350,550,l),
(350,500,l),
(400,500,l),
(400,350,l),
(200,350,l)
);
},
{
closed = 1;
nodes = (
(250,950,l),
(350,950,l),
(350,850,l),
(250,850,l)
);
}
);
width = 600;
},
{
anchors = (
{
name = bottom;
pos = (450,0);
},
{
name = top.case;
pos = (300,750);
}
);
layerId = m002;
shapes = (
{
closed = 1;
nodes = (
(250,700,l),
(200,700,l),
(200,650,l),
(150,650,l),
(150,600,l),
(100,600,l),
(100,550,l),
(50,550,l),
(50,0,l),
(200,0,l),
(200,200,l),
(400,200,l),
(400,0,l),
(550,0,l),
(550,550,l),
(500,550,l),
(500,600,l),
(450,600,l),
(450,650,l),
(400,650,l),
(400,700,l),
(350,700,l),
(350,750,l),
(250,750,l)
);
},
{
closed = 1;
nodes = (
(200,850,l),
(200,800,l),
(400,800,l),
(400,850,l),
(450,850,l),
(450,950,l),
(400,950,l),
(400,1000,l),
(350,1000,l),
(350,1050,l),
(250,1050,l),
(250,1000,l),
(200,1000,l),
(200,950,l),
(150,950,l),
(150,850,l)
);
},
{
closed = 1;
nodes = (
(200,500,l),
(250,500,l),
(250,550,l),
(350,550,l),
(350,500,l),
(400,500,l),
(400,350,l),
(200,350,l)
);
},
{
closed = 1;
nodes = (
(250,950,l),
(350,950,l),
(350,850,l),
(250,850,l)
);
}
);
width = 600;
}
);
},
{
color = 4;
glyphname = Aring.20;
lastChange = "2023-12-06 14:16:46 +0000";
layers = (
{
anchors = (
{
name = bottom;
pos = (456,0);
},
{
name = top.case;
pos = (304,760);
}
);
layerId = m01;
shapes = (
{
closed = 1;
nodes = (
(38,0,l),
(190,0,l),
(190,190,l),
(380,190,l),
(380,0,l),
(532,0,l),
(532,570,l),
(494,570,l),
(494,608,l),
(456,608,l),
(456,646,l),
(418,646,l),
(418,684,l),
(380,684,l),
(380,722,l),
(342,722,l),
(342,760,l),
(228,760,l),
(228,722,l),
(190,722,l),
(190,684,l),
(152,684,l),
(152,646,l),
(114,646,l),
(114,608,l),
(76,608,l),
(76,570,l),
(38,570,l)
);
},
{
closed = 1;
nodes = (
(190,494,l),
(228,494,l),
(228,532,l),
(266,532,l),
(266,570,l),
(304,570,l),
(304,532,l),
(342,532,l),
(342,494,l),
(380,494,l),
(380,342,l),
(190,342,l)
);
},
{
closed = 1;
nodes = (
(228,836,l),
(228,798,l),
(380,798,l),
(380,836,l),
(418,836,l),
(418,988,l),
(380,988,l),
(380,1026,l),
(228,1026,l),
(228,988,l),
(190,988,l),
(190,836,l)
);
},
{
closed = 1;
nodes = (
(266,950,l),
(342,950,l),
(342,874,l),
(266,874,l)
);
}
);
width = 608;
},
{
anchors = (
{
name = bottom;
pos = (456,0);
},
{
name = top.case;
pos = (304,760);
}
);
layerId = m002;
shapes = (
{
closed = 1;
nodes = (
(38,0,l),
(190,0,l),
(190,190,l),
(380,190,l),
(380,0,l),
(532,0,l),
(532,570,l),
(494,570,l),
(494,608,l),
(456,608,l),
(456,646,l),
(418,646,l),
(418,684,l),
(380,684,l),
(380,722,l),
(342,722,l),
(342,760,l),
(228,760,l),
(228,722,l),
(190,722,l),
(190,684,l),
(152,684,l),
(152,646,l),
(114,646,l),
(114,608,l),
(76,608,l),
(76,570,l),
(38,570,l)
);
},
{
closed = 1;
nodes = (
(190,494,l),
(228,494,l),
(228,532,l),
(266,532,l),
(266,570,l),
(304,570,l),
(304,532,l),
(342,532,l),
(342,494,l),
(380,494,l),
(380,342,l),
(190,342,l)
);
},
{
closed = 1;
nodes = (
(228,836,l),
(228,798,l),
(380,798,l),
(380,836,l),
(418,836,l),
(418,988,l),
(380,988,l),
(380,1026,l),
(228,1026,l),
(228,988,l),
(190,988,l),
(190,836,l)
);
},
{
closed = 1;
nodes = (
(266,950,l),
(342,950,l),
(342,874,l),
(266,874,l)
);
}
);
width = 608;
}
);
},
{
color = 9;
glyphname = Aring.25;
lastChange = "2023-12-06 14:16:46 +0000";
layers = (
{
anchors = (
{
name = bottom;
pos = (510,0);
},
{
name = top.case;
pos = (300,750);
}
);
layerId = m01;
shapes = (
{
closed = 1;
nodes = (
(210,0,l),
(60,0,l),
(60,570,l),
(90,570,l),
(90,600,l),
(120,600,l),
(120,630,l),
(150,630,l),
(150,660,l),
(180,660,l),
(180,690,l),
(210,690,l),
(210,720,l),
(240,720,l),
(240,750,l),
(360,750,l),
(360,720,l),
(390,720,l),
(390,690,l),
(420,690,l),
(420,660,l),
(450,660,l),
(450,630,l),
(480,630,l),
(480,600,l),
(510,600,l),
(510,570,l),
(540,570,l),
(540,0,l),
(390,0,l),
(390,180,l),
(210,180,l)
);
},
{
closed = 1;
nodes = (
(390,330,l),
(390,510,l),
(360,510,l),
(360,540,l),
(330,540,l),
(330,570,l),
(270,570,l),
(270,540,l),
(240,540,l),
(240,510,l),
(210,510,l),
(210,330,l)
);
},
{
closed = 1;
nodes = (
(210,930,l),
(240,930,l),
(240,960,l),
(360,960,l),
(360,930,l),
(390,930,l),
(390,810,l),
(360,810,l),
(360,780,l),
(240,780,l),
(240,810,l),
(210,810,l)
);
},
{
closed = 1;
nodes = (
(330,840,l),
(330,900,l),
(270,900,l),
(270,840,l)
);
}
);
width = 600;
},
{
anchors = (
{
name = bottom;
pos = (510,0);
},
{
name = top.case;
pos = (300,750);
}
);
layerId = m002;
shapes = (
{
closed = 1;
nodes = (
(210,0,l),
(60,0,l),
(60,570,l),
(90,570,l),
(90,600,l),
(120,600,l),
(120,630,l),
(150,630,l),
(150,660,l),
(180,660,l),
(180,690,l),
(210,690,l),
(210,720,l),
(240,720,l),
(240,750,l),
(360,750,l),
(360,720,l),
(390,720,l),
(390,690,l),
(420,690,l),
(420,660,l),
(450,660,l),
(450,630,l),
(480,630,l),
(480,600,l),
(510,600,l),
(510,570,l),
(540,570,l),
(540,0,l),
(390,0,l),
(390,180,l),
(210,180,l)
);
},
{
closed = 1;
nodes = (
(390,330,l),
(390,510,l),
(360,510,l),
(360,540,l),
(330,540,l),
(330,570,l),
(270,570,l),
(270,540,l),
(240,540,l),
(240,510,l),
(210,510,l),
(210,330,l)
);
},
{
closed = 1;
nodes = (
(210,930,l),
(240,930,l),
(240,960,l),
(360,960,l),
(360,930,l),
(390,930,l),
(390,810,l),
(360,810,l),
(360,780,l),
(240,780,l),
(240,810,l),
(210,810,l)
);
},
{
closed = 1;
nodes = (
(330,840,l),
(330,900,l),
(270,900,l),
(270,840,l)
);
}
);
width = 600;
}
);
},
{
color = 1;
glyphname = Atilde.15;
lastChange = "2023-12-06 14:16:46 +0000";
layers = (
{
anchors = (
{
name = bottom;
pos = (450,0);
},
{
name = top.case;
pos = (300,750);
}
);
layerId = m01;
shapes = (
{
closed = 1;
nodes = (
(250,700,l),
(200,700,l),
(200,650,l),
(150,650,l),
(150,600,l),
(100,600,l),
(100,550,l),
(50,550,l),
(50,0,l),
(200,0,l),
(200,200,l),
(400,200,l),
(400,0,l),
(550,0,l),
(550,550,l),
(500,550,l),
(500,600,l),
(450,600,l),
(450,650,l),
(400,650,l),
(400,700,l),
(350,700,l),
(350,750,l),
(250,750,l)
);
},
{
closed = 1;
nodes = (
(200,800,l),
(200,850,l),
(350,850,l),
(350,800,l),
(400,800,l),
(400,850,l),
(450,850,l),
(450,1000,l),
(400,1000,l),
(400,950,l),
(250,950,l),
(250,1000,l),
(200,1000,l),
(200,950,l),
(150,950,l),
(150,800,l)
);
},
{
closed = 1;
nodes = (
(200,500,l),
(250,500,l),
(250,550,l),
(350,550,l),
(350,500,l),
(400,500,l),
(400,350,l),
(200,350,l)
);
}
);
width = 600;
},
{
anchors = (
{
name = bottom;
pos = (450,0);
},
{
name = top.case;
pos = (300,750);
}
);
layerId = m002;
shapes = (
{
closed = 1;
nodes = (
(250,700,l),
(200,700,l),
(200,650,l),
(150,650,l),
(150,600,l),
(100,600,l),
(100,550,l),
(50,550,l),
(50,0,l),
(200,0,l),
(200,200,l),
(400,200,l),
(400,0,l),
(550,0,l),
(550,550,l),
(500,550,l),
(500,600,l),
(450,600,l),
(450,650,l),
(400,650,l),
(400,700,l),
(350,700,l),
(350,750,l),
(250,750,l)
);
},
{
closed = 1;
nodes = (
(200,800,l),
(200,850,l),
(350,850,l),
(350,800,l),
(400,800,l),
(400,850,l),
(450,850,l),
(450,1000,l),
(400,1000,l),
(400,950,l),
(250,950,l),
(250,1000,l),
(200,1000,l),
(200,950,l),
(150,950,l),
(150,800,l)
);
},
{
closed = 1;
nodes = (
(200,500,l),
(250,500,l),
(250,550,l),
(350,550,l),
(350,500,l),
(400,500,l),
(400,350,l),
(200,350,l)
);
}
);
width = 600;
}
);
},
{
color = 4;
glyphname = Atilde.20;
lastChange = "2023-12-06 14:16:46 +0000";
layers = (
{
anchors = (
{
name = bottom;
pos = (456,0);
},
{
name = top.case;
pos = (304,760);
}
);
layerId = m01;
shapes = (
{
closed = 1;
nodes = (
(38,0,l),
(190,0,l),
(190,190,l),
(380,190,l),
(380,0,l),
(532,0,l),
(532,570,l),
(494,570,l),
(494,608,l),
(456,608,l),
(456,646,l),
(418,646,l),
(418,684,l),
(380,684,l),
(380,722,l),
(342,722,l),
(342,760,l),
(228,760,l),
(228,722,l),
(190,722,l),
(190,684,l),
(152,684,l),
(152,646,l),
(114,646,l),
(114,608,l),
(76,608,l),
(76,570,l),
(38,570,l)
);
},
{
closed = 1;
nodes = (
(228,798,l),
(228,836,l),
(304,836,l),
(304,798,l),
(418,798,l),
(418,836,l),
(456,836,l),
(456,950,l),
(380,950,l),
(380,912,l),
(304,912,l),
(304,950,l),
(190,950,l),
(190,912,l),
(152,912,l),
(152,798,l)
);
},
{
closed = 1;
nodes = (
(190,494,l),
(228,494,l),
(228,532,l),
(266,532,l),
(266,570,l),
(304,570,l),
(304,532,l),
(342,532,l),
(342,494,l),
(380,494,l),
(380,342,l),
(190,342,l)
);
}
);
width = 608;
},
{
anchors = (
{
name = bottom;
pos = (456,0);
},
{
name = top.case;
pos = (304,760);
}
);
layerId = m002;
shapes = (
{
closed = 1;
nodes = (
(38,0,l),
(190,0,l),
(190,190,l),
(380,190,l),
(380,0,l),
(532,0,l),
(532,570,l),
(494,570,l),
(494,608,l),
(456,608,l),
(456,646,l),
(418,646,l),
(418,684,l),
(380,684,l),
(380,722,l),
(342,722,l),
(342,760,l),
(228,760,l),
(228,722,l),
(190,722,l),
(190,684,l),
(152,684,l),
(152,646,l),
(114,646,l),
(114,608,l),
(76,608,l),
(76,570,l),
(38,570,l)
);
},
{
closed = 1;
nodes = (
(228,798,l),
(228,836,l),
(304,836,l),
(304,798,l),
(418,798,l),
(418,836,l),
(456,836,l),
(456,950,l),
(380,950,l),
(380,912,l),
(304,912,l),
(304,950,l),
(190,950,l),
(190,912,l),
(152,912,l),
(152,798,l)
);
},
{
closed = 1;
nodes = (
(190,494,l),
(228,494,l),
(228,532,l),
(266,532,l),
(266,570,l),
(304,570,l),
(304,532,l),
(342,532,l),
(342,494,l),
(380,494,l),
(380,342,l),
(190,342,l)
);
}
);
width = 608;
}
);
},
{
color = 9;
glyphname = Atilde.25;
lastChange = "2023-12-06 14:16:46 +0000";
layers = (
{
anchors = (
{
name = bottom;
pos = (510,0);
},
{
name = top.case;
pos = (300,750);
}
);
layerId = m01;
shapes = (
{
closed = 1;
nodes = (
(210,0,l),
(60,0,l),
(60,570,l),
(90,570,l),
(90,600,l),
(120,600,l),
(120,630,l),
(150,630,l),
(150,660,l),
(180,660,l),
(180,690,l),
(210,690,l),
(210,720,l),
(240,720,l),
(240,750,l),
(360,750,l),
(360,720,l),
(390,720,l),
(390,690,l),
(420,690,l),
(420,660,l),
(450,660,l),
(450,630,l),
(480,630,l),
(480,600,l),
(510,600,l),
(510,570,l),
(540,570,l),
(540,0,l),
(390,0,l),
(390,180,l),
(210,180,l)
);
},
{
closed = 1;
nodes = (
(120,930,l),
(150,930,l),
(150,960,l),
(180,960,l),
(180,990,l),
(300,990,l),
(300,960,l),
(330,960,l),
(330,930,l),
(360,930,l),
(360,960,l),
(390,960,l),
(390,990,l),
(480,990,l),
(480,870,l),
(450,870,l),
(450,840,l),
(420,840,l),
(420,810,l),
(300,810,l),
(300,840,l),
(270,840,l),
(270,870,l),
(240,870,l),
(240,840,l),
(210,840,l),
(210,810,l),
(120,810,l)
);
},
{
closed = 1;
nodes = (
(390,330,l),
(390,510,l),
(360,510,l),
(360,540,l),
(330,540,l),
(330,570,l),
(270,570,l),
(270,540,l),
(240,540,l),
(240,510,l),
(210,510,l),
(210,330,l)
);
}
);
width = 600;
},
{
anchors = (
{
name = bottom;
pos = (510,0);
},
{
name = top.case;
pos = (300,750);
}
);
layerId = m002;
shapes = (
{
closed = 1;
nodes = (
(210,0,l),
(60,0,l),
(60,570,l),
(90,570,l),
(90,600,l),
(120,600,l),
(120,630,l),
(150,630,l),
(150,660,l),
(180,660,l),
(180,690,l),
(210,690,l),
(210,720,l),
(240,720,l),
(240,750,l),
(360,750,l),
(360,720,l),
(390,720,l),
(390,690,l),
(420,690,l),
(420,660,l),
(450,660,l),
(450,630,l),
(480,630,l),
(480,600,l),
(510,600,l),
(510,570,l),
(540,570,l),
(540,0,l),
(390,0,l),
(390,180,l),
(210,180,l)
);
},
{
closed = 1;
nodes = (
(120,930,l),
(150,930,l),
(150,960,l),
(180,960,l),
(180,990,l),
(300,990,l),
(300,960,l),
(330,960,l),
(330,930,l),
(360,930,l),
(360,960,l),
(390,960,l),
(390,990,l),
(480,990,l),
(480,870,l),
(450,870,l),
(450,840,l),
(420,840,l),
(420,810,l),
(300,810,l),
(300,840,l),
(270,840,l),
(270,870,l),
(240,870,l),
(240,840,l),
(210,840,l),
(210,810,l),
(120,810,l)
);
},
{
closed = 1;
nodes = (
(390,330,l),
(390,510,l),
(360,510,l),
(360,540,l),
(330,540,l),
(330,570,l),
(270,570,l),
(270,540,l),
(240,540,l),
(240,510,l),
(210,510,l),
(210,330,l)
);
}
);
width = 600;
}
);
},
{
color = 1;
glyphname = AE.15;
lastChange = "2023-12-06 14:16:46 +0000";
layers = (
{
layerId = m01;
shapes = (
{
closed = 1;
nodes = (
(250,700,l),
(200,700,l),
(200,650,l),
(150,650,l),
(150,600,l),
(100,600,l),
(100,550,l),
(50,550,l),
(50,0,l),
(200,0,l),
(200,200,l),
(400,200,l),
(400,0,l),
(800,0,l),
(800,150,l),
(550,150,l),
(550,300,l),
(750,300,l),
(750,450,l),
(550,450,l),
(550,600,l),
(800,600,l),
(800,750,l),
(450,750,l),
(450,650,l),
(400,650,l),
(400,700,l),
(350,700,l),
(350,750,l),
(250,750,l)
);
},
{
closed = 1;
nodes = (
(200,500,l),
(250,500,l),
(250,550,l),
(350,550,l),
(350,500,l),
(400,500,l),
(400,350,l),
(200,350,l)
);
}
);
width = 850;
},
{
layerId = m002;
shapes = (
{
closed = 1;
nodes = (
(250,700,l),
(200,700,l),
(200,650,l),
(150,650,l),
(150,600,l),
(100,600,l),
(100,550,l),
(50,550,l),
(50,0,l),
(200,0,l),
(200,200,l),
(400,200,l),
(400,0,l),
(800,0,l),
(800,150,l),
(550,150,l),
(550,300,l),
(750,300,l),
(750,450,l),
(550,450,l),
(550,600,l),
(800,600,l),
(800,750,l),
(450,750,l),
(450,650,l),
(400,650,l),
(400,700,l),
(350,700,l),
(350,750,l),
(250,750,l)
);
},
{
closed = 1;
nodes = (
(200,500,l),
(250,500,l),
(250,550,l),
(350,550,l),
(350,500,l),
(400,500,l),
(400,350,l),
(200,350,l)
);
}
);
width = 850;
}
);
},
{
color = 4;
glyphname = AE.20;
lastChange = "2023-12-06 14:16:46 +0000";
layers = (
{
layerId = m01;
shapes = (
{
closed = 1;
nodes = (
(38,0,l),
(190,0,l),
(190,190,l),
(380,190,l),
(380,0,l),
(798,0,l),
(798,152,l),
(532,152,l),
(532,304,l),
(760,304,l),
(760,456,l),
(532,456,l),
(532,608,l),
(798,608,l),
(798,760,l),
(418,760,l),
(418,684,l),
(380,684,l),
(380,722,l),
(342,722,l),
(342,760,l),
(228,760,l),
(228,722,l),
(190,722,l),
(190,684,l),
(152,684,l),
(152,646,l),
(114,646,l),
(114,608,l),
(76,608,l),
(76,570,l),
(38,570,l)
);
},
{
closed = 1;
nodes = (
(190,494,l),
(228,494,l),
(228,532,l),
(266,532,l),
(266,570,l),
(304,570,l),
(304,532,l),
(342,532,l),
(342,494,l),
(380,494,l),
(380,342,l),
(190,342,l)
);
}
);
width = 874;
},
{
layerId = m002;
shapes = (
{
closed = 1;
nodes = (
(38,0,l),
(190,0,l),
(190,190,l),
(380,190,l),
(380,0,l),
(798,0,l),
(798,152,l),
(532,152,l),
(532,304,l),
(760,304,l),
(760,456,l),
(532,456,l),
(532,608,l),
(798,608,l),
(798,760,l),
(418,760,l),
(418,684,l),
(380,684,l),
(380,722,l),
(342,722,l),
(342,760,l),
(228,760,l),
(228,722,l),
(190,722,l),
(190,684,l),
(152,684,l),
(152,646,l),
(114,646,l),
(114,608,l),
(76,608,l),
(76,570,l),
(38,570,l)
);
},
{
closed = 1;
nodes = (
(190,494,l),
(228,494,l),
(228,532,l),
(266,532,l),
(266,570,l),
(304,570,l),
(304,532,l),
(342,532,l),
(342,494,l),
(380,494,l),
(380,342,l),
(190,342,l)
);
}
);
width = 874;
}
);
},
{
color = 9;
glyphname = AE.25;
lastChange = "2023-12-06 14:16:46 +0000";
layers = (
{
layerId = m01;
shapes = (
{
closed = 1;
nodes = (
(210,0,l),
(60,0,l),
(60,570,l),
(90,570,l),
(90,600,l),
(120,600,l),
(120,630,l),
(150,630,l),
(150,660,l),
(180,660,l),
(180,690,l),
(210,690,l),
(210,720,l),
(240,720,l),
(240,750,l),
(360,750,l),
(360,720,l),
(390,720,l),
(390,690,l),
(420,690,l),
(420,750,l),
(810,750,l),
(810,600,l),
(540,600,l),
(540,450,l),
(750,450,l),
(750,300,l),
(540,300,l),
(540,150,l),
(810,150,l),
(810,0,l),
(390,0,l),
(390,180,l),
(210,180,l)
);
},
{
closed = 1;
nodes = (
(390,330,l),
(390,510,l),
(360,510,l),
(360,540,l),
(330,540,l),
(330,570,l),
(270,570,l),
(270,540,l),
(240,540,l),
(240,510,l),
(210,510,l),
(210,330,l)
);
}
);
width = 870;
},
{
layerId = m002;
shapes = (
{
closed = 1;
nodes = (
(210,0,l),
(60,0,l),
(60,570,l),
(90,570,l),
(90,600,l),
(120,600,l),
(120,630,l),
(150,630,l),
(150,660,l),
(180,660,l),
(180,690,l),
(210,690,l),
(210,720,l),
(240,720,l),
(240,750,l),
(360,750,l),
(360,720,l),
(390,720,l),
(390,690,l),
(420,690,l),
(420,750,l),
(810,750,l),
(810,600,l),
(540,600,l),
(540,450,l),
(750,450,l),
(750,300,l),
(540,300,l),
(540,150,l),
(810,150,l),
(810,0,l),
(390,0,l),
(390,180,l),
(210,180,l)
);
},
{
closed = 1;
nodes = (
(390,330,l),
(390,510,l),
(360,510,l),
(360,540,l),
(330,540,l),
(330,570,l),
(270,570,l),
(270,540,l),
(240,540,l),
(240,510,l),
(210,510,l),
(210,330,l)
);
}
);
width = 870;
}
);
},
{
color = 1;
glyphname = B.15;
lastChange = "2023-12-06 14:16:46 +0000";
layers = (
{
layerId = m01;
shapes = (
{
closed = 1;
nodes = (
(50,0,l),
(450,0,l),
(450,50,l),
(500,50,l),
(500,100,l),
(550,100,l),
(550,350,l),
(500,350,l),
(500,400,l),
(550,400,l),
(550,650,l),
(500,650,l),
(500,700,l),
(450,700,l),
(450,750,l),
(50,750,l)
);
},
{
closed = 1;
nodes = (
(200,300,l),
(350,300,l),
(350,250,l),
(400,250,l),
(400,200,l),
(350,200,l),
(350,150,l),
(200,150,l)
);
},
{
closed = 1;
nodes = (
(200,600,l),
(350,600,l),
(350,550,l),
(400,550,l),
(400,500,l),
(350,500,l),
(350,450,l),
(200,450,l)
);
}
);
width = 600;
},
{
layerId = m002;
shapes = (
{
closed = 1;
nodes = (
(50,0,l),
(450,0,l),
(450,50,l),
(500,50,l),
(500,100,l),
(550,100,l),
(550,350,l),
(500,350,l),
(500,400,l),
(550,400,l),
(550,650,l),
(500,650,l),
(500,700,l),
(450,700,l),
(450,750,l),
(50,750,l)
);
},
{
closed = 1;
nodes = (
(200,300,l),
(350,300,l),
(350,250,l),
(400,250,l),
(400,200,l),
(350,200,l),
(350,150,l),
(200,150,l)
);
},
{
closed = 1;
nodes = (
(200,600,l),
(350,600,l),
(350,550,l),
(400,550,l),
(400,500,l),
(350,500,l),
(350,450,l),
(200,450,l)
);
}
);
width = 600;
}
);
},
{
color = 4;
glyphname = B.20;
lastChange = "2023-12-06 14:16:46 +0000";
layers = (
{
layerId = m01;
shapes = (
{
closed = 1;
nodes = (
(38,0,l),
(418,0,l),
(418,38,l),
(494,38,l),
(494,114,l),
(532,114,l),
(532,342,l),
(494,342,l),
(494,380,l),
(456,380,l),
(456,418,l),
(494,418,l),
(494,456,l),
(532,456,l),
(532,646,l),
(494,646,l),
(494,722,l),
(418,722,l),
(418,760,l),
(38,760,l)
);
},
{
closed = 1;
nodes = (
(190,304,l),
(342,304,l),
(342,266,l),
(380,266,l),
(380,190,l),
(342,190,l),
(342,152,l),
(190,152,l)
);
},
{
closed = 1;
nodes = (
(190,608,l),
(342,608,l),
(342,570,l),
(380,570,l),
(380,494,l),
(342,494,l),
(342,456,l),
(190,456,l)
);
}
);
width = 608;
},
{
layerId = m002;
shapes = (
{
closed = 1;
nodes = (
(38,0,l),
(418,0,l),
(418,38,l),
(494,38,l),
(494,114,l),
(532,114,l),
(532,342,l),
(494,342,l),
(494,380,l),
(456,380,l),
(456,418,l),
(494,418,l),
(494,456,l),
(532,456,l),
(532,646,l),
(494,646,l),
(494,722,l),
(418,722,l),
(418,760,l),
(38,760,l)
);
},
{
closed = 1;
nodes = (
(190,304,l),
(342,304,l),
(342,266,l),
(380,266,l),
(380,190,l),
(342,190,l),
(342,152,l),
(190,152,l)
);
},
{
closed = 1;
nodes = (
(190,608,l),
(342,608,l),
(342,570,l),
(380,570,l),
(380,494,l),
(342,494,l),
(342,456,l),
(190,456,l)
);
}
);
width = 608;
}
);
},
{
color = 9;
glyphname = B.25;
lastChange = "2023-12-06 14:16:46 +0000";
layers = (
{
layerId = m01;
shapes = (
{
closed = 1;
nodes = (
(360,150,l),
(360,180,l),
(390,180,l),
(390,270,l),
(360,270,l),
(360,300,l),
(210,300,l),
(210,150,l)
);
},
{
closed = 1;
nodes = (
(60,750,l),
(420,750,l),
(420,720,l),
(480,720,l),
(480,690,l),
(510,690,l),
(510,630,l),
(540,630,l),
(540,420,l),
(510,420,l),
(510,390,l),
(480,390,l),
(480,360,l),
(510,360,l),
(510,330,l),
(540,330,l),
(540,120,l),
(510,120,l),
(510,60,l),
(480,60,l),
(480,30,l),
(420,30,l),
(420,0,l),
(60,0,l)
);
},
{
closed = 1;
nodes = (
(360,450,l),
(360,480,l),
(390,480,l),
(390,570,l),
(360,570,l),
(360,600,l),
(210,600,l),
(210,450,l)
);
}
);
width = 600;
},
{
layerId = m002;
shapes = (
{
closed = 1;
nodes = (
(360,150,l),
(360,180,l),
(390,180,l),
(390,270,l),
(360,270,l),
(360,300,l),
(210,300,l),
(210,150,l)
);
},
{
closed = 1;
nodes = (
(60,750,l),
(420,750,l),
(420,720,l),
(480,720,l),
(480,690,l),
(510,690,l),
(510,630,l),
(540,630,l),
(540,420,l),
(510,420,l),
(510,390,l),
(480,390,l),
(480,360,l),
(510,360,l),
(510,330,l),
(540,330,l),
(540,120,l),
(510,120,l),
(510,60,l),
(480,60,l),
(480,30,l),
(420,30,l),
(420,0,l),
(60,0,l)
);
},
{
closed = 1;
nodes = (
(360,450,l),
(360,480,l),
(390,480,l),
(390,570,l),
(360,570,l),
(360,600,l),
(210,600,l),
(210,450,l)
);
}
);
width = 600;
}
);
},
{
color = 1;
glyphname = C.15;
lastChange = "2023-12-06 14:16:46 +0000";
layers = (
{
anchors = (
{
name = bottom;
pos = (300,0);
},
{
name = top.case;
pos = (300,750);
}
);
layerId = m01;
shapes = (
{
closed = 1;
nodes = (
(150,700,l),
(100,700,l),
(100,650,l),
(50,650,l),
(50,100,l),
(100,100,l),
(100,50,l),
(150,50,l),
(150,0,l),
(450,0,l),
(450,50,l),
(500,50,l),
(500,100,l),
(550,100,l),
(550,250,l),
(400,250,l),
(400,200,l),
(350,200,l),
(350,150,l),
(250,150,l),
(250,200,l),
(200,200,l),
(200,550,l),
(250,550,l),
(250,600,l),
(350,600,l),
(350,550,l),
(400,550,l),
(400,500,l),
(550,500,l),
(550,650,l),
(500,650,l),
(500,700,l),
(450,700,l),
(450,750,l),
(150,750,l)
);
}
);
width = 600;
},
{
anchors = (
{
name = bottom;
pos = (300,0);
},
{
name = top.case;
pos = (300,750);
}
);
layerId = m002;
shapes = (
{
closed = 1;
nodes = (
(150,700,l),
(100,700,l),
(100,650,l),
(50,650,l),
(50,100,l),
(100,100,l),
(100,50,l),
(150,50,l),
(150,0,l),
(450,0,l),
(450,50,l),
(500,50,l),
(500,100,l),
(550,100,l),
(550,250,l),
(400,250,l),
(400,200,l),
(350,200,l),
(350,150,l),
(250,150,l),
(250,200,l),
(200,200,l),
(200,550,l),
(250,550,l),
(250,600,l),
(350,600,l),
(350,550,l),
(400,550,l),
(400,500,l),
(550,500,l),
(550,650,l),
(500,650,l),
(500,700,l),
(450,700,l),
(450,750,l),
(150,750,l)
);
}
);
width = 600;
}
);
},
